<svg width="1861" height="724" viewBox="0 0 1861 724" fill="none" xmlns="http://www.w3.org/2000/svg">
<path d="M86.7056 1.16439L0.11795 25.1935L193.557 722.24L280.145 698.211L86.7056 1.16439Z" fill="white"/>
<path d="M231.739 652.924L234.839 651.007C236.102 652.329 237.846 655.215 239.079 659.221C241.936 668.502 238.224 677.292 227.429 680.615C217.122 683.787 207.986 678.952 204.844 668.743C203.581 664.64 203.663 661.78 203.903 660.476L207.687 660.435C207.402 662.287 207.522 664.764 208.365 667.499C210.74 675.217 217.253 678.827 225.899 676.166C233.959 673.685 237.708 667.45 235.242 659.439C234.445 656.85 233.096 654.378 231.739 652.924ZM234.319 645.494L199.637 656.171L198.313 651.872L213.065 647.331L213.035 647.233C211.604 646.925 210.198 646.181 209.059 645.088C207.936 644.044 206.981 642.68 206.485 641.068C205.508 637.893 205.898 632.211 214.055 629.7L228.123 625.369L229.447 629.668L215.867 633.848C212.057 635.021 209.269 637.43 210.517 641.484C211.374 644.269 214.005 645.865 216.59 645.925C217.251 645.989 217.901 645.842 218.732 645.587L232.995 641.196L234.319 645.494ZM209.089 602.796L214.201 619.404C219.984 617.517 221.235 613.068 219.912 608.769C218.964 605.691 217.856 604.001 216.676 602.599L219.527 600.919C220.677 602.223 222.256 604.571 223.414 608.333C225.654 615.611 222.206 621.432 215.074 623.627C207.942 625.823 201.031 623.351 198.911 616.464C196.535 608.746 202.694 604.604 207.041 603.266C207.92 602.995 208.634 602.882 209.089 602.796ZM211.109 620.302L207.244 607.748C204.494 608.542 200.605 611.022 202.094 615.858C203.432 620.206 208.024 620.878 211.109 620.302ZM182.454 600.354L204.338 593.617L204.308 593.52C203.297 593.189 202.016 592.674 200.975 592.246L190.682 587.821L189.088 582.643L201.621 588.785L212.34 574.095L213.949 579.322L205.127 590.968L208.246 592.414L217.137 589.678L218.445 593.927L183.763 604.604L182.454 600.354ZM211.147 570.219L176.464 580.895L175.141 576.597L189.893 572.055L189.863 571.958C188.432 571.65 187.026 570.906 185.887 569.813C184.764 568.768 183.809 567.404 183.313 565.792C182.335 562.617 182.725 556.935 190.883 554.424L204.951 550.094L206.275 554.392L192.695 558.572C188.885 559.745 186.097 562.154 187.345 566.209C188.202 568.993 190.833 570.59 193.418 570.65C194.079 570.713 194.729 570.567 195.56 570.311L209.823 565.92L211.147 570.219ZM175.543 540.553C173.453 533.763 176.973 527.653 184.203 525.427C192.947 522.736 198.621 527.62 200.381 533.335C202.351 539.734 199.18 546.111 191.706 548.412C183.793 550.848 177.558 547.099 175.543 540.553ZM178.797 539.658C180.361 544.739 185.727 545.493 190.221 544.11C195.399 542.516 198.39 538.333 197.097 534.132C195.834 530.029 191.027 528.139 185.703 529.778C181.697 531.012 177.234 534.578 178.797 539.658ZM171.916 526.857L170.502 522.265L182.36 513.535C184.269 512.092 186.027 510.855 187.831 509.765L187.786 509.619C185.667 509.683 183.502 509.6 181.112 509.48L166.412 508.979L165.029 504.485L191.528 506.488L192.791 510.591L171.916 526.857ZM184.23 482.779L149.548 493.455L148.225 489.157L162.977 484.616L162.947 484.518C161.515 484.21 160.109 483.466 158.971 482.373C157.847 481.328 156.892 479.964 156.396 478.352C155.419 475.177 155.809 469.496 163.966 466.984L178.035 462.654L179.358 466.952L165.778 471.133C161.968 472.306 159.18 474.715 160.428 478.769C161.285 481.553 163.916 483.15 166.501 483.21C167.163 483.274 167.813 483.127 168.643 482.871L182.907 478.481L184.23 482.779ZM146.157 443.178L163.351 437.885C165.794 437.133 167.928 436.423 169.739 435.705L170.912 439.515L167.128 440.947L167.158 441.045C169.409 441.582 172.667 443.306 173.96 447.507C175.103 451.22 174.42 456.297 166.116 458.853L152.292 463.108L150.968 458.81L164.06 454.78C168.554 453.396 171.161 451.096 169.958 447.188C169.071 444.306 166.452 442.92 164.306 442.725C163.596 442.676 162.769 442.77 161.988 443.011L147.48 447.477L146.157 443.178ZM167.607 428.779L150.364 434.087C147.921 434.839 145.934 435.505 144.025 436.253L142.867 432.491L146.617 431.123L146.572 430.976C143.919 430.349 141.142 428.798 139.939 424.89C138.946 421.666 140.148 418.622 142.617 416.739L142.587 416.641C141.042 416.315 139.731 415.702 138.697 414.951C137.187 413.865 136.119 412.483 135.428 410.235C134.465 407.109 135.088 401.837 143.295 399.311L157.216 395.025L158.51 399.226L145.125 403.346C140.582 404.745 138.358 407.248 139.426 410.716C140.178 413.158 142.571 414.507 144.898 414.593C145.544 414.608 146.371 414.514 147.152 414.274L161.758 409.777L163.051 413.978L148.885 418.339C145.124 419.497 142.899 422 143.907 425.273C144.734 427.959 147.485 429.252 149.844 429.274C150.555 429.323 151.317 429.195 152.05 428.969L166.314 424.578L167.607 428.779ZM149.834 371.042L151.037 374.95L148.162 376.209L148.207 376.355C150.469 377.103 152.912 379.132 153.95 382.502C155.423 387.289 152.805 390.769 149.385 391.822C143.67 393.581 138.98 389.463 136.217 380.314L135.728 380.464C133.775 381.066 130.423 382.686 131.912 387.522C132.588 389.72 133.979 391.805 135.565 393.135L133.032 394.984C131.161 393.421 129.458 390.844 128.541 387.864C126.315 380.634 130.708 377.357 135.446 375.899L144.288 373.177C146.339 372.545 148.312 371.831 149.834 371.042ZM143.27 378.036L139.167 379.299C140.512 384.018 142.982 389.087 147.574 387.674C150.358 386.816 151.105 384.554 150.429 382.356C149.481 379.279 146.926 377.926 144.713 377.859C144.228 377.848 143.709 377.9 143.27 378.036ZM147.812 364.476L130.569 369.784C128.127 370.535 126.139 371.201 124.23 371.949L123.057 368.139L126.89 366.692L126.86 366.594C124.252 366.113 121.212 364.054 120.009 360.146C119.001 356.874 119.391 351.192 127.5 348.696L141.617 344.35L142.94 348.649L129.312 352.844C125.502 354.017 122.763 356.411 124.011 360.465C124.883 363.299 127.562 364.88 130.181 364.876C130.779 364.906 131.542 364.778 132.274 364.553L146.489 360.177L147.812 364.476ZM96.6407 321.585L95.3175 317.286L123.894 308.49C125.994 307.843 128.372 307.058 129.939 306.415L131.127 310.274L127.084 311.732L127.114 311.83C130.158 312.337 133.048 314.602 134.236 318.461C135.995 324.177 132.513 330.062 125.332 332.272C117.482 334.742 111.143 331.346 109.368 325.582C108.256 321.967 109.214 318.998 110.788 317.337L110.758 317.239L96.6407 321.585ZM121.407 313.961L117.303 315.224C116.766 315.39 116.048 315.664 115.556 315.976C113.016 317.453 111.491 320.49 112.483 323.714C113.852 328.159 118.572 329.594 123.798 327.985C128.585 326.511 131.82 322.948 130.392 318.308C129.505 315.426 126.788 313.374 123.323 313.585C122.692 313.619 122.09 313.751 121.407 313.961ZM127.797 299.456L111.531 304.464C108.747 305.321 106.368 306.106 104.215 306.93L103.057 303.168L107.653 301.593L107.592 301.398C104.087 301.301 101.287 299.328 100.4 296.446C100.249 295.958 100.193 295.601 100.17 295.18L104.225 293.932C104.262 294.401 104.349 294.856 104.529 295.442C105.462 298.471 108.419 299.913 111.823 299.507C112.44 299.424 113.154 299.312 113.886 299.086L126.489 295.206L127.797 299.456ZM117.719 266.715L118.922 270.623L116.047 271.882L116.092 272.029C118.354 272.776 120.797 274.805 121.835 278.176C123.308 282.963 120.69 286.443 117.27 287.495C111.555 289.254 106.865 285.137 104.102 275.987L103.613 276.137C101.66 276.739 98.3079 278.359 99.7965 283.195C100.473 285.393 101.864 287.478 103.45 288.808L100.917 290.657C99.0457 289.095 97.3432 286.517 96.4259 283.537C94.2005 276.308 98.5928 273.03 103.331 271.572L112.173 268.85C114.224 268.219 116.197 267.504 117.719 266.715ZM111.155 273.709L107.052 274.972C108.397 279.692 110.867 284.76 115.459 283.347C118.243 282.49 118.99 280.228 118.314 278.029C117.366 274.952 114.811 273.6 112.598 273.532C112.113 273.521 111.594 273.574 111.155 273.709ZM115.697 260.149L98.4539 265.457C96.0115 266.209 94.0238 266.874 92.115 267.622L90.9572 263.861L94.7072 262.493L94.6621 262.346C92.009 261.719 89.2319 260.167 88.029 256.259C87.0365 253.035 88.2386 249.992 90.7072 248.109L90.6771 248.011C89.1326 247.684 87.8211 247.072 86.7877 246.321C85.2769 245.235 84.2096 243.852 83.5179 241.605C82.5555 238.479 83.1786 233.207 91.3851 230.68L105.307 226.395L106.6 230.596L93.2156 234.716C88.6727 236.114 86.4485 238.617 87.5161 242.086C88.268 244.528 90.6618 245.877 92.9878 245.963C93.6341 245.978 94.4608 245.884 95.2424 245.643L109.848 241.147L111.141 245.348L96.9752 249.709C93.2139 250.867 90.9897 253.369 91.9971 256.642C92.8242 259.329 95.5749 260.621 97.9348 260.643C98.645 260.692 99.4078 260.564 100.14 260.339L114.404 255.948L115.697 260.149ZM97.9239 202.411L99.1268 206.319L96.2524 207.578L96.2975 207.725C98.5597 208.472 101.002 210.501 102.04 213.872C103.514 218.659 100.895 222.139 97.4756 223.191C91.7604 224.951 87.0703 220.833 84.3072 211.683L83.8187 211.834C81.8648 212.435 78.5132 214.055 80.0018 218.891C80.6785 221.089 82.0691 223.175 83.655 224.505L81.1225 226.354C79.251 224.791 77.5485 222.213 76.6312 219.233C74.4057 212.004 78.7981 208.727 83.5363 207.268L92.3778 204.546C94.4294 203.915 96.4021 203.201 97.9239 202.411ZM91.3601 209.405L87.2569 210.668C88.6027 215.388 91.0721 220.457 95.6639 219.043C98.4482 218.186 99.1957 215.924 98.519 213.726C97.5717 210.648 95.0163 209.296 92.803 209.228C92.3183 209.217 91.7997 209.27 91.3601 209.405Z" fill="#FD79B4"/>
<path d="M515.2 0.0100098H358.99V723.4H515.2V0.0100098Z" fill="white"/>
<path d="M440.16 146.665V151.571L405.712 162.816V158.011L422.68 152.645C427.331 151.162 431.522 149.885 435.56 148.965V148.863C431.573 147.891 427.229 146.46 422.731 144.927L405.712 139.101V134.347L440.16 146.665ZM414.861 122.009C414.861 114.904 420.023 110.1 427.587 110.1C436.736 110.1 440.722 116.438 440.722 122.418C440.722 129.113 435.816 134.275 427.996 134.275C419.716 134.275 414.861 128.857 414.861 122.009ZM418.234 122.111C418.234 127.426 423.14 129.726 427.842 129.726C433.26 129.726 437.349 126.609 437.349 122.213C437.349 117.92 433.311 114.7 427.74 114.7C423.549 114.7 418.234 116.795 418.234 122.111ZM440.16 99.9379V104.436H415.423V99.9379H440.16ZM405.661 102.187C405.661 100.5 406.887 99.4268 408.472 99.4268C410.005 99.3757 411.232 100.5 411.232 102.289C411.232 103.873 410.005 104.998 408.472 104.998C406.887 104.998 405.661 103.822 405.661 102.187ZM435.867 75.5904L439.24 74.8237C439.853 75.9993 440.671 78.6059 440.671 81.928C440.671 89.3901 435.611 94.2455 428.047 94.2455C420.432 94.2455 414.912 89.0323 414.912 80.9569C414.912 78.2992 415.576 75.9481 416.189 74.7215L419.665 75.7437C419.052 76.817 418.489 78.5036 418.489 80.9569C418.489 86.6301 422.68 89.6967 427.842 89.6967C433.567 89.6967 437.093 86.0168 437.093 81.1103C437.093 78.5548 436.429 76.8681 435.867 75.5904ZM428.609 49.9647V67.3421C434.691 67.2399 437.196 63.3555 437.196 58.8578C437.196 55.6379 436.633 53.6957 435.918 52.0091L439.138 51.2424C439.853 52.8269 440.671 55.5357 440.671 59.4712C440.671 67.0865 435.662 71.6353 428.2 71.6353C420.738 71.6353 414.861 67.2399 414.861 60.0334C414.861 51.958 421.965 49.8114 426.514 49.8114C427.434 49.8114 428.149 49.9136 428.609 49.9647ZM425.389 67.291V54.1557C422.527 54.1046 418.08 55.3312 418.08 60.3911C418.08 64.9399 422.271 66.9332 425.389 67.291Z" fill="#F51E1E"/>
<path d="M438.473 675.013L434.742 673.889C435.969 671.896 436.991 668.982 436.991 665.916C436.991 661.367 434.589 658.709 431.114 658.709C427.894 658.709 426.054 660.549 424.265 665.2C422.271 670.822 419.358 674.298 414.503 674.298C409.136 674.298 405.15 669.851 405.15 663.156C405.15 659.629 405.967 657.074 406.836 655.541L410.465 656.767C409.852 657.892 408.83 660.192 408.83 663.309C408.83 668.011 411.641 669.8 413.992 669.8C417.212 669.8 418.796 667.705 420.636 662.951C422.885 657.125 425.696 654.161 430.756 654.161C436.071 654.161 440.671 658.096 440.671 666.222C440.671 669.545 439.7 673.173 438.473 675.013ZM409.494 647.351L408.318 642.955H415.423V636.516H418.847V642.955H432.187C435.253 642.955 436.991 642.087 436.991 639.582C436.991 638.407 436.838 637.538 436.684 636.976L440.058 636.771C440.416 637.64 440.671 639.02 440.671 640.758C440.671 642.853 440.007 644.54 438.78 645.613C437.451 646.891 435.253 647.351 432.34 647.351H418.847V651.184H415.423V647.351H409.494ZM440.16 613.667V617.755L437.042 618.113V618.267C438.984 619.647 440.722 622.304 440.722 625.831C440.722 630.84 437.196 633.395 433.618 633.395C427.638 633.395 424.367 628.08 424.418 618.522H423.907C421.863 618.522 418.183 619.084 418.183 624.144C418.183 626.444 418.898 628.846 420.023 630.584L417.058 631.606C415.729 629.562 414.861 626.597 414.861 623.48C414.861 615.915 420.023 614.076 424.98 614.076H434.231C436.378 614.076 438.473 613.973 440.16 613.667ZM431.829 618.42H427.536C427.434 623.326 428.302 628.897 433.107 628.897C436.02 628.897 437.4 626.955 437.4 624.655C437.4 621.435 435.356 619.391 433.26 618.675C432.8 618.522 432.289 618.42 431.829 618.42ZM440.16 606.796H422.118C419.563 606.796 417.467 606.847 415.423 607.001V603.014L419.512 602.759V602.656C417.16 601.43 414.861 598.568 414.861 594.479C414.861 591.054 416.905 585.739 425.389 585.739H440.16V590.237H425.9C421.914 590.237 418.592 591.719 418.592 595.961C418.592 598.925 420.687 601.225 423.191 601.992C423.754 602.196 424.52 602.299 425.287 602.299H440.16V606.796ZM440.16 573.949V578.446H415.423V573.949H440.16ZM405.661 576.197C405.661 574.511 406.887 573.437 408.472 573.437C410.005 573.386 411.232 574.511 411.232 576.3C411.232 577.884 410.005 579.008 408.472 579.008C406.887 579.008 405.661 577.833 405.661 576.197ZM438.984 568.205L435.56 567.081C436.429 565.752 437.349 563.401 437.349 561.152C437.349 557.881 435.713 556.348 433.669 556.348C431.522 556.348 430.347 557.625 429.12 560.947C427.536 565.394 425.083 567.49 422.118 567.49C418.132 567.49 414.861 564.27 414.861 558.954C414.861 556.45 415.576 554.252 416.394 552.872L419.665 553.997C419.052 554.968 418.234 556.756 418.234 559.056C418.234 561.714 419.767 563.196 421.607 563.196C423.651 563.196 424.571 561.714 425.798 558.494C427.434 554.201 429.58 552.003 433.26 552.003C437.604 552.003 440.671 555.376 440.671 561.254C440.671 563.963 440.007 566.467 438.984 568.205ZM440.16 546.203H403.872V541.705H440.16V546.203ZM440.16 516.338V520.427L437.042 520.785V520.938C438.984 522.318 440.722 524.976 440.722 528.502C440.722 533.511 437.196 536.066 433.618 536.066C427.638 536.066 424.367 530.751 424.418 521.193H423.907C421.863 521.193 418.183 521.756 418.183 526.816C418.183 529.116 418.898 531.518 420.023 533.255L417.058 534.278C415.729 532.233 414.861 529.269 414.861 526.151C414.861 518.587 420.023 516.747 424.98 516.747H434.231C436.378 516.747 438.473 516.645 440.16 516.338ZM431.829 521.091H427.536C427.434 525.998 428.302 531.569 433.107 531.569C436.02 531.569 437.4 529.627 437.4 527.327C437.4 524.107 435.356 522.062 433.26 521.347C432.8 521.193 432.289 521.091 431.829 521.091ZM415.423 512.934V508.129L429.325 503.274C431.573 502.456 433.618 501.792 435.662 501.281V501.127C433.618 500.565 431.573 499.849 429.325 499.032L415.423 494.227V489.525L440.16 499.236V503.529L415.423 512.934ZM438.984 487.298L435.56 486.173C436.429 484.844 437.349 482.493 437.349 480.244C437.349 476.973 435.713 475.44 433.669 475.44C431.522 475.44 430.347 476.718 429.12 480.04C427.536 484.487 425.083 486.582 422.118 486.582C418.132 486.582 414.861 483.362 414.861 478.047C414.861 475.542 415.576 473.345 416.394 471.965L419.665 473.089C419.052 474.06 418.234 475.849 418.234 478.149C418.234 480.807 419.767 482.289 421.607 482.289C423.651 482.289 424.571 480.807 425.798 477.587C427.434 473.293 429.58 471.096 433.26 471.096C437.604 471.096 440.671 474.469 440.671 480.347C440.671 483.055 440.007 485.56 438.984 487.298ZM403.872 460.849H426.769V460.747C425.9 460.133 424.827 459.265 423.958 458.549L415.423 451.291V445.874L425.594 455.431L440.16 444.545V450.014L428.302 458.549L430.858 460.849H440.16V465.296H403.872V460.849ZM440.16 435.992V440.489H415.423V435.992H440.16ZM405.661 438.24C405.661 436.554 406.887 435.48 408.472 435.48C410.005 435.429 411.232 436.554 411.232 438.343C411.232 439.927 410.005 441.051 408.472 441.051C406.887 441.051 405.661 439.876 405.661 438.24ZM415.423 431.781V426.875L430.04 421.457C431.676 420.895 433.618 420.282 435.1 419.873V419.77C433.618 419.31 431.727 418.799 429.938 418.186L415.423 413.279V408.526L433.056 415.273C441.54 418.493 445.884 420.69 448.542 423.757C450.484 425.955 451.251 428.153 451.455 429.277L447.673 430.401C447.315 429.277 446.6 427.795 445.475 426.466C444.504 425.239 442.767 423.706 440.467 422.684C440.007 422.479 439.649 422.326 439.393 422.326C439.138 422.326 438.78 422.428 438.218 422.633L415.423 431.781ZM440.16 389.277V393.468H405.712V388.613L423.14 377.573C427.178 375.018 430.807 373.024 434.333 371.389L434.282 371.287C429.682 371.696 425.491 371.798 420.125 371.798H405.712V367.607H440.16V372.104L422.68 383.042C418.847 385.444 414.912 387.744 411.181 389.482L411.232 389.635C415.576 389.38 419.716 389.277 425.44 389.277H440.16ZM440.722 358.039C440.722 359.828 439.342 361.054 437.502 361.054C435.611 361.054 434.282 359.777 434.282 357.988C434.282 356.199 435.611 354.972 437.502 354.972C439.342 354.972 440.722 356.148 440.722 358.039ZM438.473 350.984L434.742 349.86C435.969 347.866 436.991 344.953 436.991 341.886C436.991 337.338 434.589 334.68 431.114 334.68C427.894 334.68 426.054 336.52 424.265 341.171C422.271 346.793 419.358 350.268 414.503 350.268C409.136 350.268 405.15 345.822 405.15 339.126C405.15 335.6 405.967 333.044 406.836 331.511L410.465 332.738C409.852 333.862 408.83 336.162 408.83 339.28C408.83 343.982 411.641 345.771 413.992 345.771C417.212 345.771 418.796 343.675 420.636 338.922C422.885 333.095 425.696 330.131 430.756 330.131C436.071 330.131 440.671 334.067 440.671 342.193C440.671 345.515 439.7 349.144 438.473 350.984ZM440.722 322.252C440.722 324.041 439.342 325.267 437.502 325.267C435.611 325.267 434.282 323.99 434.282 322.201C434.282 320.412 435.611 319.185 437.502 319.185C439.342 319.185 440.722 320.361 440.722 322.252Z" fill="#F51E1E"/>
<path d="M351.93 0.0100098H273.83V723.4H351.93V0.0100098Z" fill="white"/>
<path d="M309.319 270.677V288.055C315.401 287.952 317.906 284.068 317.906 279.57C317.906 276.35 317.343 274.408 316.628 272.722L319.848 271.955C320.563 273.539 321.381 276.248 321.381 280.184C321.381 287.799 316.372 292.348 308.91 292.348C301.448 292.348 295.571 287.952 295.571 280.746C295.571 272.67 302.675 270.524 307.224 270.524C308.144 270.524 308.859 270.626 309.319 270.677ZM306.099 288.003V274.868C303.237 274.817 298.79 276.044 298.79 281.104C298.79 285.652 302.981 287.646 306.099 288.003ZM330.99 264.954H304.208C301.039 264.954 298.484 265.056 296.133 265.158V261.121L300.375 260.916V260.814C297.359 258.974 295.571 256.061 295.571 252.023C295.571 246.043 300.63 241.546 308.144 241.546C317.037 241.546 321.432 246.963 321.432 252.79C321.432 256.061 320.001 258.923 317.548 260.405V260.507H330.99V264.954ZM306.559 260.507H310.801C311.466 260.507 312.079 260.405 312.641 260.303C315.759 259.485 317.906 256.776 317.906 253.557C317.906 248.803 314.021 246.043 308.348 246.043C303.39 246.043 299.148 248.65 299.148 253.403C299.148 256.47 301.346 259.332 304.719 260.201C305.281 260.354 305.946 260.507 306.559 260.507ZM320.87 231.358V235.855H296.133V231.358H320.87ZM286.371 233.606C286.371 231.92 287.597 230.846 289.182 230.846C290.715 230.795 291.942 231.92 291.942 233.709C291.942 235.293 290.715 236.417 289.182 236.417C287.597 236.417 286.371 235.242 286.371 233.606ZM316.577 207.01L319.95 206.243C320.563 207.419 321.381 210.026 321.381 213.348C321.381 220.81 316.321 225.665 308.757 225.665C301.142 225.665 295.622 220.452 295.622 212.377C295.622 209.719 296.286 207.368 296.899 206.141L300.375 207.163C299.762 208.237 299.199 209.923 299.199 212.377C299.199 218.05 303.39 221.116 308.552 221.116C314.277 221.116 317.803 217.437 317.803 212.53C317.803 209.974 317.139 208.288 316.577 207.01ZM290.204 189.114L289.028 184.718H296.133V178.278H299.557V184.718H312.897C315.963 184.718 317.701 183.849 317.701 181.345C317.701 180.169 317.548 179.3 317.395 178.738L320.768 178.534C321.126 179.403 321.381 180.783 321.381 182.52C321.381 184.616 320.717 186.303 319.49 187.376C318.161 188.654 315.963 189.114 313.05 189.114H299.557V192.947H296.133V189.114H290.204ZM320.87 173.216H284.582V168.718H300.017V168.616C298.739 167.9 297.615 166.776 296.848 165.396C296.082 164.067 295.571 162.482 295.571 160.796C295.571 157.474 297.615 152.158 306.15 152.158H320.87V156.656H306.661C302.675 156.656 299.302 158.138 299.302 162.38C299.302 165.294 301.346 167.593 303.799 168.411C304.413 168.667 305.077 168.718 305.946 168.718H320.87V173.216ZM309.319 124.984V142.361C315.401 142.259 317.906 138.375 317.906 133.877C317.906 130.657 317.343 128.715 316.628 127.028L319.848 126.261C320.563 127.846 321.381 130.555 321.381 134.49C321.381 142.106 316.372 146.654 308.91 146.654C301.448 146.654 295.571 142.259 295.571 135.052C295.571 126.977 302.675 124.83 307.224 124.83C308.144 124.83 308.859 124.933 309.319 124.984ZM306.099 142.31V129.175C303.237 129.124 298.79 130.35 298.79 135.41C298.79 139.959 302.981 141.952 306.099 142.31ZM320.87 101.474V105.563L317.752 105.921V106.074C319.694 107.454 321.432 110.112 321.432 113.638C321.432 118.647 317.906 121.203 314.328 121.203C308.348 121.203 305.077 115.887 305.128 106.33H304.617C302.573 106.33 298.893 106.892 298.893 111.952C298.893 114.252 299.608 116.654 300.733 118.392L297.768 119.414C296.439 117.37 295.571 114.405 295.571 111.287C295.571 103.723 300.733 101.883 305.69 101.883H314.941C317.088 101.883 319.183 101.781 320.87 101.474ZM312.539 106.228H308.246C308.144 111.134 309.012 116.705 313.817 116.705C316.73 116.705 318.11 114.763 318.11 112.463C318.11 109.243 316.066 107.199 313.97 106.483C313.51 106.33 312.999 106.228 312.539 106.228ZM290.204 93.7815L289.028 89.386H296.133V82.9461H299.557V89.386H312.897C315.963 89.386 317.701 88.5171 317.701 86.0127C317.701 84.8372 317.548 83.9683 317.395 83.4061L320.768 83.2017C321.126 84.0706 321.381 85.4505 321.381 87.1883C321.381 89.2838 320.717 90.9704 319.49 92.0437C318.161 93.3215 315.963 93.7815 313.05 93.7815H299.557V97.6147H296.133V93.7815H290.204ZM320.87 77.8834H303.85C300.937 77.8834 298.433 77.9346 296.133 78.0879V74.1524L300.988 73.9991V73.7946C297.666 72.6702 295.571 69.9614 295.571 66.9459C295.571 66.4348 295.622 66.077 295.724 65.6682H299.966C299.864 66.1281 299.813 66.5881 299.813 67.2015C299.813 70.3703 302.215 72.6191 305.588 73.2324C306.201 73.3347 306.917 73.4369 307.684 73.4369H320.87V77.8834ZM309.319 41.7802V59.1576C315.401 59.0554 317.906 55.171 317.906 50.6734C317.906 47.4534 317.343 45.5112 316.628 43.8246L319.848 43.058C320.563 44.6424 321.381 47.3512 321.381 51.2867C321.381 58.9021 316.372 63.4509 308.91 63.4509C301.448 63.4509 295.571 59.0554 295.571 51.8489C295.571 43.7735 302.675 41.6269 307.224 41.6269C308.144 41.6269 308.859 41.7291 309.319 41.7802ZM306.099 59.1065V45.9712C303.237 45.9201 298.79 47.1468 298.79 52.2067C298.79 56.7554 302.981 58.7487 306.099 59.1065Z" fill="#F51E1E"/>
<path d="M310.035 655.489V667.705L320.87 671.282V675.882L286.422 664.178V658.812L320.87 647.056V651.809L310.035 655.489ZM306.559 666.785V656.409L296.644 659.783C294.395 660.549 292.351 661.06 290.357 661.571V661.674C292.402 662.185 294.497 662.747 296.593 663.411L306.559 666.785ZM320.87 642.284H303.85C300.937 642.284 298.433 642.335 296.133 642.488V638.553L300.988 638.399V638.195C297.666 637.071 295.571 634.362 295.571 631.346C295.571 630.835 295.622 630.477 295.724 630.069H299.966C299.864 630.529 299.813 630.989 299.813 631.602C299.813 634.771 302.215 637.02 305.588 637.633C306.201 637.735 306.917 637.837 307.684 637.837H320.87V642.284ZM290.204 623.293L289.028 618.898H296.133V612.458H299.557V618.898H312.897C315.963 618.898 317.701 618.029 317.701 615.525C317.701 614.349 317.548 613.48 317.395 612.918L320.768 612.714C321.126 613.582 321.381 614.962 321.381 616.7C321.381 618.796 320.717 620.482 319.49 621.556C318.161 622.833 315.963 623.293 313.05 623.293H299.557V627.127H296.133V623.293H290.204ZM320.87 589.609V593.698L317.752 594.056V594.209C319.694 595.589 321.432 598.247 321.432 601.773C321.432 606.782 317.906 609.337 314.328 609.337C308.348 609.337 305.077 604.022 305.128 594.464H304.617C302.573 594.464 298.893 595.027 298.893 600.087C298.893 602.387 299.608 604.789 300.733 606.526L297.768 607.549C296.439 605.504 295.571 602.54 295.571 599.422C295.571 591.858 300.733 590.018 305.69 590.018H314.941C317.088 590.018 319.183 589.916 320.87 589.609ZM312.539 594.362H308.246C308.144 599.269 309.012 604.84 313.817 604.84C316.73 604.84 318.11 602.898 318.11 600.598C318.11 597.378 316.066 595.333 313.97 594.618C313.51 594.464 312.999 594.362 312.539 594.362ZM296.133 562.039H314.123C316.679 562.039 318.928 561.988 320.87 561.835V565.821L316.832 566.077V566.179C318.826 567.355 321.432 569.961 321.432 574.357C321.432 578.241 319.286 582.892 310.597 582.892H296.133V578.394H309.83C314.532 578.394 317.701 576.963 317.701 572.874C317.701 569.859 315.606 567.763 313.612 566.946C312.948 566.69 312.13 566.537 311.312 566.537H296.133V562.039ZM284.582 537.722V533.224H314.481C316.679 533.224 319.183 533.173 320.87 533.02V537.058L316.577 537.262V537.364C319.337 538.744 321.432 541.76 321.432 545.797C321.432 551.777 316.372 556.377 308.859 556.377C300.63 556.428 295.571 551.317 295.571 545.286C295.571 541.504 297.359 538.949 299.353 537.824V537.722H284.582ZM310.495 537.722H306.201C305.639 537.722 304.873 537.773 304.31 537.926C301.448 538.591 299.097 541.044 299.097 544.417C299.097 549.068 303.186 551.828 308.655 551.828C313.663 551.828 317.803 549.375 317.803 544.52C317.803 541.504 315.81 538.744 312.437 537.926C311.824 537.773 311.21 537.722 310.495 537.722Z" fill="#F51E1E"/>
<path d="M1185.83 386.606L1161.35 449.747L1835.83 711.225L1860.31 648.084L1185.83 386.606Z" fill="white"/>
<path d="M1609.33 581.744L1593.13 575.462C1591.03 581.17 1593.74 584.909 1597.94 586.535C1600.94 587.699 1602.95 587.877 1604.78 587.819L1604.34 591.099C1602.6 591.193 1599.78 590.976 1596.11 589.554C1589.01 586.801 1586.58 580.487 1589.28 573.529C1591.97 566.572 1598.2 562.68 1604.91 565.285C1612.44 568.204 1611.88 575.604 1610.23 579.845C1609.9 580.703 1609.55 581.333 1609.33 581.744ZM1594.34 572.479L1606.59 577.227C1607.67 574.576 1608.13 569.987 1603.42 568.158C1599.18 566.514 1595.8 569.701 1594.34 572.479ZM1606.84 604.018L1616.52 579.047C1617.66 576.092 1618.49 573.673 1619.24 571.444L1623.01 572.903L1621.67 576.932L1621.76 576.969C1624.57 574.823 1627.93 574.208 1631.7 575.667C1637.27 577.829 1639.64 584.172 1636.92 591.178C1633.71 599.469 1627.07 601.609 1621.63 599.503C1618.58 598.321 1616.43 595.952 1615.94 593.129L1615.84 593.092L1610.98 605.625L1606.84 604.018ZM1619.81 582.846L1618.28 586.802C1618.04 587.421 1617.91 588.03 1617.8 588.591C1617.44 591.794 1619.19 594.774 1622.19 595.938C1626.62 597.656 1630.6 595.032 1632.65 589.742C1634.44 585.12 1633.55 580.222 1629.12 578.504C1626.26 577.396 1622.79 578.41 1620.76 581.242C1620.42 581.71 1620.03 582.274 1619.81 582.846ZM1641.82 606.726L1637.63 605.1L1646.57 582.036L1650.76 583.661L1641.82 606.726ZM1652.19 573.747C1653.76 574.356 1654.32 575.888 1653.75 577.365C1653.24 578.813 1651.75 579.55 1650.08 578.904C1648.61 578.331 1648 576.781 1648.56 575.351C1649.13 573.874 1650.67 573.155 1652.19 573.747ZM1666.07 611.524L1665.57 614.946C1664.25 615.093 1661.52 614.913 1658.43 613.712C1651.47 611.015 1648.77 604.542 1651.5 597.49C1654.26 590.389 1661.11 587.127 1668.64 590.046C1671.12 591.006 1673.07 592.476 1673.99 593.491L1671.79 596.362C1671.01 595.402 1669.64 594.268 1667.35 593.382C1662.06 591.331 1657.69 594.13 1655.82 598.943C1653.75 604.28 1655.91 608.899 1660.48 610.672C1662.86 611.596 1664.68 611.586 1666.07 611.524ZM1692.29 593.403L1696.81 593.896L1694.25 600.52L1700.25 602.848L1699.01 606.04L1693.01 603.713L1688.19 616.15C1687.08 619.01 1687.26 620.944 1689.6 621.849C1690.69 622.274 1691.56 622.445 1692.14 622.505L1691.11 625.725C1690.17 625.744 1688.79 625.483 1687.17 624.855C1685.22 624.098 1683.88 622.869 1683.33 621.337C1682.61 619.636 1682.98 617.421 1684.03 614.705L1688.91 602.124L1685.34 600.738L1686.57 597.545L1690.15 598.931L1692.29 593.403ZM1696.03 627.742L1709.15 593.908L1713.34 595.533L1707.76 609.925L1707.86 609.962C1708.99 609.029 1710.44 608.387 1712 608.171C1713.52 607.937 1715.18 608.033 1716.75 608.643C1719.85 609.843 1724.07 613.671 1720.98 621.629L1715.66 635.354L1711.47 633.728L1716.61 620.48C1718.05 616.763 1717.88 613.082 1713.93 611.549C1711.21 610.496 1708.33 611.57 1706.68 613.562C1706.22 614.042 1705.93 614.643 1705.62 615.453L1700.22 629.368L1696.03 627.742ZM1745.18 634.406L1728.97 628.125C1726.87 633.833 1729.59 637.572 1733.78 639.198C1736.78 640.362 1738.8 640.539 1740.63 640.482L1740.18 643.761C1738.44 643.856 1735.62 643.639 1731.95 642.216C1724.85 639.464 1722.42 633.149 1725.12 626.192C1727.82 619.234 1734.04 615.343 1740.76 617.948C1748.29 620.867 1747.72 628.267 1746.08 632.508C1745.74 633.366 1745.39 633.996 1745.18 634.406ZM1730.18 625.141L1742.43 629.889C1743.51 627.239 1743.98 622.65 1739.26 620.821C1735.02 619.177 1731.65 622.364 1730.18 625.141ZM1762.92 653.674L1759.11 652.196L1759.9 649.16L1759.76 649.104C1757.77 650.416 1754.66 651.076 1751.38 649.801C1746.71 647.991 1745.6 643.779 1746.89 640.443C1749.05 634.867 1755.19 633.739 1764.08 637.241L1764.27 636.765C1765.01 634.859 1765.81 631.224 1761.1 629.395C1758.95 628.564 1756.45 628.363 1754.43 628.783L1754.54 625.65C1756.93 625.15 1760.01 625.411 1762.92 626.538C1769.97 629.272 1769.82 634.75 1768.03 639.373L1764.68 647.998C1763.91 650 1763.24 651.99 1762.92 653.674ZM1761.5 644.188L1763.05 640.185C1758.51 638.316 1753.01 637.113 1751.27 641.592C1750.22 644.309 1751.53 646.297 1753.67 647.129C1756.67 648.292 1759.32 647.125 1760.74 645.43C1761.05 645.057 1761.33 644.617 1761.5 644.188ZM1781.18 627.862L1785.7 628.355L1783.13 634.979L1789.14 637.306L1787.9 640.499L1781.9 638.172L1777.07 650.609C1775.96 653.469 1776.15 655.403 1778.48 656.308C1779.58 656.733 1780.44 656.904 1781.02 656.964L1779.99 660.183C1779.05 660.203 1777.68 659.942 1776.06 659.314C1774.1 658.557 1772.77 657.328 1772.21 655.796C1771.5 654.095 1771.87 651.88 1772.92 649.163L1777.8 636.583L1774.22 635.197L1775.46 632.004L1779.03 633.39L1781.18 627.862ZM1784.92 662.201L1791.07 646.332C1792.12 643.616 1792.98 641.262 1793.67 639.063L1797.34 640.485L1795.72 645.068L1795.91 645.142C1798.16 642.45 1801.45 641.476 1804.26 642.566C1804.74 642.75 1805.05 642.927 1805.39 643.171L1803.86 647.126C1803.47 646.864 1803.06 646.65 1802.49 646.429C1799.53 645.283 1796.57 646.71 1794.78 649.634C1794.46 650.169 1794.11 650.799 1793.83 651.514L1789.06 663.808L1784.92 662.201ZM1822.75 664.481L1806.55 658.2C1804.45 663.908 1807.16 667.647 1811.36 669.273C1814.36 670.436 1816.37 670.614 1818.21 670.557L1817.76 673.836C1816.02 673.931 1813.2 673.714 1809.53 672.291C1802.43 669.539 1800 663.224 1802.7 656.267C1805.39 649.309 1811.62 645.418 1818.34 648.023C1825.86 650.942 1825.3 658.342 1823.65 662.583C1823.32 663.441 1822.97 664.071 1822.75 664.481ZM1807.76 655.216L1820.01 659.964C1821.09 657.314 1821.56 652.725 1816.84 650.896C1812.6 649.251 1809.22 652.439 1807.76 655.216Z" fill="#F51E1E"/>
<path d="M1224.26 432.329L1212.87 427.913L1205.62 436.723L1201.33 435.06L1224.7 407.172L1229.7 409.112L1228.21 445.48L1223.78 443.762L1224.26 432.329ZM1214.99 425.005L1224.66 428.756L1225.1 418.291C1225.2 415.918 1225.46 413.827 1225.71 411.783L1225.61 411.746C1224.39 413.468 1223.11 415.218 1221.74 416.932L1214.99 425.005ZM1232.66 447.205L1238.81 431.336C1239.86 428.62 1240.72 426.266 1241.41 424.066L1245.08 425.489L1243.47 430.071L1243.66 430.145C1245.91 427.454 1249.19 426.479 1252 427.569C1252.48 427.754 1252.79 427.931 1253.14 428.174L1251.6 432.129C1251.21 431.868 1250.8 431.654 1250.23 431.432C1247.28 430.287 1244.31 431.714 1242.52 434.637C1242.2 435.172 1241.85 435.802 1241.57 436.517L1236.81 448.812L1232.66 447.205ZM1261.45 425.477L1265.97 425.969L1263.41 432.593L1269.41 434.921L1268.17 438.114L1262.17 435.786L1257.35 448.224C1256.24 451.083 1256.42 453.017 1258.75 453.923C1259.85 454.348 1260.72 454.519 1261.3 454.579L1260.27 457.798C1259.33 457.817 1257.95 457.557 1256.33 456.929C1254.37 456.171 1253.04 454.942 1252.49 453.411C1251.77 451.71 1252.14 449.494 1253.19 446.778L1258.07 434.197L1254.5 432.812L1255.73 429.619L1259.31 431.004L1261.45 425.477ZM1281.77 466.245L1277.96 464.767L1278.75 461.73L1278.61 461.675C1276.62 462.987 1273.52 463.647 1270.23 462.372C1265.56 460.561 1264.45 456.35 1265.74 453.014C1267.9 447.438 1274.04 446.31 1282.94 449.812L1283.12 449.336C1283.86 447.429 1284.67 443.795 1279.95 441.966C1277.8 441.135 1275.3 440.934 1273.28 441.354L1273.4 438.22C1275.78 437.72 1278.86 437.982 1281.77 439.109C1288.82 441.843 1288.67 447.321 1286.88 451.944L1283.53 460.569C1282.76 462.57 1282.1 464.561 1281.77 466.245ZM1280.35 456.759L1281.9 452.756C1277.37 450.887 1271.86 449.684 1270.12 454.163C1269.07 456.879 1270.38 458.868 1272.52 459.699C1275.53 460.863 1278.17 459.696 1279.6 458.001C1279.91 457.627 1280.19 457.188 1280.35 456.759ZM1316.42 453.145L1309.92 469.92C1308.99 472.302 1308.23 474.418 1307.67 476.284L1303.95 474.843L1305.17 470.986L1305.08 470.949C1303.26 472.383 1299.89 473.871 1295.79 472.282C1292.17 470.878 1288.61 467.195 1291.75 459.094L1296.98 445.608L1301.17 447.234L1296.22 460.005C1294.52 464.389 1294.71 467.861 1298.52 469.339C1301.33 470.429 1304.04 469.233 1305.53 467.67C1306.01 467.143 1306.44 466.435 1306.74 465.673L1312.23 451.52L1316.42 453.145ZM1343.27 451.165L1347.46 452.791L1336.65 480.669C1335.86 482.718 1335 485.071 1334.54 486.699L1330.77 485.24L1332.13 481.163L1332.04 481.126C1329.75 483.201 1326.18 484.065 1322.42 482.605C1316.84 480.444 1314.38 474.063 1317.1 467.058C1320.03 459.367 1326.62 456.497 1332.24 458.677C1335.77 460.044 1337.51 462.635 1337.83 464.9L1337.93 464.937L1343.27 451.165ZM1333.9 475.326L1335.45 471.323C1335.66 470.799 1335.89 470.066 1335.95 469.486C1336.36 466.577 1334.92 463.498 1331.78 462.279C1327.44 460.598 1323.39 463.413 1321.41 468.512C1319.6 473.182 1320.39 477.928 1324.92 479.684C1327.73 480.773 1331.03 479.913 1333.01 477.063C1333.37 476.547 1333.64 475.993 1333.9 475.326Z" fill="#F51E1E"/>
<path d="M871.747 162.742L826.768 207.721L1338.28 719.235L1383.26 674.256L871.747 162.742Z" fill="white"/>
<path d="M859.779 211.41L883.849 187.341C885.62 188.606 887.824 190.376 890.354 192.906C893.462 196.014 895.016 199.014 895.161 201.761C895.341 204.254 894.365 206.82 892.197 208.989C889.993 211.193 887.607 212.277 885.114 212.314C881.68 212.422 878.066 210.615 874.994 207.543C874.055 206.603 873.223 205.7 872.681 204.796L862.923 214.554L859.779 211.41ZM884.716 192.762L875.247 202.23C875.753 203.098 876.548 204.037 877.596 205.085C881.391 208.88 885.547 209.35 888.908 205.989C892.125 202.772 891.402 198.942 887.933 195.472C886.559 194.099 885.403 193.159 884.716 192.762ZM878.341 229.972L890.376 217.937C892.436 215.877 894.17 214.07 895.688 212.335L898.471 215.118L895.146 218.66L895.291 218.804C898.435 217.25 901.832 217.684 903.964 219.816C904.326 220.178 904.543 220.467 904.759 220.828L901.76 223.828C901.507 223.43 901.218 223.069 900.784 222.635C898.543 220.395 895.255 220.503 892.436 222.455C891.93 222.816 891.351 223.25 890.809 223.792L881.485 233.116L878.341 229.972ZM915.109 230.961C920.133 235.985 919.88 243.032 914.531 248.381C908.062 254.85 900.762 253.188 896.533 248.959C891.799 244.225 891.618 237.105 897.148 231.576C903.002 225.721 910.267 226.119 915.109 230.961ZM912.652 233.274C908.893 229.516 903.798 231.359 900.473 234.684C896.642 238.515 895.955 243.61 899.063 246.718C902.099 249.754 907.231 249.176 911.17 245.237C914.134 242.273 916.41 237.033 912.652 233.274ZM937.652 273.959L929.014 265.321L918.823 270.453L915.57 267.201L948.205 251.118L951.999 254.913L935.953 287.584L932.592 284.223L937.652 273.959ZM932.122 263.514L939.459 270.851L944.085 261.454C945.133 259.322 946.217 257.515 947.265 255.744L947.193 255.672C945.386 256.756 943.506 257.84 941.555 258.852L932.122 263.514ZM953.972 299.531L952.129 302.459C950.864 302.061 948.443 300.796 946.093 298.447C940.817 293.17 940.962 286.159 946.31 280.811C951.695 275.426 959.285 275.209 964.995 280.919C966.874 282.798 968.067 284.931 968.5 286.232L965.32 287.966C964.995 286.774 964.2 285.183 962.465 283.449C958.453 279.437 953.322 280.232 949.671 283.882C945.624 287.93 945.732 293.026 949.202 296.495C951.009 298.302 952.671 299.025 953.972 299.531ZM978.075 286.338L982.015 288.615L976.991 293.638L981.545 298.192L979.123 300.613L974.57 296.059L965.137 305.492C962.969 307.66 962.354 309.504 964.125 311.274C964.956 312.106 965.679 312.612 966.185 312.901L963.944 315.431C963.077 315.069 961.921 314.274 960.692 313.045C959.21 311.564 958.487 309.901 958.596 308.275C958.632 306.432 959.861 304.552 961.921 302.492L971.462 292.951L968.751 290.241L971.173 287.819L973.883 290.53L978.075 286.338Z" fill="#FD79B4"/>
<path d="M1194.39 530.117L1185.75 521.48L1175.56 526.612L1172.31 523.359L1204.94 507.276L1208.74 511.071L1192.69 543.742L1189.33 540.381L1194.39 530.117ZM1188.86 519.673L1196.2 527.009L1200.82 517.613C1201.87 515.48 1202.96 513.673 1204 511.902L1203.93 511.83C1202.12 512.914 1200.24 513.999 1198.29 515.011L1188.86 519.673ZM1196.07 547.117L1221.73 521.457L1224.91 524.637L1199.25 550.297L1196.07 547.117ZM1226.83 561.548L1214.55 549.261C1210.32 553.634 1211.29 558.151 1214.47 561.332C1216.75 563.608 1218.52 564.584 1220.22 565.271L1218.48 568.09C1216.86 567.475 1214.36 566.138 1211.58 563.355C1206.2 557.971 1206.52 551.212 1211.8 545.936C1217.08 540.659 1224.34 539.611 1229.44 544.707C1235.15 550.417 1231.64 556.959 1228.42 560.175C1227.77 560.826 1227.19 561.259 1226.83 561.548ZM1216.86 547.02L1226.15 556.308C1228.21 554.32 1230.48 550.309 1226.91 546.731C1223.69 543.514 1219.32 545.068 1216.86 547.02ZM1238.04 554.105L1241.58 557.647L1240.31 563.899C1239.99 565.526 1239.63 566.971 1239.23 568.525L1239.34 568.634C1240.97 568.164 1242.45 567.838 1243.97 567.477L1250.15 566.212L1253.58 569.645L1239.16 572.139L1236.27 587.318L1232.65 583.704L1234.03 577.199C1234.35 575.5 1234.75 573.946 1235.18 572.284L1235.11 572.211C1233.48 572.681 1231.93 573.007 1230.23 573.404L1223.76 574.814L1220.26 571.308L1235.4 568.597L1238.04 554.105ZM1261.03 595.747L1248.74 583.46C1244.52 587.833 1245.49 592.35 1248.67 595.531C1250.95 597.807 1252.72 598.783 1254.42 599.47L1252.68 602.289C1251.06 601.674 1248.56 600.337 1245.78 597.555C1240.4 592.17 1240.72 585.411 1246 580.135C1251.27 574.858 1258.54 573.81 1263.63 578.906C1269.34 584.616 1265.84 591.158 1262.62 594.374C1261.97 595.025 1261.39 595.458 1261.03 595.747ZM1251.06 581.219L1260.35 590.507C1262.41 588.519 1264.68 584.508 1261.1 580.93C1257.89 577.714 1253.51 579.268 1251.06 581.219ZM1279.14 613.853L1266.85 601.565C1262.62 605.938 1263.6 610.456 1266.78 613.636C1269.05 615.913 1270.83 616.889 1272.52 617.575L1270.79 620.394C1269.16 619.78 1266.67 618.443 1263.89 615.66C1258.5 610.275 1258.83 603.517 1264.1 598.24C1269.38 592.964 1276.64 591.916 1281.74 597.012C1287.45 602.722 1283.94 609.263 1280.73 612.48C1280.08 613.13 1279.5 613.564 1279.14 613.853ZM1269.16 599.325L1278.45 608.613C1280.51 606.625 1282.79 602.613 1279.21 599.035C1275.99 595.819 1271.62 597.373 1269.16 599.325ZM1290.34 606.407L1293.74 609.804L1287.34 623.068C1286.33 625.236 1285.35 627.152 1284.27 628.959L1284.38 629.067C1286.22 628.019 1288.17 627.079 1290.34 626.067L1303.57 619.634L1306.89 622.959L1282.53 633.585L1279.5 630.549L1290.34 606.407ZM1303.15 654.198L1300.18 651.234L1324.54 626.876L1327.98 630.309L1323.46 650.439C1322.41 655.101 1321.25 659.076 1319.92 662.727L1320.02 662.763C1322.99 659.221 1325.88 656.185 1329.67 652.391L1339.87 642.199L1342.83 645.162L1318.47 669.521L1315.29 666.341L1319.92 646.247C1320.93 641.838 1322.08 637.428 1323.49 633.561L1323.35 633.489C1320.46 636.742 1317.6 639.741 1313.56 643.789L1303.15 654.198ZM1324.84 676.684C1323.57 675.419 1323.68 673.576 1324.98 672.275C1326.32 670.938 1328.16 670.902 1329.43 672.167C1330.69 673.431 1330.62 675.238 1329.28 676.576C1327.98 677.877 1326.18 678.021 1324.84 676.684Z" fill="#FD79B4"/>
<path d="M735.676 27.7065L655.167 67.6193L976.472 715.737L1056.98 675.824L735.676 27.7065Z" fill="white"/>
<path d="M695.507 83.6791L719.864 72.5432C722.746 71.2255 725.027 70.07 727.123 68.9994L728.802 72.6715L725.029 74.6214L725.071 74.7143C728.579 75.1338 731.417 77.0395 733.096 80.7116C735.582 86.15 732.851 92.3444 726.018 95.4684C717.93 99.1662 711.68 96.0667 709.257 90.7678C707.897 87.7929 708.009 84.5949 709.623 82.2268L709.581 82.1338L697.356 87.723L695.507 83.6791ZM719.575 77.5647L715.717 79.3286C715.112 79.6049 714.597 79.9528 714.128 80.2796C711.633 82.3197 710.807 85.6758 712.146 88.6042C714.122 92.927 718.802 93.8219 723.962 91.463C728.471 89.4015 731.245 85.2671 729.268 80.9442C727.993 78.1553 724.805 76.4661 721.375 77.0785C720.8 77.1728 720.132 77.3097 719.575 77.5647ZM716.81 105.935L749.812 90.8465L751.683 94.9369L718.68 110.026L716.81 105.935ZM729.228 133.096L727.528 129.377L730.215 127.756L730.151 127.616C727.811 127.169 725.125 125.474 723.659 122.267C721.576 117.712 723.721 113.921 726.975 112.434C732.413 109.947 737.598 113.421 741.526 122.135L741.99 121.922C743.85 121.072 746.963 119.031 744.859 114.429C743.902 112.337 742.253 110.45 740.508 109.337L742.779 107.175C744.837 108.482 746.86 110.816 748.156 113.652C751.302 120.531 747.372 124.351 742.863 126.412L734.45 130.259C732.498 131.152 730.634 132.116 729.228 133.096ZM734.828 125.309L738.733 123.524C736.786 119.019 733.679 114.314 729.31 116.312C726.66 117.523 726.213 119.863 727.169 121.955C728.508 124.883 731.217 125.892 733.42 125.672C733.903 125.62 734.41 125.5 734.828 125.309ZM753.056 125.72L755.096 130.183L744.055 141.188C742.801 142.379 741.29 143.745 740.112 144.733L740.154 144.826C741.694 144.628 743.626 144.306 745.508 144.12L760.749 142.547L762.726 146.87L743.884 148.066C734.829 148.665 729.964 148.473 726.272 146.789C723.592 145.598 721.981 143.918 721.327 142.981L724.3 140.385C725.092 141.259 726.359 142.31 727.935 143.051C729.328 143.762 731.546 144.434 734.063 144.408C734.566 144.402 734.955 144.393 735.187 144.287C735.42 144.18 735.703 143.939 736.129 143.519L753.056 125.72ZM763.5 148.563L765.412 152.746L755.338 160.949C753.125 162.747 751.077 164.414 748.945 165.895L749.008 166.035C751.52 165.505 754.277 165.143 757.034 164.782L770.194 163.205L771.766 166.644L762.112 175.273C759.798 177.343 757.725 179.077 755.681 180.63L755.745 180.769C758.193 180.1 760.84 179.62 763.829 179.153L776.591 177.196L778.44 181.24L752.627 184.274L750.927 180.556L760.092 172.207C762.24 170.269 764.174 168.598 766.568 166.829L766.526 166.736C763.575 167.411 760.932 167.776 758.154 168.091L745.805 169.354L744.105 165.635L763.5 148.563ZM757.819 195.631L773.298 188.554C775.947 187.343 778.204 186.255 780.232 185.16L781.868 188.739L777.516 190.897L777.601 191.083C781.09 190.724 784.122 192.316 785.376 195.059C785.588 195.524 785.691 195.87 785.768 196.285L781.91 198.049C781.811 197.588 781.667 197.148 781.412 196.59C780.094 193.708 776.974 192.662 773.651 193.507C773.051 193.669 772.358 193.874 771.661 194.192L759.668 199.675L757.819 195.631ZM766.725 215.11L764.855 211.019L787.352 200.734L789.222 204.824L766.725 215.11ZM797.165 198.72C797.867 200.254 797.197 201.74 795.756 202.399C794.383 203.083 792.8 202.57 792.056 200.943C791.397 199.502 792.046 197.97 793.44 197.332C794.881 196.673 796.485 197.232 797.165 198.72ZM799.559 227.432L801.195 231.011C799.526 231.662 797.67 232.398 794.928 233.652L781.866 239.623C776.707 241.982 773.079 242.405 770.127 241.113C767.083 239.863 764.988 237 763.691 234.164C762.459 231.468 761.749 228.196 762.129 225.831L765.711 225.429C765.461 227.342 765.687 230.049 766.962 232.837C768.875 237.021 772.462 239.09 778.133 236.497L780.643 235.35L780.601 235.257C777.935 234.958 775.157 233.306 773.563 229.82C771.012 224.242 773.926 218.077 780.155 215.229C787.778 211.744 794.375 214.741 796.733 219.9C798.519 223.805 797.451 226.878 796.038 228.704L796.08 228.797L799.559 227.432ZM786.339 232.689L790.383 230.84C791.08 230.521 791.663 230.199 792.136 229.758C794.167 227.93 795.205 225.039 793.845 222.064C792.06 218.159 787.484 216.879 782.278 219.26C777.863 221.279 775.211 225.189 777.23 229.604C778.377 232.114 780.999 233.669 784.006 233.363C784.809 233.276 785.642 233.008 786.339 232.689ZM781.707 247.878L814.709 232.79L816.579 236.88L802.542 243.298L802.584 243.391C804.044 243.511 805.534 244.066 806.805 245.002C808.055 245.892 809.178 247.12 809.88 248.654C811.261 251.675 811.612 257.359 803.849 260.909L790.463 267.029L788.592 262.939L801.514 257.031C805.14 255.373 807.592 252.622 805.828 248.764C804.616 246.115 801.801 244.873 799.23 245.15C798.565 245.172 797.94 245.402 797.15 245.763L783.577 251.969L781.707 247.878ZM821.726 261.658L824.623 265.167L818.162 268.121L820.84 273.978L817.725 275.402L815.048 269.545L802.916 275.092C800.127 276.367 798.908 277.88 799.949 280.157C800.438 281.226 800.939 281.953 801.312 282.4L798.329 283.989C797.642 283.347 796.836 282.199 796.114 280.618C795.242 278.713 795.145 276.902 795.814 275.416C796.492 273.702 798.299 272.369 800.949 271.158L813.22 265.548L811.626 262.061L814.74 260.638L816.334 264.124L821.726 261.658Z" fill="#F51E1E"/>
<path d="M918.733 514.463L949.093 499.412C950.322 500.97 951.959 503.581 953.344 506.375C955.319 510.359 955.903 513.263 955.3 515.959C954.903 518.151 953.549 520.021 951.122 521.224C948.145 522.7 944.559 522.025 941.756 519.364L941.665 519.409C942.385 522.703 941.661 527.341 937.082 529.611C934.426 530.928 931.889 530.873 929.606 530.065C926.57 528.889 923.929 525.863 921.431 520.826C920.069 518.079 919.208 515.881 918.733 514.463ZM948.366 504.735L938.429 509.661L940.223 513.279C942.311 517.491 945.735 518.875 948.712 517.399C952.329 515.606 952.387 512.154 950.389 508.125C949.481 506.293 948.821 505.308 948.366 504.735ZM935.407 511.159L923.639 516.994C923.887 517.84 924.409 519.008 925.113 520.427C927.156 524.548 930.551 527.6 935.039 525.375C939.252 523.287 939.198 518.807 937.042 514.456L935.407 511.159ZM930.877 539.189L946.126 531.63C948.736 530.336 950.957 529.178 952.95 528.019L954.698 531.545L950.416 533.839L950.506 534.022C953.982 533.554 957.063 535.05 958.402 537.752C958.629 538.21 958.742 538.553 958.832 538.965L955.032 540.849C954.919 540.391 954.76 539.956 954.488 539.407C953.081 536.568 949.93 535.62 946.635 536.569C946.04 536.75 945.353 536.976 944.667 537.316L932.852 543.173L930.877 539.189ZM965.403 551.873C968.558 558.238 966.067 564.835 959.29 568.195C951.094 572.259 944.707 568.351 942.051 562.994C939.077 556.995 941.18 550.191 948.186 546.717C955.604 543.04 962.361 545.737 965.403 551.873ZM962.335 553.28C959.974 548.517 954.557 548.636 950.344 550.725C945.49 553.131 943.212 557.74 945.164 561.678C947.071 565.525 952.118 566.616 957.11 564.142C960.865 562.281 964.696 558.042 962.335 553.28ZM977.862 577.005C981.018 583.37 978.527 589.967 971.749 593.327C963.553 597.39 957.166 593.483 954.51 588.125C951.536 582.127 953.639 575.322 960.645 571.849C968.064 568.171 974.82 570.869 977.862 577.005ZM974.794 578.412C972.434 573.649 967.016 573.768 962.803 575.856C957.949 578.263 955.671 582.872 957.623 586.81C959.53 590.657 964.578 591.748 969.569 589.274C973.324 587.412 977.155 583.174 974.794 578.412ZM997.488 591.852L976.973 602.023L977.018 602.114C978.069 602.278 979.417 602.58 980.513 602.835L991.384 605.546L993.79 610.4L980.433 606.354L972.217 622.578L969.788 617.678L976.621 604.764L973.31 603.839L964.976 607.97L963.001 603.986L995.513 587.869L997.488 591.852ZM980.382 639.048L978.521 635.293L1009.38 619.992L1011.54 624.342L1000.83 641.974C998.347 646.057 995.981 649.455 993.548 652.487L993.639 652.556C997.579 650.146 1001.29 648.193 1006.1 645.809L1019.01 639.408L1020.87 643.163L990.008 658.463L988.01 654.434L998.812 636.87C1001.18 633.015 1003.68 629.207 1006.26 625.993L1006.14 625.878C1002.36 628.037 998.699 629.967 993.57 632.51L980.382 639.048ZM993.754 667.285C992.959 665.683 993.651 663.971 995.299 663.153C996.993 662.313 998.751 662.868 999.546 664.471C1000.34 666.073 999.695 667.763 998.001 668.603C996.352 669.42 994.594 668.98 993.754 667.285Z" fill="#F51E1E"/>
<path d="M625.649 1.15829L539.062 25.1874L732.501 722.234L819.089 698.205L625.649 1.15829Z" fill="white"/>
<path d="M748.041 656.819L763.998 652.391C765.22 654.121 767.405 657.598 768.649 662.08C770.043 667.103 769.911 671.596 767.71 675.707C765.745 679.329 761.805 682.332 756.633 683.767C746.721 686.465 737.595 681.677 734.506 670.547C733.44 666.706 733.444 663.469 733.737 661.85L737.521 661.914C737.225 663.905 737.199 666.299 738.129 669.648C740.37 677.725 746.856 681.6 755.179 679.291C763.601 676.954 767.167 670.501 765.021 662.769C764.242 659.961 763.315 658.15 762.549 657.302L752.65 660.049L754.523 666.796L751.075 667.753L748.041 656.819ZM763.692 645.555L747.292 650.106C744.485 650.885 742.085 651.604 739.91 652.367L738.858 648.575L743.496 647.129L743.441 646.932C739.939 646.736 737.195 644.687 736.389 641.781C736.252 641.288 736.206 640.93 736.195 640.509L740.283 639.374C740.307 639.845 740.381 640.302 740.545 640.893C741.392 643.946 744.308 645.471 747.723 645.16C748.341 645.094 749.058 645.001 749.797 644.796L762.503 641.27L763.692 645.555ZM732.174 626.594C730.275 619.748 733.964 613.738 741.253 611.715C750.068 609.269 755.605 614.31 757.204 620.072C758.994 626.524 755.646 632.81 748.111 634.901C740.133 637.115 734.006 633.193 732.174 626.594ZM735.452 625.79C736.874 630.912 742.216 631.816 746.747 630.559C751.968 629.11 755.074 625.012 753.898 620.777C752.75 616.64 747.999 614.617 742.631 616.107C738.592 617.228 734.031 620.668 735.452 625.79ZM722.031 610.11L719.723 606.189L726.568 604.29L724.846 598.084L728.146 597.169L729.868 603.374L742.722 599.807C745.677 598.987 747.119 597.685 746.449 595.272C746.135 594.139 745.755 593.343 745.457 592.842L748.652 591.743C749.229 592.485 749.845 593.746 750.309 595.42C750.87 597.44 750.681 599.243 749.786 600.605C748.847 602.191 746.852 603.222 744.045 604.001L731.043 607.609L732.068 611.303L728.769 612.219L727.744 608.525L722.031 610.11ZM720.229 583.549C718.329 576.703 722.019 570.694 729.307 568.671C738.123 566.224 743.659 571.265 745.258 577.027C747.049 583.479 743.701 589.765 736.166 591.856C728.188 594.07 722.06 590.148 720.229 583.549ZM723.507 582.745C724.928 587.867 730.271 588.771 734.802 587.514C740.022 586.065 743.128 581.968 741.953 577.732C740.805 573.595 736.053 571.573 730.685 573.062C726.647 574.183 722.085 577.624 723.507 582.745ZM716.917 569.511L715.687 565.078L726.927 558.564C729.395 557.137 731.68 555.813 734.019 554.687L733.978 554.539C731.415 554.667 728.635 554.59 725.856 554.512L712.612 553.997L711.6 550.353L722.493 543.352C725.104 541.673 727.424 540.286 729.687 539.075L729.646 538.927C727.123 539.203 724.434 539.26 721.408 539.251L708.498 539.174L707.309 534.889L733.277 535.957L734.371 539.897L724.005 546.698C721.578 548.274 719.406 549.619 716.763 550.989L716.79 551.088C719.81 550.886 722.478 550.941 725.271 551.068L737.664 551.766L738.758 555.706L716.917 569.511ZM729.35 526.201L725.75 526.034C726.231 524.521 726.489 522.009 725.888 519.842C725.013 516.69 723.027 515.65 721.057 516.197C718.989 516.771 718.198 518.317 717.904 521.846C717.566 526.554 715.763 529.229 712.906 530.022C709.065 531.088 705.052 528.86 703.631 523.738C702.961 521.325 703.063 519.016 703.482 517.468L706.934 517.676C706.603 518.776 706.293 520.718 706.908 522.935C707.619 525.496 709.493 526.514 711.266 526.022C713.236 525.475 713.726 523.801 714.047 520.37C714.475 515.796 715.956 513.104 719.502 512.12C723.688 510.959 727.545 513.389 729.116 519.053C729.841 521.663 729.87 524.254 729.35 526.201ZM688.443 510.105L710.507 503.982L710.48 503.884C709.478 503.525 708.212 502.975 707.183 502.518L697.018 497.807L695.569 492.587L707.925 499.076L719.05 484.691L720.513 489.961L711.369 501.356L714.447 502.889L723.41 500.402L724.599 504.686L689.633 514.39L688.443 510.105ZM716.763 476.449L717.966 480.783L694.129 487.398L692.927 483.064L716.763 476.449ZM684.121 487.842C683.67 486.216 684.565 484.854 686.092 484.43C687.556 483.971 689.039 484.727 689.517 486.45C689.941 487.977 689.059 489.389 687.582 489.799C686.055 490.222 684.559 489.418 684.121 487.842ZM721.618 456.098L695.811 463.26C692.758 464.107 690.323 464.889 688.085 465.616L687.005 461.725L691.038 460.394L691.01 460.295C687.613 459.329 685.11 457 684.03 453.109C682.431 447.347 686.104 441.66 693.344 439.651C701.913 437.273 707.597 441.318 709.155 446.932C710.03 450.084 709.416 453.225 707.449 455.309L707.476 455.408L720.428 451.813L721.618 456.098ZM696.888 458.346L700.975 457.212C701.615 457.034 702.179 456.772 702.694 456.523C705.479 454.901 706.823 451.717 705.962 448.614C704.691 444.034 700.21 442.413 694.743 443.93C689.966 445.256 686.576 448.902 687.847 453.482C688.667 456.437 691.55 458.608 695.033 458.543C695.615 458.54 696.297 458.51 696.888 458.346ZM676.905 427.434C675.005 420.589 678.695 414.579 685.984 412.556C694.799 410.11 700.335 415.151 701.934 420.913C703.725 427.364 700.377 433.65 692.842 435.741C684.864 437.956 678.737 434.034 676.905 427.434ZM680.183 426.631C681.604 431.753 686.947 432.657 691.478 431.399C696.698 429.951 699.805 425.853 698.629 421.618C697.481 417.481 692.73 415.458 687.361 416.947C683.323 418.068 678.762 421.509 680.183 426.631ZM669.404 400.405C667.505 393.56 671.194 387.55 678.483 385.527C687.298 383.081 692.834 388.121 694.433 393.883C696.224 400.335 692.876 406.621 685.341 408.712C677.363 410.926 671.236 407.004 669.404 400.405ZM672.682 399.602C674.103 404.723 679.446 405.628 683.977 404.37C689.198 402.921 692.304 398.824 691.128 394.589C689.98 390.452 685.229 388.429 679.861 389.918C675.822 391.039 671.261 394.48 672.682 399.602ZM689.083 376.707L672.683 381.258C669.876 382.037 667.477 382.756 665.302 383.519L664.249 379.726L668.887 378.28L668.832 378.083C665.33 377.888 662.587 375.838 661.78 372.933C661.644 372.44 661.597 372.082 661.586 371.661L665.674 370.526C665.699 370.997 665.772 371.454 665.936 372.045C666.784 375.098 669.7 376.623 673.114 376.312C673.732 376.246 674.449 376.153 675.188 375.948L687.894 372.422L689.083 376.707ZM651.893 357.374L649.585 353.453L656.431 351.553L654.709 345.348L658.008 344.432L659.73 350.637L672.584 347.07C675.539 346.25 676.981 344.948 676.312 342.535C675.997 341.402 675.617 340.606 675.319 340.105L678.515 339.006C679.092 339.748 679.707 341.009 680.172 342.684C680.732 344.703 680.543 346.506 679.648 347.868C678.709 349.455 676.715 350.486 673.907 351.265L660.906 354.873L661.931 358.566L658.631 359.482L657.606 355.789L651.893 357.374ZM677.191 333.855L642.225 343.558L641.022 339.224L655.895 335.097L655.868 334.998C654.445 334.651 653.061 333.868 651.953 332.743C650.859 331.668 649.943 330.278 649.492 328.652C648.604 325.451 649.152 319.783 657.377 317.5L671.56 313.564L672.763 317.898L659.072 321.697C655.23 322.763 652.376 325.094 653.511 329.181C654.29 331.988 656.875 333.658 659.457 333.79C660.117 333.872 660.771 333.744 661.608 333.511L675.989 329.521L677.191 333.855ZM653.163 290.468L657.81 307.212C663.644 305.488 665.018 301.075 663.815 296.741C662.954 293.638 661.893 291.917 660.753 290.483L663.65 288.884C664.764 290.219 666.276 292.611 667.328 296.403C669.365 303.741 665.755 309.463 658.564 311.459C651.374 313.454 644.535 310.79 642.608 303.846C640.449 296.065 646.72 292.097 651.103 290.88C651.99 290.634 652.707 290.542 653.163 290.468ZM654.694 308.024L651.182 295.367C648.41 296.083 644.453 298.454 645.806 303.33C647.023 307.713 651.594 308.513 654.694 308.024ZM658.007 264.726L659.1 268.666L656.192 269.844L656.233 269.992C658.473 270.802 660.859 272.899 661.802 276.297C663.141 281.123 660.426 284.529 656.979 285.485C651.217 287.084 646.643 282.837 644.137 273.614L643.644 273.751C641.674 274.297 638.279 275.823 639.632 280.699C640.247 282.915 641.579 285.038 643.127 286.412L640.544 288.19C638.717 286.575 637.087 283.951 636.253 280.947C634.23 273.658 638.712 270.505 643.49 269.179L652.404 266.705C654.472 266.131 656.464 265.472 658.007 264.726ZM651.251 271.534L647.114 272.682C648.327 277.437 650.654 282.573 655.284 281.288C658.091 280.509 658.901 278.269 658.286 276.052C657.425 272.95 654.908 271.526 652.698 271.397C652.214 271.373 651.694 271.411 651.251 271.534ZM626.401 265.513L624.093 261.592L630.938 259.693L629.216 253.487L632.516 252.572L634.238 258.777L647.092 255.21C650.047 254.39 651.489 253.088 650.819 250.675C650.505 249.542 650.125 248.746 649.827 248.245L653.022 247.146C653.599 247.887 654.215 249.149 654.679 250.823C655.24 252.843 655.051 254.645 654.156 256.008C653.217 257.594 651.222 258.625 648.415 259.404L635.413 263.012L636.438 266.706L633.139 267.622L632.114 263.928L626.401 265.513ZM651.699 241.994L635.299 246.545C632.492 247.324 630.092 248.043 627.917 248.806L626.865 245.014L631.502 243.568L631.448 243.371C627.946 243.176 625.202 241.126 624.396 238.22C624.259 237.728 624.213 237.369 624.202 236.948L628.29 235.813C628.314 236.284 628.388 236.741 628.552 237.332C629.399 240.385 632.315 241.91 635.73 241.599C636.348 241.533 637.065 241.441 637.804 241.236L650.51 237.709L651.699 241.994ZM630.914 210.294L635.561 227.039C641.394 225.314 642.769 220.901 641.566 216.568C640.705 213.465 639.644 211.744 638.504 210.31L641.401 208.71C642.514 210.045 644.027 212.437 645.079 216.229C647.116 223.567 643.506 229.29 636.315 231.285C629.125 233.281 622.286 230.617 620.359 223.673C618.199 215.891 624.471 211.923 628.854 210.707C629.741 210.461 630.457 210.368 630.914 210.294ZM632.445 227.851L628.932 215.194C626.161 215.91 622.204 218.281 623.557 223.157C624.774 227.54 629.345 228.34 632.445 227.851Z" fill="#FD79B4"/>
</svg>
