<svg width="828" height="589" viewBox="0 0 828 589" fill="none" xmlns="http://www.w3.org/2000/svg">
<path d="M0 287.422C3.12045 331.468 26.1238 373.734 61.4289 400.258C96.734 426.782 143.731 437.113 186.907 427.842C195.138 426.072 203.789 423.642 211.801 426.222C229.793 432.023 232.684 458.026 248.996 467.588C270.109 479.96 294.213 457.696 308.545 437.843C349.431 473.898 403.928 497.192 458.116 491.311C512.304 485.431 563.952 446.085 575.013 392.707C577.414 381.115 579.464 367.033 590.326 362.323C598.977 358.572 608.808 363.003 618.24 363.263C633.972 363.703 648.044 351.921 654.815 337.719C661.586 323.517 662.416 307.275 662.436 291.542C662.436 286.562 662.526 281.131 665.686 277.27C671.907 269.659 684.119 273.65 693.701 271.449C708.063 268.149 714.544 250.997 714.504 236.254C714.464 221.512 710.403 206.53 713.963 192.228C718.504 174.005 734.466 160.663 740.737 142.971C743.718 134.56 744.358 125.538 745.728 116.727C753.259 67.9798 784.614 23.4834 828 0C826.69 29.2942 796.005 46.8269 778.263 70.1703C752.589 103.945 754.539 150.322 754.999 192.738C755.46 235.164 750.579 283.171 717.344 309.525C711.063 314.506 703.812 318.656 699.421 325.357C686.559 344.99 701.192 380.155 679.749 389.706C673.868 392.327 667.057 391.587 660.806 393.107C644.233 397.127 635.782 415.03 628.921 430.642C603.007 489.601 564.922 547.329 506.683 574.833C448.445 602.337 367.243 588.075 337.479 530.957C331.848 520.145 328.038 508.053 319.666 499.182C311.295 490.311 296.033 486.111 287.072 494.382C282.661 498.462 280.531 504.843 275.4 507.984C267.839 512.604 257.777 507.734 252.047 500.983C246.316 494.222 242.815 485.66 236.344 479.61C221.652 465.888 198.599 469.948 178.496 469.728C122.238 469.088 74.9208 428.672 36.4753 387.586C14.182 363.762 -8.51124 331.508 3.4905 301.164" fill="#FFB96C"/>
</svg>
