<svg width="156" height="103" viewBox="0 0 156 103" fill="none" xmlns="http://www.w3.org/2000/svg">
<path d="M1.45659 102.269C20.3733 101.578 39.2298 99.5845 57.8659 96.3282C76.5321 93.0618 94.9679 88.5127 113.003 82.7114C121.409 80.0062 129.946 77.2708 138.001 73.6338C144.193 70.8383 150.686 66.9008 153.912 60.6687C162.128 44.7979 144.203 30.5704 132.952 22.4847C119.205 12.6056 103.504 5.38174 87.0526 1.37397C84.9986 0.872994 82.9347 0.431807 80.8707 0.0310291C78.977 -0.329671 78.1754 2.56608 80.069 2.92678C96.2003 6.04283 111.65 12.2046 125.497 21.0518C132.27 25.3802 138.953 30.2899 144.554 36.0712C149.664 41.3514 154.493 48.5954 152.419 56.2803C150.656 62.813 144.634 66.9911 138.903 69.8868C131.579 73.5839 123.553 76.0685 115.788 78.6435C98.4748 84.3846 80.7804 88.9737 62.8656 92.3703C44.8407 95.7869 26.5953 97.9913 8.27976 98.9632C6.00535 99.0834 3.72097 99.1834 1.44656 99.2636C-0.477173 99.3337 -0.487193 102.34 1.44656 102.269H1.45659Z" fill="#FFE1C0"/>
</svg>
