<svg width="138" height="72" viewBox="0 0 138 72" fill="none" xmlns="http://www.w3.org/2000/svg">
<path d="M45.3469 7.22667C40.65 27.0656 29.7642 45.2118 14.6121 58.8317C10.3058 62.7073 5.65901 66.1828 0.731823 69.2272C-0.770367 70.1586 0.251122 72.2714 1.89352 71.971C19.2188 68.8064 36.6041 66.0124 54.0496 63.6189C71.495 61.2255 88.8904 59.2326 106.376 57.6302C116.29 56.7189 126.215 55.9279 136.149 55.2669C138.072 55.1367 138.102 52.3326 136.149 52.2625C117.482 51.5715 102.04 35.0872 99.3957 17.141C98.6446 12.0236 99.0352 6.78591 100.577 1.84871C101.158 -0.00399194 98.254 -0.79495 97.6832 1.04774C91.7145 20.2157 102.741 41.9475 120.126 50.9706C125.103 53.5544 130.551 55.0566 136.159 55.2669V52.2625C118.504 53.4443 100.888 55.0065 83.3022 56.9794C65.7466 58.9422 48.2411 61.2957 30.7957 64.0297C20.8812 65.582 10.9868 67.274 1.11238 69.0766L2.27407 71.8209C20.1101 60.7647 34.3909 44.1306 42.683 24.8525C45.0264 19.4045 46.9092 13.7863 48.2711 8.01786C48.7118 6.13512 45.8176 5.33414 45.3769 7.21689L45.3469 7.22667Z" fill="#332E7F"/>
</svg>
