<svg width="388" height="405" viewBox="0 0 388 405" fill="none" xmlns="http://www.w3.org/2000/svg">
<path d="M15.7008 296.941C12.0114 351.559 59.3768 398.003 108.381 404.07C157.385 410.138 205.349 385.651 246.531 355.543C306.438 311.743 360.235 251.287 380.506 174.861C388.926 143.139 391.193 108.693 382.392 77.097C373.591 45.5009 352.701 17.2475 324.7 6.00576C308.283 -0.588198 290.299 -1.16057 273.006 1.44954C258.125 3.70477 242.357 9.13084 233.628 22.708C227.671 31.9693 225.867 43.6694 221.632 54.0297C210.749 80.623 184.974 95.757 159.611 103.473C134.249 111.189 107.515 113.49 83.0494 124.194C48.1023 139.476 19.7097 172.229 7.26031 211.586C-5.18912 250.944 -1.46871 296.232 17.1951 332.43" fill="#FFB96C"/>
</svg>
