<svg width="47" height="37" viewBox="0 0 47 37" fill="none" xmlns="http://www.w3.org/2000/svg">
<path d="M2.5 15.9097C1.11929 15.9097 0 17.029 0 18.4097C0 19.7904 1.11929 20.9097 2.5 20.9097V18.4097V15.9097ZM46.2678 20.1774C47.2441 19.2011 47.2441 17.6182 46.2678 16.6419L30.3579 0.731998C29.3816 -0.244312 27.7986 -0.244312 26.8223 0.731998C25.846 1.70831 25.846 3.29122 26.8223 4.26753L40.9645 18.4097L26.8223 32.5518C25.846 33.5281 25.846 35.111 26.8223 36.0873C27.7986 37.0636 29.3816 37.0636 30.3579 36.0873L46.2678 20.1774ZM2.5 18.4097V20.9097H44.5V18.4097V15.9097H2.5V18.4097Z" fill="white"/>
</svg>
