<svg width="131" height="69" viewBox="0 0 131 69" fill="none" xmlns="http://www.w3.org/2000/svg">
<path d="M28.3833 11.1801C32.5379 28.0587 26.0108 46.5392 13.2267 58.062C9.63271 61.2955 5.49809 63.9883 1.04317 65.8704C-0.728792 66.6212 -0.0981677 69.0641 1.84398 68.7637C18.4924 66.2009 35.1408 63.6281 51.7892 61.0653C68.4376 58.5025 85.086 55.9297 101.734 53.3668C111.135 51.9152 120.525 50.4738 129.926 49.0222C131.427 48.7919 131.287 46.4592 129.926 46.1289C112.957 41.9442 98.2907 30.2113 90.0115 14.8643C87.6589 10.4995 85.867 5.87409 84.6556 1.06878C84.1851 -0.803293 81.2919 -0.0121258 81.7624 1.86996C86.2173 19.5895 98.641 34.9767 114.739 43.5161C119.284 45.9288 124.119 47.7908 129.125 49.0222V46.1289C112.476 48.6917 95.8279 51.2645 79.1795 53.8273C62.5311 56.3901 45.8828 58.9629 29.2344 61.5258C19.834 62.9774 10.4436 64.4188 1.04317 65.8704L1.84398 68.7637C19.053 61.5057 30.7961 44.267 32.4479 25.8066C32.9084 20.6409 32.5179 15.4149 31.2765 10.3794C30.816 8.50729 27.9228 9.29797 28.3833 11.1801Z" fill="#332E7F"/>
</svg>
