<svg width="1007" height="792" viewBox="0 0 1007 792" fill="none" xmlns="http://www.w3.org/2000/svg">
<path d="M54.9221 531.085C42.3312 508.323 31.8704 480.941 10.949 426.177C0.748241 399.486 -1.63196 389.705 0.978225 376.744C5.14852 356.033 24.4199 340.972 44.8814 335.701C65.3428 330.431 86.9343 333.161 107.786 336.521C132.148 340.452 157.159 345.522 177.501 359.493C205.183 378.514 220.904 411.777 249.446 429.478C295.059 457.76 354.023 436.979 403.297 415.707C431.599 403.486 462.261 389.045 475.182 361.063C480.612 349.302 482.332 336.131 487.273 324.16C498.824 296.199 526.375 278.197 554.247 266.456C582.119 254.715 612.022 247.325 637.933 231.714C654.765 221.573 670.446 207.782 689.877 204.852C711.039 201.661 737.47 210.402 750.891 193.731C755.862 187.561 757.322 179.38 759.202 171.679C773.023 115.205 816.146 71.3226 857.509 30.4697C870.45 17.6788 884.501 4.29751 902.362 0.857266C934.294 -5.28317 962.656 22.6088 978.308 51.1108C1017.94 123.266 1016.4 216.313 974.397 287.118C959.626 312.01 940.455 333.991 924.674 358.253C898.862 397.936 882.381 443.649 876.95 490.672C870.28 548.406 880.391 552.076 867.92 577.728C845.738 623.401 804.125 611.541 737.901 660.394C669.616 710.768 677.246 750.401 615.012 777.293C583.78 790.794 558.178 791.043 513.845 791.473C477.892 791.823 405.557 791.833 318.791 759.141C203.503 715.698 129.407 639.633 94.1548 592.369C73.7834 565.058 56.7422 534.435 54.8921 531.085H54.9221Z" fill="#FFE1C0"/>
</svg>
