<svg width="388" height="406" viewBox="0 0 388 406" fill="none" xmlns="http://www.w3.org/2000/svg">
<path d="M15.7008 297.675C12.0114 352.427 59.3768 398.986 108.381 405.068C157.385 411.15 205.349 386.603 246.531 356.421C306.438 312.513 360.235 251.908 380.506 175.293C388.926 143.493 391.193 108.961 382.392 77.2873C373.591 45.6133 352.701 17.2901 324.7 6.02059C308.283 -0.58965 290.299 -1.16343 273.006 1.45312C258.125 3.71391 242.357 9.15339 233.628 22.764C227.671 32.0482 225.867 43.7772 221.632 54.1631C210.749 80.8221 184.974 95.9934 159.611 103.728C134.249 111.463 107.515 113.77 83.0494 124.5C48.1023 139.821 19.7097 172.654 7.26031 212.109C-5.18912 251.563 -1.46871 296.963 17.1951 333.25" fill="#FFB96C"/>
</svg>
