<svg width="377" height="354" viewBox="0 0 377 354" fill="none" xmlns="http://www.w3.org/2000/svg">
<path d="M15.2445 259.549C11.6622 307.289 57.651 347.884 105.231 353.188C152.811 358.491 199.38 337.087 239.365 310.771C297.531 272.487 349.764 219.644 369.446 152.842C377.621 125.115 379.823 95.0058 371.277 67.3885C362.732 39.7712 342.449 15.0756 315.262 5.24948C299.322 -0.514129 281.861 -1.01442 265.071 1.26701C250.622 3.23824 235.312 7.98103 226.837 19.8485C221.053 27.9435 219.302 38.1703 215.19 47.226C204.623 70.4705 179.597 83.6987 154.972 90.443C130.347 97.1872 104.39 99.1985 80.6354 108.554C46.7041 121.913 19.1368 150.541 7.04928 184.942C-5.03829 219.344 -1.42602 258.928 16.6953 290.568" fill="#FFB96C"/>
</svg>
