<svg width="1123" height="230" viewBox="0 0 1123 230" fill="none" xmlns="http://www.w3.org/2000/svg">
<path d="M87.4942 199.785C7.57607 168.912 0.184782 133.621 0 99.4773C0 90.7769 0.369592 81.9247 14.3206 73.6121C31.1358 63.5628 66.429 54.9634 100.983 46.5665C184.967 26.2318 282.901 4.31199 420.933 0.551914C520.068 -2.1459 619.481 5.40801 703.742 15.3393C971.029 46.87 1136.13 105.244 1122.18 163.264C1121.44 166.315 1120.06 169.469 1112.11 172.166C1104.26 174.83 1090.67 176.753 1077.28 178.557C854.524 208.637 583.634 226.696 307.015 229.866C222.016 230.844 111.146 226.662 99.3203 211.268" fill="#FFE1C0"/>
</svg>
