<svg width="264" height="234" viewBox="0 0 264 234" fill="none" xmlns="http://www.w3.org/2000/svg">
<path d="M68.9747 150.99C64.5466 156.614 56.5295 157.697 49.7256 154.777C42.4869 151.675 36.4918 147.948 28.1006 147.506C13.4616 146.744 -2.50182 155.496 0.328933 169.379C2.83617 181.727 16.6361 192.421 27.585 199.813C38.534 207.205 51.9295 213.574 65.7598 217.603C81.8344 222.292 99.0414 224.094 115.955 222.794C122.385 222.3 122.446 213.626 115.955 214.128C89.0933 216.191 62.1809 210.012 39.9493 196.936C29.4149 190.74 17.3539 182.109 11.8542 171.996C8.21463 165.297 11.1667 159.37 19.4467 157.056C27.0392 154.933 33.7318 156.865 40.3335 160.167C46.9352 163.469 53.2034 165.886 60.8363 164.855C67.9132 163.902 73.7667 160.384 77.7298 155.349C81.3794 150.713 72.6243 146.371 69.005 150.973L68.9747 150.99Z" fill="#332E7F"/>
<path d="M92.1464 177.81C95.5332 192.351 100.437 208.652 109.99 221.226C113.984 226.494 119.483 230.983 126.752 232.586C134.021 234.189 143.029 233.808 150.804 233.652C164.867 233.366 179.657 231.781 192.032 225.645C206.196 218.626 211.776 206.832 217.579 194.405C223.868 180.93 233.856 168.98 246.787 159.604C252.822 155.228 260.526 151.744 263.144 144.898C265.399 138.997 262.952 132.818 258.686 128.087C253.964 122.844 247.585 119.672 240.448 117.384C232.815 114.932 224.161 113.571 217.64 109.117C211.604 105.001 208.329 98.6577 204.548 93.0684C200.847 87.609 196.541 82.7042 190.657 78.8393C177.878 70.4509 159.802 67.4093 144.556 72.3574C137.327 74.6971 130.402 78.9521 127.763 85.434C125.286 91.5174 126.843 98.9005 132.95 102.982L132.161 97.7306C130.746 99.3858 126.712 99.2384 124.65 99.4204C122.092 99.6544 119.473 99.8537 117.027 100.564C111.77 102.081 108.08 105.634 106.573 110.175C104.925 115.123 105.724 120.27 106.553 125.262C107.726 132.281 109.091 139.274 110.637 146.241C113.62 159.638 117.28 172.914 121.617 186.034C123.871 192.854 126.308 199.631 128.926 206.355C129.998 209.102 131.676 212.092 131.868 215.021C131.939 216.113 132.03 217.387 131.019 218.158C130.564 218.323 130.099 218.357 129.624 218.288C129.775 218.47 129.927 218.453 130.089 218.227C129.159 212.733 119.423 215.064 120.343 220.532C121.192 225.559 127.703 227.786 133 226.676C140.027 225.195 142.595 219.345 141.806 213.669C140.765 206.225 136.599 198.747 134.062 191.58C131.302 183.747 128.774 175.861 126.5 167.914C122.031 152.325 117.603 136.163 115.905 120.149C115.621 117.523 115.338 114.429 116.511 111.934C117.967 108.849 121.182 108.424 124.66 108.086C131.191 107.454 136.741 106.942 140.896 102.107C142.079 100.729 141.725 97.9386 140.108 96.8554C135.275 93.6231 136.084 88.1722 140.108 84.6366C144.414 80.8411 151.198 79.1514 157.213 78.7615C169.305 77.9729 181.689 82.0543 189.777 89.8534C197.865 97.6525 201.383 109.213 211.766 116.093C222.402 123.138 237.587 122.913 247.595 130.504C252.165 133.979 256.28 139.621 252.054 144.508C248.141 149.032 241.358 152.021 236.525 155.817C226.253 163.885 217.68 173.737 211.655 184.509C205.629 195.28 203.092 206.988 192.578 214.77C183.61 221.408 171.145 223.747 159.63 224.579C152.816 225.073 145.961 225.091 139.127 224.926C130.635 224.727 124.185 223.695 119.14 217.378C114.58 211.667 111.749 204.856 109.111 198.374C106.068 190.904 103.702 183.261 101.892 175.497C100.619 170.029 90.8726 172.342 92.1464 177.802V177.81Z" fill="#332E7F"/>
<path d="M89.8919 156.649C88.0317 153.711 84.8269 149.213 88.8809 146.622C91.4792 144.958 95.1894 144.681 98.1921 143.884C104.319 142.255 110.253 139.231 111.729 133.494C113.124 128.06 103.378 125.738 101.983 131.189C101.114 134.586 96.2712 135.34 92.8945 136.128C88.9517 137.047 84.7864 138.113 81.6524 140.487C74.07 146.224 76.9715 154.43 81.157 161.025C84.2607 165.93 92.9956 161.553 89.8818 156.649H89.8919Z" fill="#332E7F"/>
<path d="M173.43 64.1943C173.43 64.1943 178.747 64.5928 180.092 64.9915C182.69 65.7627 185.228 66.6379 187.846 67.3572C193.336 68.8737 198.947 70.0523 204.618 70.8929C215.83 72.548 227.264 73.0419 238.597 72.1147C239.78 72.0193 244.461 71.3347 244.643 71.456C244.754 71.534 244.441 75.945 244.38 77.0196C244.057 82.2277 243.117 87.3837 242.197 92.5311C240.407 102.549 238.972 112.35 240.589 122.463C241.469 127.965 251.215 125.625 250.335 120.157C248.111 106.232 253.227 92.4184 254.369 78.6053C254.773 73.7178 255.815 66.794 249.829 63.9776C244.471 61.4559 236.191 63.7349 230.429 63.8736C214.647 64.2548 199.321 61.8111 184.52 57.1923C178.424 55.2859 171.165 53.8214 166.231 58.5269C162.642 61.9498 162.41 67.0452 166.272 70.3208C170.902 74.2464 178.05 68.1199 173.419 64.1943H173.43Z" fill="#332E7F"/>
<path d="M251.993 58.4663C249.203 44.5838 255.4 30.736 253.338 16.8622C252.327 10.0856 245.432 8.28318 239.042 5.66614C233.573 3.43038 224.818 -2.22828 218.671 0.943367C213.394 3.6644 210.452 11.1602 207.854 15.6577C204.487 21.4811 201.545 27.4603 198.785 33.5176C197.663 35.9787 196.53 38.5004 194.761 40.6842C192.588 43.3619 189.352 44.8438 186.41 46.7936C181.153 50.2685 178.04 54.8613 179.404 60.624C180.698 66.0834 190.444 63.7784 189.15 58.319C188.21 54.3328 197.076 51.187 199.846 48.8906C203.405 45.9356 205.559 42.1315 207.419 38.2493C209.663 33.5525 211.736 28.8295 214.243 24.2194C215.517 21.8796 216.841 19.5572 218.226 17.2608C219.611 14.9643 220.966 11.6888 222.998 9.77368C224.595 8.26584 222.705 8.39575 224.98 9.47897C226.415 10.1636 227.972 10.7009 229.458 11.3162C232.451 12.5381 235.433 13.7599 238.426 14.9818C241.944 16.4203 243.39 16.871 243.501 20.4586C243.592 23.1363 243.45 25.814 243.218 28.483C242.267 39.3498 240.053 49.8873 242.247 60.7715C243.349 66.2569 253.095 63.9343 251.993 58.4663Z" fill="#332E7F"/>
<path d="M147.002 113.823C163.32 116.102 176.776 124.213 190.313 131.822C196.905 135.531 203.587 139.179 210.725 142.073C214.971 143.789 219.359 145.228 223.746 146.649C226.071 147.403 228.417 148.131 230.722 148.928C232.057 149.37 233.371 149.855 234.665 150.366C236.373 151.337 236.798 151.398 235.939 150.566L235.433 147.229C234.533 152.524 229.175 157.55 224.737 161.017C219.925 164.786 227.082 170.896 231.885 167.143C237.071 163.088 250.982 150.176 242.813 144.335C238.598 141.319 231.511 139.933 226.425 138.304C220.37 136.354 214.496 134.222 208.854 131.501C189.504 122.185 172.277 108.641 149.682 105.487C143.312 104.603 140.583 112.948 146.992 113.84L147.002 113.823Z" fill="#332E7F"/>
</svg>
