<svg width="409" height="418" viewBox="0 0 409 418" fill="none" xmlns="http://www.w3.org/2000/svg">
<path d="M113.72 231.94C109.778 238.702 105.847 245.466 101.905 252.228C100.906 253.946 102.171 255.889 103.619 256.748C115.802 264.011 130.753 262.127 143.404 257.138C157.974 251.395 171.126 241.723 182.462 231.068C194.623 219.636 204.819 206.202 212.639 191.464C220.028 177.536 226.116 161.78 227.078 145.911C227.933 131.801 225.204 115.41 213.324 106.223C200.217 96.0815 182.358 99.6929 167.603 103.507C134.097 112.17 104.566 132.01 79.9986 155.93C56.5806 178.734 36.5619 205.786 21.947 235.047C8.15833 262.65 -0.553392 293.153 0.0273275 324.187C0.58356 353.746 11.2409 386.085 35.5177 404.606C47.1877 413.512 61.3394 418.016 75.982 417.988C90.3562 417.962 104.499 413.603 117.511 407.755C131.939 401.268 145.368 392.847 158.67 384.347C175.339 373.702 191.778 362.708 207.989 351.381C239.244 329.54 269.942 306.639 299.035 281.974C325.753 259.331 351.136 234.598 371.293 205.819C389.727 179.499 404.719 149.25 408.247 116.948C409.884 101.94 408.956 86.6513 404.451 72.1894C400.176 58.4812 392.581 46.137 382.697 35.7719C362.894 15.0043 334.422 3.12937 306.095 0.524244C273.55 -2.47138 241.613 7.6122 214.107 24.6714C184.693 42.9174 159.98 68.8202 140.331 97.1379C130.709 111 122.33 126.128 118.969 142.822C115.845 158.357 117.678 175.259 125.777 189.045C141.296 215.46 174.29 217.533 201.097 210.82C217.4 206.742 232.899 199.394 247.406 191.034C263.654 181.669 278.656 170.286 292.162 157.294C298.642 151.065 304.991 144.488 310.463 137.348C315.179 131.195 318.823 124.141 318.666 116.22C318.407 102.884 307.569 89.9506 293.99 88.9069C280.629 87.8789 268.02 96.7329 264.364 109.561C263.157 113.794 269.91 114.89 271.11 110.699C274.512 98.7526 289.597 91.9243 300.598 97.905C305.76 100.709 309.485 105.831 311.085 111.431C313.064 118.334 310.794 125.032 306.821 130.763C301.989 137.728 295.907 143.998 289.927 149.98C283.946 155.962 277.326 161.805 270.533 167.15C256.432 178.244 241.032 187.689 224.684 195.092C201.654 205.522 171.772 214.044 147.915 201.234C135.003 194.3 127.224 181.052 125.091 166.801C122.767 151.283 126.593 135.976 133.369 122.034C140.369 107.635 150.088 94.5412 160.214 82.2097C170.565 69.6009 181.938 57.7951 194.474 47.347C218.831 27.05 248.312 11.1753 280.192 7.54663C307.082 4.49059 335.428 10.4734 358.428 24.8737C381.433 39.28 397.566 62.0832 401.247 89.1939C405.176 118.107 396.465 147.359 383.332 172.886C368.352 202.002 347.239 227.502 323.916 250.302C299.336 274.33 272.161 295.66 244.719 316.299C215.073 338.605 184.559 359.756 153.267 379.699C130.249 394.366 104.783 410.639 76.5624 411.179C63.0475 411.439 49.8213 407.149 39.1692 398.815C27.971 390.041 19.9669 377.754 14.7463 364.638C4.05662 337.791 5.11438 307.732 12.148 280.105C19.4057 251.616 33.3731 225.011 50.3839 201.178C68.9437 175.174 91.3572 151.438 118.023 133.653C131.631 124.584 146.336 117.198 161.934 112.254C169.319 109.914 176.915 108.036 184.596 107.024C191.954 106.062 199.745 106.051 206.392 109.805C218.481 116.631 221.124 132.561 220.291 145.235C219.295 160.435 213.467 175.331 206.392 188.676C199.155 202.325 189.655 214.778 178.518 225.473C168.052 235.518 155.657 244.723 142.179 250.282C130.729 255.001 117.564 257.18 106.422 250.535C106.992 252.045 107.559 253.549 108.135 255.055C112.077 248.293 116.008 241.529 119.95 234.767C122.161 230.971 115.914 228.184 113.712 231.954L113.72 231.94Z" fill="#44403B" fill-opacity="0.7"/>
<path d="M122.87 243.726C142.36 243.38 159.498 232.447 172.503 218.624C185.014 205.334 195.216 188.532 197.578 170.156C198.639 161.899 198.071 153.11 194.291 145.571C190.574 138.159 184.177 132.24 176.34 129.405C160.553 123.689 142.708 129.18 128.924 137.52C94.6735 158.236 71.9 197.574 67.4233 237.001C65.298 255.748 68.1667 275.8 81.4685 290.084C93.7466 303.27 111.808 309.122 129.466 309.566C150.036 310.08 169.599 302.125 187.031 291.819C206.371 280.389 224.326 266.266 242.084 252.562C275.304 226.922 307.518 196.87 322.15 156.469C328.628 138.592 331.723 118.705 328.218 99.8442C326.282 89.437 322.274 79.3269 314.963 71.5033C308.637 64.7235 300.341 60.3078 291.431 57.9488C271.504 52.6865 251.032 59.174 233.746 69.2051C214.252 80.5195 197.043 96.2348 183.566 114.261C172.464 129.103 161.708 148.261 168.611 167.206C171.578 175.359 177.737 182.841 186.163 185.644C195.207 188.646 204.58 186.079 213.045 182.476C223.542 178.013 233.829 172.988 244.193 168.223C254.18 163.636 264.544 159.466 274.042 153.914C282.064 149.232 290.013 142.452 292.618 133.178C294.51 126.444 292.852 118.727 288.864 113.045C285.105 107.687 278.828 104.174 272.193 105.557C267.922 106.445 268.502 113.265 272.805 112.372C278.459 111.191 282.849 115.022 284.978 120.038C287.748 126.549 286.561 132.971 282.205 138.481C276.472 145.735 267.675 149.907 259.467 153.695C249.716 158.195 239.953 162.667 230.194 167.145C221.499 171.145 212.816 175.857 203.637 178.672C195.733 181.103 187.585 180.701 181.334 174.823C167.899 162.198 173.695 142.225 181.978 128.605C192.494 111.309 207.219 96.1372 223.466 84.1649C238.729 72.9098 256.682 63.07 276.119 62.8782C294.135 62.699 310.94 71.7657 317.961 88.791C324.796 105.364 323.742 124.771 319.504 141.863C310.391 178.643 284.611 208.318 256.367 232.28C240.458 245.776 223.586 258.184 206.711 270.424C190.632 282.088 173.765 293.288 154.593 299.138C138.568 304.026 120.833 304.284 105.137 297.964C89.5839 291.704 78.3418 279.076 74.9264 262.517C71.3455 245.131 74.9369 226.51 80.7117 209.997C86.8239 192.542 96.2398 176.254 108.854 162.692C120.179 150.515 134.481 139.755 150.779 135.491C164.651 131.865 181.333 134.425 188.174 148.592C195.14 163.012 189.446 180.978 182.211 194.123C174.087 208.889 161.269 222.722 146.272 230.621C138.803 234.55 130.67 236.774 122.226 236.916C117.819 236.993 118.457 243.807 122.838 243.731L122.87 243.726Z" fill="#44403B" fill-opacity="0.7"/>
<path d="M180.067 363.519C174.809 357.608 176.31 349.109 177.695 341.99C179.188 334.316 181.401 326.805 184.306 319.547C187.147 312.453 190.589 305.569 194.664 299.108C198.888 292.415 203.838 284.314 211.203 280.783C215.138 278.892 212.828 272.458 208.86 274.354C200.385 278.423 194.829 286.28 189.867 293.984C185.06 301.452 180.954 309.348 177.709 317.62C174.473 325.868 172.025 334.464 170.501 343.195C169.075 351.369 168.581 360.852 174.474 367.48C177.364 370.731 182.972 366.805 180.047 363.515L180.067 363.519Z" fill="#44403B" fill-opacity="0.7"/>
<path d="M246.182 316.761C238.855 312.33 237.733 302.155 237.88 294.422C238.029 286.526 239.447 278.518 241.844 271.002C246.675 255.88 255.544 242.059 267.548 231.648C270.842 228.792 266.909 223.188 263.584 226.075C249.695 238.125 239.688 253.898 234.581 271.564C229.963 287.542 226.614 312.863 243.363 323.003C247.122 325.276 249.905 319.023 246.176 316.765L246.182 316.761Z" fill="#44403B" fill-opacity="0.7"/>
<path d="M332.8 239.664C322.468 240.061 313.978 231.592 310.436 222.517C305.843 210.762 307.908 197.545 309.774 185.45C310.445 181.096 303.705 179.954 303.028 184.313C300.882 198.226 298.702 213.774 304.929 227.002C310.155 238.09 320.663 246.968 333.408 246.473C337.82 246.302 337.182 239.488 332.796 239.658L332.8 239.664Z" fill="#44403B" fill-opacity="0.7"/>
<path d="M391.736 147.603C385.959 153.251 379.626 159.358 371.36 160.813C364.757 161.976 358.009 160.444 352.154 157.323C338.13 149.849 332.236 133.498 331.123 118.494C330.798 114.092 323.986 114.72 324.308 119.105C325.63 136.983 333.327 155.489 350.071 163.941C356.974 167.423 365.126 168.955 372.764 167.478C382.696 165.557 390.037 158.769 397.037 151.918C400.172 148.852 394.853 144.549 391.732 147.597L391.736 147.603Z" fill="#44403B" fill-opacity="0.7"/>
<path d="M387.582 55.4328C383.988 64.4663 379.172 72.8944 373.079 80.4765C367.327 87.6271 360.361 94.8674 351.409 97.7732C336.335 102.669 322.526 90.0497 318.435 76.3461C317.172 72.1175 310.754 74.4887 312.006 78.6891C315.749 91.2196 326.031 102.435 339.129 105.143C355.797 108.594 369.864 95.7444 379.313 83.6246C385.328 75.9087 390.201 67.3324 393.819 58.2453C395.443 54.167 389.214 51.3298 387.582 55.4328Z" fill="#44403B" fill-opacity="0.7"/>
<path d="M63.2445 408.088C48.9008 397.801 41.4803 380.556 41.5327 363.131C41.5911 344.298 51.7597 326.944 66.3462 315.496C74.9057 308.776 84.7567 304.062 95.2982 301.393C99.569 300.315 97.1817 293.9 92.9553 294.964C72.5943 300.103 54.2583 313.121 43.5573 331.295C33.541 348.307 31.9854 369.473 39.2948 387.814C43.3349 397.956 50.0201 406.999 58.9206 413.377C62.4799 415.927 66.8285 410.647 63.242 408.071L63.2445 408.088Z" fill="#44403B" fill-opacity="0.7"/>
<path d="M17.7284 264.62C20.7715 258.947 24.3124 253.594 28.3707 248.602C32.488 243.541 37.1698 238.249 43.1923 235.449C47.6004 233.401 52.9006 232.607 57.4295 234.738C61.6571 236.722 64.1815 241.358 63.0636 245.931C62.016 250.212 68.7614 251.323 69.8097 247.069C71.3149 240.916 68.4977 234.338 63.5536 230.525C58.1866 226.382 51.0285 225.88 44.663 227.629C36.9803 229.739 30.818 235.365 25.6709 241.204C20.1404 247.477 15.4444 254.444 11.4906 261.808C9.41201 265.689 15.6515 268.491 17.7284 264.62Z" fill="#44403B" fill-opacity="0.7"/>
<path d="M263.316 56.1731C254 56.9361 244.665 50.5164 242.291 41.4017C239.967 32.4951 245.107 22.2349 253.451 18.5118C257.452 16.7266 255.131 10.2909 251.108 12.0829C239.416 17.307 232.628 30.6639 235.717 43.1736C238.753 55.4693 251.481 63.9908 263.923 62.9823C268.32 62.6251 267.702 55.8142 263.312 56.1673L263.316 56.1731Z" fill="#44403B" fill-opacity="0.7"/>
</svg>
