<svg width="235" height="184" viewBox="0 0 235 184" fill="none" xmlns="http://www.w3.org/2000/svg">
<path d="M47.8022 45.6141C77.9926 26.3346 111.406 12.1103 146.231 3.73188C162.738 -0.242126 180.977 -2.70455 196.012 5.1734C213.429 14.3026 221.487 34.4429 228.164 52.9415C232.458 64.8435 236.783 77.9468 232.498 89.8588C229.796 97.3864 223.96 103.342 217.884 108.548C207.954 117.056 196.953 124.223 185.992 131.361C165.581 144.644 145.18 157.937 124.77 171.221C115.951 176.967 106.672 182.873 96.2011 183.854C85.9808 184.815 75.8905 180.921 66.9615 175.856C54.0285 168.528 42.2366 158.118 36.5109 144.404C32.1064 133.853 31.5658 122.151 31.0854 110.73C30.2345 90.4193 30.0043 68.1368 42.7371 52.3009" fill="#FFE1C0"/>
<path d="M104.229 55.1337C96.301 57.2258 89.0037 60.6494 82.367 65.4742C80.435 66.8756 80.3449 70.3491 83.0877 70.9597C95.9507 73.8526 109.344 72.4912 121.206 66.6253C125.23 64.6333 130.536 61.5902 130.476 56.385C130.416 51.5501 126.021 48.8274 121.897 47.5461C109.925 43.8224 95.6604 44.9434 83.7885 48.3869C77.8325 50.1187 72.0366 52.5911 66.7112 55.7543C61.3858 58.9175 55.3799 62.7715 52.537 68.3672C47.3518 78.5674 56.4009 89.4483 66.2908 91.6505C79.6443 94.6335 95.1399 87.7267 107.562 83.5024C121.677 78.6976 135.531 73.0919 149.014 66.7455C155.341 63.7725 161.827 60.8095 167.823 57.2059C172.288 54.5332 176.732 50.8995 177.943 45.5842C180.316 35.2337 169.385 29.2877 161.056 27.1455C146.532 23.4218 130.696 22.1405 115.751 22.0705C87.7124 21.9403 59.2137 28.3267 35.6399 43.9825C17.3415 56.1347 -7.31342 79.7486 2.05603 104.243C6.75076 116.526 19.5437 120.72 31.2455 123.843C45.2496 127.577 59.8743 128.788 74.3188 128.227C90.8755 127.577 107.302 124.694 123.358 120.7C138.744 116.866 155.391 112.912 169.164 104.804C180.406 98.1871 190.146 87.166 191.107 73.6524C191.947 61.8305 184.66 49.9686 173.078 46.7253C169.355 45.6843 167.763 51.47 171.477 52.5211C181.327 55.2839 186.562 66.0648 184.81 75.8046C182.878 86.5554 174.53 94.8438 165.371 100.059C155.431 105.715 144.089 108.788 133.148 111.881C121.787 115.104 110.275 117.837 98.6033 119.739C75.7002 123.463 51.7861 123.813 29.3935 117.106C18.4325 113.823 7.74171 109.288 6.26022 96.5354C4.99895 85.6745 10.955 75.6043 17.7319 67.6363C48.0825 31.9904 98.0128 24.0924 142.187 29.9683C150.556 31.0794 165.06 31.4599 170.736 39.0075C177.963 48.6172 156.752 56.335 150.906 59.1879C129.815 69.4782 107.693 78.0468 85.0297 84.183C78.7334 85.8847 71.5461 87.6065 65.2297 85.0639C59.4939 82.7516 54.5689 76.0348 58.4529 70.0488C61.8163 64.8836 68.5931 61.3199 73.9685 58.6172C79.3439 55.9145 85.5402 53.8525 91.6564 52.6612C97.7726 51.47 103.508 51.1997 109.454 51.6101C112.257 51.8103 129.394 53.6422 122.257 59.1378C112.217 66.8555 96.5013 67.8366 84.6493 65.1739L85.37 70.6594C91.6063 66.1348 98.3431 62.9016 105.791 60.9296C109.524 59.9386 107.943 54.1527 104.189 55.1337H104.229Z" fill="#332E7F"/>
<path d="M4.52848 114.153C9.25324 131.301 15.5296 150.47 33.2275 158.128C42.0664 161.951 51.9563 162.342 61.4258 161.681C72.517 160.91 83.6083 159.119 94.5393 157.147C116.762 153.133 139.455 147.817 160.366 139.149C176.602 132.422 192.948 121.831 199.335 104.644C205.221 88.7978 201.928 68.6074 186.622 59.4382C183.299 57.4461 180.276 62.6413 183.589 64.6233C196.232 72.201 198.384 88.8178 193.959 101.841C188.374 118.308 171.867 128.157 156.562 134.254C138.844 141.311 119.945 145.985 101.286 149.759C91.0558 151.831 80.7554 153.523 70.3949 154.774C61.6361 155.835 52.5369 156.716 43.788 155.065C22.4165 151.041 15.4395 131.17 10.3143 112.562C9.29331 108.838 3.49743 110.42 4.51846 114.163L4.52848 114.153Z" fill="#332E7F"/>
</svg>
