<svg width="276" height="144" viewBox="0 0 276 144" fill="none" xmlns="http://www.w3.org/2000/svg">
<path d="M15.0531 96.6174C11.6022 92.4765 8.7351 87.4951 3.00091 77.5322C0.205079 72.6763 -0.44729 70.897 0.268113 68.5391C1.41111 64.7712 6.69305 62.0312 12.3011 61.0724C17.9093 60.1136 23.8271 60.6102 29.5421 61.2215C36.2192 61.9365 43.0744 62.859 48.6497 65.4007C56.2368 68.8611 60.5456 74.9124 68.3685 78.1327C80.8702 83.2779 97.0312 79.4972 110.536 75.6274C118.293 73.4041 126.697 70.7769 130.239 65.6863C131.727 63.5467 132.198 61.1506 133.552 58.9728C136.718 53.8858 144.27 50.6109 151.909 48.475C159.548 46.339 167.744 44.9945 174.846 42.1545C179.459 40.3097 183.757 37.8007 189.082 37.2676C194.882 36.6872 202.127 38.2774 205.805 35.2445C207.168 34.122 207.568 32.6337 208.083 31.2327C211.871 20.9587 223.69 12.9753 235.027 5.54319C238.574 3.21621 242.425 0.781823 247.321 0.155958C256.073 -0.961139 263.846 4.1131 268.136 9.29832C278.999 22.4251 278.576 39.3526 267.064 52.2338C263.016 56.7623 257.761 60.7612 253.436 65.175C246.361 72.3943 241.844 80.7107 240.356 89.2654C238.528 99.7687 241.299 100.436 237.881 105.103C231.801 113.412 220.396 111.254 202.245 120.142C183.529 129.306 185.621 136.516 168.563 141.409C160.003 143.865 152.986 143.91 140.835 143.989C130.981 144.052 111.156 144.054 87.3746 138.107C55.7763 130.203 35.4681 116.365 25.8061 107.767C20.2227 102.798 15.552 97.2269 15.0449 96.6174H15.0531Z" fill="#FF5A00"/>
</svg>
