<svg width="1233" height="637" viewBox="0 0 1233 637" fill="none" xmlns="http://www.w3.org/2000/svg">
<path d="M1233 562.797C869.023 555.925 637.681 582.585 479.134 618.185C479.134 618.185 294.953 675.528 21.1712 587.762C13.4708 585.299 5.11778 582.108 1.30552 574.978C-2.51671 567.848 2.5073 556.423 10.4856 557.759C18.6476 559.13 20.3234 570.872 27.5081 574.983C29.862 563.669 43.3077 557.597 54.7451 559.259C66.1825 560.92 75.9315 568.12 85.1498 575.093C83.9011 564.75 96.0412 555.394 105.723 559.238C112.176 561.794 116.018 568.31 121.143 572.993C126.268 577.676 135.379 580.092 139.535 574.529C142.732 570.25 140.955 563.694 144.055 559.332C148.935 552.465 159.721 557.041 166.272 562.338C172.822 567.636 182.726 573.198 188.674 567.225C191.556 564.337 191.928 559.87 193.461 556.091C196.865 547.64 207.161 542.672 215.896 545.26C223.9 547.637 229.274 554.959 236.168 559.676C243.061 564.393 254.654 565.138 257.899 557.443C259.166 554.438 258.75 550.87 260.331 548.03C264.847 539.928 277.22 546.218 283.309 553.21C289.398 560.202 300.565 567.676 306.411 560.478C309.516 556.658 308.411 550.959 310.22 546.383C312.975 539.421 321.902 536.835 329.248 538.283C336.593 539.732 342.967 544.101 349.692 547.397C384.05 564.188 425.692 552.267 462.721 561.822C475.283 565.066 487.247 570.778 500.116 572.391C514.099 574.142 528.195 570.947 542.277 570.492C558.66 569.957 575.157 573.206 590.123 579.904C590.746 572.045 589.41 564.037 586.262 556.811C780.484 544.206 974.695 531.601 1168.92 519.006" fill="#FFB96C"/>
<path d="M1198.95 196.181C891.406 145.644 678.032 93.0517 517.983 38.8597C517.983 38.8597 345.11 -34.5808 81.1782 20.4611C73.6412 22.0291 65.4138 24.2267 61.0821 30.6871C56.7505 37.1476 60.364 48.6594 68.0533 48.2027C75.922 47.7312 78.6835 36.614 85.9039 33.4064C86.9969 44.5352 99.127 51.769 110.132 51.3586C121.127 50.9491 131.083 45.036 140.512 39.2871C138.295 49.1047 148.859 59.3583 158.411 56.6799C164.785 54.8872 169.066 49.0228 174.397 45.0585C179.728 41.0843 188.586 39.718 191.966 45.4992C194.572 49.9495 192.23 56.0748 194.721 60.5849C198.662 67.6944 209.339 64.4207 216.068 59.9995C222.807 55.5874 232.736 51.2724 237.768 57.629C240.201 60.7089 240.119 65.0407 241.186 68.8359C243.565 77.3192 252.82 83.1655 261.35 81.5855C269.168 80.1347 274.993 73.651 281.992 69.8296C288.991 66.0081 300.04 66.4973 302.348 74.2439C303.25 77.26 302.488 80.6545 303.711 83.5537C307.175 91.8066 319.526 87.0501 325.996 80.9643C332.465 74.8686 343.788 68.8521 348.607 76.3806C351.166 80.3733 349.544 85.746 350.797 90.3385C352.711 97.325 360.912 100.74 368.015 100.111C375.118 99.4822 381.588 95.9354 388.288 93.4734C422.509 80.8928 460.759 96.6994 496.785 91.3552C509.008 89.5393 520.909 85.2912 533.255 85.0808C546.673 84.8518 559.704 89.3917 572.997 91.2904C588.464 93.5008 604.414 92.0983 619.253 87.2155C619.052 94.839 616.989 102.396 613.294 109.025C800.684 153.123 988.076 197.231 1175.48 241.328" fill="#FFB96C"/>
</svg>
