<svg width="518" height="302" viewBox="0 0 518 302" fill="none" xmlns="http://www.w3.org/2000/svg">
<path d="M172.846 127.496C165.474 131.197 158.11 134.907 150.738 138.608C148.867 139.55 148.768 142.208 149.473 143.974C155.382 158.871 169.103 167.055 182.748 170.807C198.462 175.13 215.334 174.836 231.267 172.413C248.36 169.814 264.998 164.036 280.415 155.456C294.985 147.347 309.554 136.665 319.873 122.466C329.048 109.841 336.572 92.6983 332.071 76.2035C327.109 58.0012 309.903 49.497 295.189 43.2473C261.778 29.0572 225.017 27.964 189.991 33.9865C156.602 39.7316 123.531 51.7095 93.6879 69.3483C65.5341 85.9861 39.9183 108.714 21.8108 138.12C4.5669 166.13 -5.83544 203.46 3.51381 236.929C8.00661 253.02 17.227 266.647 29.5765 276.362C41.6988 285.901 56.2227 291.234 70.686 294.422C86.7252 297.954 103.083 299.014 119.379 299.914C139.798 301.05 160.231 301.706 180.672 301.899C220.085 302.269 259.664 301.277 298.947 297.567C335.018 294.169 371.218 287.928 405.441 274.428C436.739 262.08 467.491 243.768 489.819 215.909C500.191 202.964 508.571 188.05 513.442 171.53C518.056 155.868 519.056 139.273 516.943 123.005C512.707 90.4105 495.842 60.3649 473.545 39.0839C447.929 14.6319 414.987 2.81367 381.598 0.466874C345.891 -2.03974 309.554 5.74081 276.036 19.1486C259.626 25.7096 243.503 34.2809 230.669 47.6551C218.729 60.1041 210.144 77.1288 208.705 95.4069C205.947 130.432 232.495 154.32 259.095 165.878C275.271 172.91 292.727 176.35 309.956 178.184C329.253 180.236 348.709 179.572 367.87 176.409C377.06 174.895 386.348 172.969 395.236 169.932C402.895 167.316 410.191 163.144 414.805 155.633C422.579 142.99 421.2 123.686 410.388 113.676C399.751 103.827 383.825 103.717 373.059 113.281C369.506 116.435 374.537 121.953 378.06 118.833C388.083 109.925 404.88 113.575 410.563 126.487C413.229 132.543 413.298 139.811 411.29 146.111C408.82 153.883 402.895 158.636 396.114 161.353C387.871 164.65 378.992 166.467 370.37 168.082C361.748 169.697 352.671 170.756 343.746 171.236C325.222 172.228 306.592 170.815 288.386 166.862C262.74 161.293 232.465 149.383 220.047 121.533C213.327 106.46 214.713 88.8964 221.456 74.1512C228.798 58.0937 241.192 46.3259 255.254 37.7967C269.778 28.99 285.81 23.2113 301.728 18.4168C318.002 13.5129 334.655 10.0392 351.474 8.6093C384.151 5.83352 418.495 10.6026 447.52 28.4181C471.999 43.4493 492.289 67.9015 503.032 96.6686C513.776 125.444 513.7 157.5 500.555 185.3C486.539 214.95 461.673 236.509 435.315 251.641C405.252 268.901 372.188 278.701 338.882 284.505C303.781 290.62 268.111 292.487 232.631 293.53C194.295 294.666 155.92 294.144 117.614 291.974C89.4375 290.376 58.238 288.651 34.1451 270.382C22.6063 261.634 14.0374 248.823 10.0598 233.943C5.88518 218.289 6.50645 201.475 9.96886 185.737C17.0528 153.521 35.9559 126.117 58.435 104.962C81.6187 83.1513 109.326 67.5649 137.934 56.5964C169.149 44.6269 202.25 37.3428 235.366 38.4531C252.262 39.025 269.074 41.9017 285.173 47.6551C292.795 50.3804 300.319 53.6776 307.395 57.8413C314.168 61.8367 320.737 67.0098 324.086 74.9418C330.177 89.3674 322.858 106.022 314.562 117.319C304.614 130.869 290.78 140.921 276.824 148.693C262.55 156.642 247.087 161.967 231.298 164.557C216.463 166.988 200.507 167.35 185.824 163.581C173.354 160.377 160.959 153.656 155.557 140.029C155.132 141.821 154.708 143.604 154.291 145.396C161.663 141.695 169.027 137.985 176.399 134.284C180.536 132.207 176.945 125.444 172.831 127.505L172.846 127.496Z" fill="#44403B"/>
<path d="M173.49 144.605C190.112 157.247 211.099 158.425 230.335 154.152C248.837 150.047 267.498 141.123 280.499 125.511C286.34 118.496 291.128 109.899 292.462 100.335C293.773 90.9314 291.931 81.1406 287.03 73.2759C277.158 57.4287 258.838 50.6912 242.23 49.3201C200.969 45.9051 158.216 67.539 130.82 101.429C117.796 117.545 108.197 138.204 110.841 160.41C113.28 180.909 124.986 198.396 139.593 210.559C156.61 224.724 177.854 230.3 198.712 232.26C221.85 234.439 245.435 233.177 268.604 232.177C311.948 230.301 357.088 223.63 393.622 195.587C409.79 183.18 424.314 166.643 432.663 146.674C437.269 135.655 439.951 123.534 438.481 111.354C437.216 100.807 432.875 91.1585 426.783 83.0246C413.154 64.8475 392.023 57.2941 371.453 55.1744C348.254 52.7856 324.343 56.0323 302.19 63.9222C283.946 70.4159 263.406 81.1743 257.868 103.481C255.481 113.079 256.186 124.174 261.603 132.4C267.422 141.224 276.854 145.059 286.143 147.322C297.659 150.131 309.334 152.276 320.919 154.715C332.079 157.07 343.307 160.065 354.634 161.192C364.195 162.151 374.953 161.1 382.704 154.16C388.333 149.122 391.561 140.803 391.606 132.837C391.652 125.326 388.47 117.865 382.053 114.744C377.923 112.734 374.325 119.497 378.484 121.524C383.954 124.182 385.356 130.684 384.144 136.79C382.575 144.722 377.726 149.938 370.756 152.192C361.581 155.161 351.671 153.21 342.489 151.292C331.579 149.012 320.676 146.699 309.774 144.394C300.053 142.35 289.916 140.979 280.499 137.506C272.384 134.519 265.763 128.724 264.02 119.068C260.27 98.3251 277.12 83.504 292.257 76.2786C311.479 67.1017 332.973 62.7111 353.831 62.3242C373.431 61.954 394.447 64.6962 410.934 77.4479C426.215 89.266 434.936 108.923 430.647 129.515C426.473 149.559 413.957 167.005 400.145 180.169C370.43 208.498 330.935 219.097 292.788 222.714C271.301 224.749 249.655 225.128 228.108 225.346C207.576 225.557 186.658 224.808 167.004 217.523C150.579 211.434 135.487 199.876 126.054 183.524C116.705 167.324 114.803 148.037 121.849 130.28C129.251 111.64 143.434 96.6176 158.193 85.0182C173.801 72.7627 191.491 63.7961 210.243 59.5062C227.078 55.6538 245.572 55.107 261.853 61.9623C275.71 67.7999 288.227 81.2919 285.499 99.0905C282.726 117.209 267.164 130.221 253.193 137.699C237.503 146.102 218.418 150.509 201.053 147.919C192.408 146.623 184.226 143.292 177.028 137.808C173.27 134.948 169.724 141.745 173.46 144.588L173.49 144.605Z" fill="#44403B"/>
<path d="M149.882 294.673C148.996 285.648 155.352 278.7 160.784 272.963C166.641 266.781 173.005 261.23 179.801 256.376C186.446 251.632 193.469 247.485 200.773 244.154C208.341 240.706 217.365 236.424 225.684 238.022C230.131 238.872 232.04 231.318 227.563 230.452C217.986 228.618 208.599 232.269 199.803 236.172C191.279 239.957 183.089 244.608 175.399 250.185C167.732 255.745 160.519 262.155 154.004 269.304C147.905 276 141.806 284.538 142.798 294.657C143.283 299.619 150.359 299.678 149.867 294.657L149.882 294.673Z" fill="#44403B"/>
<path d="M233.586 294.934C230.07 285.917 235.222 275.655 239.98 268.522C244.837 261.238 250.83 254.694 257.353 249.26C270.483 238.333 286.234 231.31 302.584 229.56C307.069 229.081 307.115 221.225 302.584 221.712C283.666 223.74 265.785 231.832 250.898 244.954C237.435 256.822 219.441 278.271 227.472 298.896C229.275 303.522 235.366 299.527 233.578 294.934H233.586Z" fill="#44403B"/>
<path d="M352.74 280.466C343.799 273.964 341.723 260.396 344.178 249.554C347.353 235.507 357.013 224.522 365.832 214.453C369.006 210.828 364.013 205.276 360.831 208.901C350.686 220.484 339.534 233.572 336.852 250.084C334.609 263.929 338.14 279.221 349.171 287.237C352.99 290.013 356.535 283.217 352.74 280.458V280.466Z" fill="#44403B"/>
<path d="M457.544 233.59C449.293 235.028 440.3 236.526 432.466 232.387C426.208 229.082 421.442 223.16 418.381 216.347C411.047 200.028 415.881 180.817 423.935 166.046C426.299 161.714 420.185 157.77 417.828 162.085C408.229 179.681 403.623 202.106 412.661 221.149C416.389 228.997 422.336 235.853 429.655 239.554C439.171 244.365 449.422 242.902 459.423 241.152C463.9 240.37 461.999 232.808 457.544 233.582V233.59Z" fill="#44403B"/>
<path d="M509.275 144.639C500.835 150.695 491.728 155.372 482.053 158.408C472.924 161.268 462.718 163.404 453.437 160.166C437.807 154.715 433.739 133.729 438.504 118.193C439.974 113.399 433.148 111.346 431.685 116.107C427.329 130.314 429.269 147.641 438.678 158.888C450.649 173.204 470.196 170.546 485.417 165.499C495.107 162.286 504.351 157.508 512.844 151.418C516.655 148.685 513.109 141.888 509.275 144.639Z" fill="#44403B"/>
<path d="M24.7807 258.63C18.8636 239.469 22.9472 218.407 33.4329 202.148C44.7672 184.576 63.7309 175.113 82.8764 174.112C94.1122 173.523 105.234 175.668 115.712 180.185C119.955 182.019 121.789 174.432 117.591 172.615C97.3625 163.876 74.1181 163.85 54.215 173.725C35.5846 182.969 21.591 201.727 16.7573 223.74C14.0829 235.911 14.295 248.814 17.9695 260.7C19.4393 265.452 26.2657 263.408 24.7883 258.613L24.7807 258.63Z" fill="#44403B"/>
<path d="M72.4134 94.1951C78.376 90.9147 84.5659 88.265 90.9755 86.2967C97.4761 84.3032 104.59 82.4696 111.341 83.8574C116.281 84.8752 121.22 87.6592 123.759 92.664C126.13 97.3323 125.478 103.346 121.796 106.879C118.349 110.185 123.365 115.711 126.797 112.431C131.752 107.678 133.32 99.654 131.441 92.7987C129.403 85.3546 123.675 80.1225 117.266 77.5234C109.53 74.3859 100.969 75.547 93.1348 77.5825C84.7174 79.7695 76.588 83.1593 68.8449 87.4155C64.7688 89.6613 68.3449 96.4326 72.4134 94.1951Z" fill="#44403B"/>
<path d="M404.168 62.6603C395.864 57.1761 391.849 44.9628 395.311 34.8607C398.69 24.9857 409.168 18.8116 418.427 20.8808C422.867 21.8733 424.768 14.3115 420.306 13.3105C407.327 10.417 393.607 18.3911 388.712 32.1438C383.901 45.661 389.515 62.097 400.6 69.4318C404.517 72.0225 408.077 65.2429 404.168 62.6521V62.6603Z" fill="#44403B"/>
</svg>
