<svg width="277" height="161" viewBox="0 0 277 161" fill="none" xmlns="http://www.w3.org/2000/svg">
<path d="M247.425 72.5771C235.24 92.6974 222.972 100.334 173.92 112.703C172.514 113.059 159.594 115.115 158.828 115.069C156.687 114.942 154.587 111.382 150.481 111.83C146.829 112.232 139.278 117.963 134.406 120.156C132.772 123.085 130.155 125.393 127.041 126.645C126.803 126.736 126.565 126.84 126.338 126.932C118.683 127.253 112.249 127.724 107.46 128.138C85.044 130.078 79.5824 132.341 77.0998 137.015C75.6206 139.794 75.5585 142.768 75.6516 144.537C88.1369 143.526 101.46 140.942 115.197 135.97C116.573 135.476 117.918 134.959 119.252 134.431C121.569 132.708 121.952 132.674 121.435 133.122C123.4 132.065 125.479 131.158 127.289 129.872C130.62 127.494 133.806 125.496 137.602 124.015C138.244 123.762 138.895 123.544 139.547 123.349C139.547 123.337 139.526 123.326 139.516 123.303C152.229 115.758 164.911 121.442 178.182 119.719C180.727 119.386 192.054 116.642 206.411 110.865C214.645 107.546 224.441 103.527 235.84 95.7177C240.991 92.192 247.777 87.5295 254.397 80.306C268.352 65.0894 282.833 37.0908 274.599 22.437C270.71 15.5235 261.276 10.6888 258.359 13.1694C257.128 14.2145 257.107 16.5342 257.335 18.5325C260.428 48.7588 251.16 66.4101 247.425 72.5771Z" fill="#44403B"/>
<path d="M104.77 135.338C102.981 135.774 101.181 136.084 99.3396 136.257C98.6982 136.808 97.9845 137.175 97.1053 137.083C96.9501 136.9 96.8777 136.67 96.8673 136.394C96.0708 136.406 95.2743 136.395 94.4675 136.349C91.2194 136.153 88.2093 134.741 85.9543 132.478C85.8716 132.685 85.7888 132.857 85.7061 133.064C70.1175 137.52 54.229 146.546 38.9301 151.186C35.1028 152.346 30.5824 153.781 26.7138 152.633C20.4659 150.773 9.07712 143.962 6.57386 137.083C4.34988 130.939 6.50145 121.511 8.45649 115.068C10.1633 109.418 18.9144 96.4754 23.714 94.1097C26.0104 92.9728 28.0998 93.4894 30.841 91.6864C34.2649 89.4355 45.2607 74.7012 48.095 74.1155C55.76 75.9875 61.6561 83.1766 68.2245 87.0238C80.4306 94.1554 102.557 101.781 116.273 100.403C119.128 100.116 128.065 96.613 125.914 92.4443C125.034 90.7446 98.7913 74.9311 95.2329 73.1165C84.7751 67.7994 74.4931 64.2737 62.9491 63.5846C70.6037 56.5907 82.127 55.5686 91.0953 50.6304C93.671 49.2064 101.822 41.8796 103.239 42.982C103.984 43.5563 109.291 58.2444 111.111 61.2303C119.148 74.3797 139.009 90.2395 153.491 91.1812C159.997 91.5946 164.797 86.932 171.552 90.0098C173.114 88.2067 164.373 78.2728 162.832 76.1598C156.584 67.5581 154.08 66.5131 147.708 59.6226C145.629 57.3832 133.641 43.4528 133.289 42.3389C132.575 40.0535 134.603 41.156 135.347 40.065C132.275 35.2876 125.086 32.9333 125.531 40.6277C123.224 36.9758 119.19 38.1241 116.459 37.125C115.549 36.792 115.704 34.9086 115.052 34.8282C113.749 34.6559 111.008 36.5049 110.542 36.0341C108.877 34.3574 111.204 33.9783 111.846 33.4041C116.852 28.9712 131.748 28.9713 139.288 26.0429C142.361 24.8485 147.015 20.163 147.491 20.0137C155.57 17.4297 179.558 19.2786 187.637 22.2185C193.978 24.5269 219.755 41.0872 225.279 45.8876C226.137 46.6341 228.103 48.3681 228.423 49.2984C229.075 51.1473 223.075 54.1101 221.669 54.3743C198.239 58.6579 166.514 45.3592 145.443 34.61C142.754 33.2434 139.423 27.5357 136.299 31.9456C132.751 36.9527 141.212 44.5093 144.76 46.8636C161.921 58.2559 194.267 65.8815 214.469 63.6076C221.586 62.8037 233.461 57.4521 232.675 48.104C232.106 41.3742 223.562 39.0659 219.445 36.2982C213.9 32.5658 193.936 18.268 189.219 17.0277C182.216 15.1902 167.528 14.972 159.656 14.4552C158.228 14.3634 156.615 15.7186 155.011 15.3855C156.646 5.33684 169.483 9.20696 176.206 4.99226C192.198 9.37922 210.756 3.21222 226.686 7.5877C230.006 8.50644 234.909 13.7663 238.767 14.8458C242.626 15.9368 246.525 15.041 250.425 15.6841C255.877 16.5799 259.766 23.0338 258.349 13.2033C254.501 13.3756 250.673 10.4703 247.539 9.70089C238.374 7.43851 239.936 7.76005 231.775 4.23441C215.079 -2.9547 201.901 1.06474 185.495 1.61598C178.761 1.84566 174.81 0.38717 167.197 1.90308C152.767 4.78561 155.115 8.08158 146.25 16.5454C138.182 24.2398 124.331 22.6894 114.669 25.1241C106.818 27.0994 96.7225 35.5747 89.3575 39.5138C80.4512 44.2683 70.6451 46.0139 61.7181 50.1712C43.1609 58.7958 7.97031 92.1689 1.99144 113.633C-1.30833 125.484 -1.27729 140.632 8.07376 149.257C9.27367 150.359 26.3207 160.775 27.4171 160.902C28.6791 161.039 35.8993 160.167 37.3682 159.799C38.6095 159.489 39.9128 157.881 41.4334 157.422C55.16 153.219 68.7831 148.384 82.127 142.895C81.9718 143.308 81.8374 143.71 81.7133 144.112C84.3096 142.986 86.9577 142.068 89.6058 141.436C94.1882 140.356 98.8844 139.84 103.55 139.277C103.994 139.116 104.553 139.001 105.112 138.91C104.367 138.772 103.663 138.691 103.322 138.255C102.608 137.371 103.725 136.337 104.781 135.372L104.77 135.338ZM125.851 43.7859C126.141 43.6021 125.924 41.7646 126.586 41.7417C128.903 41.6498 133.33 50.263 135.358 52.7091C143.498 62.574 153.656 69.8435 160.256 81.3391C163.307 86.6563 157.825 86.9893 153.594 86.484C133.961 84.1527 111.949 61.7586 107.46 40.6162C110.78 38.1701 125.045 44.2912 125.862 43.7744L125.851 43.7859ZM59.8769 64.756C62.0491 64.4804 60.301 68.6836 60.901 69.3382C61.3561 69.8205 71.1933 70.4636 73.3552 71.0034C88.5093 74.8046 103.912 83.5671 115.714 94.5919C103.943 96.7165 88.7472 92.387 77.948 86.576C69.4452 82.0168 63.0732 74.4716 54.6945 70.4636C54.1463 65.6058 60.3217 68.8214 59.8769 64.7445V64.756Z" fill="#44403B"/>
</svg>
