<svg width="828" height="501" viewBox="0 0 828 501" fill="none" xmlns="http://www.w3.org/2000/svg">
<path d="M24.5549 296.075C11.4633 276.563 -1.92609 254.713 0.229833 231.079C2.34321 207.811 19.7041 188.372 39.9442 177.849C60.1844 167.311 83.162 164.11 105.643 161.055C97.2748 117.164 121.316 71.6511 156.236 45.0797C191.157 18.5084 235.098 7.8827 278.216 2.60643C339.093 -4.83296 409.699 1.40822 447.513 51.1162C483.852 38.4152 520.701 25.6118 558.983 22.9517C597.265 20.2917 637.802 28.9149 666.864 54.7409C695.927 80.5668 710.153 125.846 693.842 161.625C728.081 157.854 764.505 164.695 791.695 186.443C818.885 208.191 834.715 246.455 825.24 280.568C815.765 314.681 777.795 339.294 745.116 328.113C749.343 361.071 723.628 392.363 692.934 402.638C662.241 412.913 628.54 406.307 598.258 394.819C608.257 408.616 595.322 427.543 582.301 438.344C495.795 510.137 366.453 521.508 269.38 465.851C224.758 471.478 178.562 476.974 135.599 463.337C92.6367 449.701 53.6031 411.451 53.1209 365.134C27.3349 357.402 13.1654 322.705 25.8456 298.311" fill="#FFE1C0"/>
</svg>
