<svg width="165" height="176" viewBox="0 0 165 176" fill="none" xmlns="http://www.w3.org/2000/svg">
<path d="M12.8553 152.879C1.11314 129.255 0.0271496 102.249 0 76.1218C0 69.464 0.0543034 62.6902 2.1041 56.3293C4.57471 48.6393 9.76027 42.059 14.8372 35.6335C27.1767 20.073 41.566 3.29961 61.8468 0.422334C76.4126 -1.64208 91.019 4.1383 103.399 11.7379C142.671 35.8657 166.929 80.5344 164.88 124.932C164.771 127.267 164.567 129.68 163.4 131.745C162.246 133.783 160.251 135.254 158.282 136.635C125.553 159.653 85.752 173.472 45.1091 175.897C32.6203 176.646 16.3305 173.446 14.5929 161.666" fill="#FFE1C0"/>
</svg>
