<svg width="1230" height="644" viewBox="0 0 1230 644" fill="none" xmlns="http://www.w3.org/2000/svg">
<path d="M0 0.770886C362.247 37.6928 595.053 30.2302 756.035 7.843C756.035 7.843 944.366 -34.1004 1210.02 76.0052C1217.49 79.0962 1225.56 82.9673 1228.77 90.3897C1231.99 97.8121 1226.04 108.786 1218.19 106.795C1210.17 104.754 1209.47 92.9106 1202.65 88.2191C1199.37 99.3027 1185.46 104.244 1174.2 101.643C1162.94 99.0425 1153.81 91.0599 1145.2 83.3474C1145.59 93.7608 1132.72 102.084 1123.38 97.4521C1117.16 94.3711 1113.87 87.5589 1109.15 82.4673C1104.43 77.3756 1095.54 74.2148 1090.94 79.4165C1087.4 83.4178 1088.63 90.0999 1085.18 94.1913C1079.75 100.633 1069.38 95.1815 1063.28 89.3596C1057.19 83.5377 1047.78 77.1755 1041.36 82.6372C1038.25 85.2781 1037.51 89.6997 1035.67 93.3409C1031.57 101.484 1020.9 105.585 1012.41 102.284C1004.63 99.2528 999.874 91.5102 993.392 86.2385C986.909 80.9668 975.416 79.2664 971.545 86.6688C970.034 89.5597 970.154 93.1506 968.344 95.8515C963.172 103.554 951.358 96.2615 945.866 88.7891C940.375 81.3167 929.861 72.9441 923.439 79.6363C920.028 83.1874 920.658 88.9593 918.477 93.3707C915.156 100.083 906.043 101.923 898.841 99.8728C891.639 97.8221 885.647 92.9405 879.215 89.0993C846.354 69.523 803.86 77.9657 767.739 65.3816C755.485 61.1103 744.031 54.428 731.337 51.7571C717.542 48.8562 703.228 50.877 689.153 50.1668C672.778 49.3465 656.603 44.7449 642.238 36.8324C640.968 44.6149 641.638 52.7076 644.179 60.17C449.535 56.6889 254.903 53.208 60.2595 49.7169" fill="#332E7F"/>
<path d="M3.65108 369.03C306.039 444.815 514.386 514.867 669.447 582.109C669.447 582.109 835.7 669.597 1103.34 636.537C1110.98 635.596 1119.36 634.086 1124.21 628.004C1129.07 621.922 1126.41 610.148 1118.71 609.968C1110.83 609.788 1107.16 620.641 1099.7 623.242C1099.53 612.059 1088.03 603.846 1077.03 603.346C1066.04 602.846 1055.62 607.917 1045.75 612.869C1048.77 603.266 1039.09 592.172 1029.34 594.053C1022.84 595.313 1018.09 600.805 1012.45 604.316C1006.81 607.837 997.863 608.467 994.972 602.426C992.741 597.774 995.582 591.862 993.472 587.16C990.13 579.748 979.217 582.129 972.145 585.98C965.062 589.821 954.809 593.302 950.318 586.55C948.147 583.279 948.587 578.968 947.837 575.097C946.166 566.444 937.423 559.852 928.791 560.722C920.878 561.522 914.536 567.504 907.244 570.735C899.951 573.966 888.978 572.566 887.317 564.653C886.667 561.572 887.707 558.251 886.727 555.26C883.956 546.748 871.252 550.469 864.3 556C857.347 561.542 845.564 566.604 841.382 558.701C839.162 554.51 841.222 549.288 840.352 544.607C839.022 537.485 831.129 533.403 823.997 533.443C816.864 533.483 810.122 536.484 803.24 538.385C768.089 548.098 731.267 529.182 694.915 531.532C682.581 532.333 670.367 535.584 658.043 534.774C644.649 533.893 632.035 528.291 618.94 525.3C603.705 521.819 587.69 521.9 572.495 525.541C573.326 517.958 576.006 510.596 580.238 504.294C397.088 444.854 213.939 385.405 30.7799 325.966" fill="#332E7F"/>
</svg>
