<svg width="549" height="372" viewBox="0 0 549 372" fill="none" xmlns="http://www.w3.org/2000/svg">
<path d="M49.0712 165.797C29.6308 151.244 14.0984 131.529 4.4886 109.223C-0.387184 97.9032 -3.06706 83.0305 5.95357 74.6322C19.0361 62.4564 39.4058 76.4487 51.3438 89.7488C43.2128 63.7291 77.5143 39.9909 103.323 48.7689C129.132 57.547 143.444 85.4663 148.779 112.199C192.793 108.248 238.094 132.066 259.797 170.561C299.563 143.995 362.894 171.971 370.05 219.257C388.137 207.389 407.592 195.102 429.215 195.039C450.839 194.976 473.889 213.066 470.452 234.412C502.451 220.184 544.016 253.052 537.546 287.47C531.076 321.888 480.417 337.423 455.763 312.55C433.729 336.876 399.252 349.287 366.769 344.567C334.289 339.857 304.762 318.148 290.558 288.566C259.83 301.212 224.942 308.206 193.446 297.642C161.95 287.078 136.246 254.692 142.113 221.991C117.872 224.343 92.6476 226.582 69.833 218.067C47.0183 209.552 27.5336 186.829 31.1659 162.75" fill="#FFE1C0"/>
<path d="M80.0535 86.1312L101.083 104.033L97.4818 108.268L81.4901 94.657L70.4448 107.633L85.2173 120.209L81.6691 124.376L66.8966 111.8L51.8562 129.474L46.819 125.184L80.0535 86.1312Z" fill="#332E7F"/>
<path d="M88.6621 138.646L74.8362 148.515L69.3098 144.476L113.658 113.391L120.098 118.107L103.926 169.812L98.2204 165.628L103.333 149.382L88.6621 138.646ZM105.29 144.406L109.955 129.528C111.012 126.149 112.19 123.246 113.335 120.406L113.214 120.316C110.806 122.323 108.286 124.342 105.646 126.273L92.835 135.274L105.297 144.394L105.29 144.406Z" fill="#332E7F"/>
<path d="M112.456 175.366L139.283 131.671L145.441 135.447L145.872 166.147C145.965 173.256 145.678 179.414 144.998 185.167L145.169 185.179C148.237 179.024 151.363 173.625 155.543 166.823L166.764 148.538L172.079 151.804L145.252 195.499L139.541 191.996L139.281 161.308C139.218 154.576 139.369 147.791 140.065 141.709L139.829 141.654C136.775 147.366 133.68 152.693 129.22 159.955L117.759 178.626L112.443 175.359L112.456 175.366Z" fill="#332E7F"/>
<path d="M187.17 166.209L173.355 158.957L175.969 153.973L209.585 171.614L206.972 176.598L193.095 169.313L171.882 209.738L165.953 206.623L187.167 166.199L187.17 166.209Z" fill="#332E7F"/>
<path d="M201.586 206.543L190.022 218.974L183.794 216.116L221.009 176.781L228.268 180.114L222.787 234.017L216.353 231.065L218.101 214.124L201.576 206.546L201.586 206.543ZM219.02 208.854L220.613 193.348C220.97 189.834 221.55 186.745 222.098 183.728L221.964 183.664C220.001 186.112 217.946 188.599 215.746 191.024L205 202.416L219.032 208.86L219.02 208.854Z" fill="#332E7F"/>
<path d="M233.665 229.619C235.771 232.395 239.259 235.384 243.509 237.047C249.815 239.505 254.804 237.602 256.675 232.788C258.408 228.319 256.854 224.772 251.366 219.78C244.643 213.978 241.397 208.063 244.02 201.331C246.921 193.889 255.242 190.758 264.528 194.371C269.416 196.282 272.519 198.79 274.183 200.821L270.518 205.19C269.286 203.73 266.651 201.071 262.332 199.387C255.812 196.847 251.811 199.781 250.542 203.045C248.806 207.505 250.851 210.842 256.449 215.958C263.311 222.22 265.91 227.722 263.174 234.739C260.304 242.109 252.363 246.37 241.087 241.974C236.474 240.179 231.973 236.877 230.076 234.175L233.649 229.603L233.665 229.619Z" fill="#332E7F"/>
<path d="M291.822 211.106L277.018 206.2L278.793 200.86L314.823 212.815L313.048 218.154L298.171 213.216L283.802 256.533L277.444 254.425L291.813 211.109L291.822 211.106Z" fill="#332E7F"/>
<path d="M326.052 215.866L311.711 265.1L305.357 263.252L319.699 214.019L326.052 215.866Z" fill="#332E7F"/>
<path d="M363.54 286.114C357.24 282.704 351.149 279.116 345.859 275.727C344.909 275.102 343.972 274.484 343.003 274.252C331.279 270.941 323.267 259.756 327.153 243.711C331.031 227.741 343.28 219.827 356.735 223.09C370.269 226.371 376.521 239.003 372.947 253.722C369.841 266.513 361.944 273.29 352.957 274.164L352.888 274.456C357.534 276.92 362.649 279.411 366.687 281.169L363.53 286.117L363.54 286.114ZM366.081 252.362C368.503 242.377 365.822 230.849 355.249 228.28C344.375 225.644 336.613 234.407 334.075 245.221C331.436 255.772 334.961 266.734 345.024 269.173C355.301 271.664 363.328 263.752 366.091 252.359L366.081 252.362Z" fill="#332E7F"/>
<path d="M392.683 231.84L387.397 261.733C385.394 273.045 389.575 278.731 396.316 279.92C403.81 281.248 409.478 277.146 411.451 265.979L416.737 236.086L423.334 237.244L418.134 266.694C415.394 282.208 406.103 287.124 395.16 285.199C384.821 283.375 378.077 276.073 380.837 260.418L386.094 230.669L392.69 231.827L392.683 231.84Z" fill="#332E7F"/>
<path d="M456.738 268.963L436.952 266.51L434.673 284.855L456.718 287.592L456.039 293.104L427.429 289.554L433.738 238.662L461.219 242.069L460.541 247.582L439.626 244.987L437.632 261.071L457.417 263.524L456.747 268.96L456.738 268.963Z" fill="#332E7F"/>
<path d="M464.492 289.923C464.74 287.194 466.815 285.402 469.393 285.633C472.121 285.881 473.681 288.016 473.43 290.735C473.19 293.388 471.257 295.274 468.528 295.025C465.875 294.786 464.249 292.567 464.492 289.923ZM467.38 279.266L469.663 242.8L476.936 243.463L472.535 279.727L467.387 279.253L467.38 279.266Z" fill="#332E7F"/>
<path d="M42.9807 57.7588C45.9468 44.6745 55.511 33.4167 67.7648 28.0312C80.0733 22.6187 94.1937 23.9163 105.738 30.6358C112.207 34.4033 117.644 39.7858 121.334 46.309C122.286 47.9883 124.831 46.4005 123.875 44.7117C116.93 32.4132 103.889 23.906 89.9381 22.025C75.9876 20.1439 61.2484 25.6051 51.3392 36.1299C45.8393 41.9789 41.8424 49.2168 40.0631 57.0547C39.6348 58.9387 42.5553 59.6523 42.9807 57.7588Z" fill="#332E7F"/>
<path d="M26.0517 48.2742C23.8351 33.2734 30.8446 17.6402 42.9951 8.70109C46.4132 6.19295 50.1752 4.23982 54.221 2.95439C56.0631 2.37107 55.2011 -0.505724 53.359 0.0775997C37.9661 4.96163 26.2993 19.0022 23.3523 34.7664C22.5186 39.2382 22.378 43.8261 23.041 48.3405C23.3156 50.2333 26.3292 50.1766 26.0421 48.277L26.0517 48.2742Z" fill="#332E7F"/>
<path d="M407.463 358.729C414.381 362.393 421.801 361.173 428.635 357.997C436.14 354.515 442.733 349.383 449.862 345.241C456.992 341.098 464.537 337.855 472.595 339.673C477.864 340.863 482.633 343.667 487.969 344.628C492.277 345.407 496.742 345.03 500.904 343.678C510.257 340.646 518.125 332.865 520.235 323.13C520.641 321.242 517.721 320.529 517.317 322.427C515.543 330.629 509.183 337.342 501.422 340.315C497.598 341.785 493.392 342.429 489.319 341.81C484.142 341.031 479.5 338.408 474.494 337.045C458.098 332.584 444.155 346.073 430.957 353.434C424.133 357.235 416.286 359.994 408.884 356.078C407.17 355.17 405.746 357.812 407.46 358.72L407.463 358.729Z" fill="#332E7F"/>
<path d="M479.738 369.02C488.59 372.825 498.484 372.745 507.662 370.141C517.841 367.247 526.727 361.293 534.716 354.51C539.499 350.454 543.992 346.057 548.468 341.674C549.85 340.32 547.657 338.27 546.276 339.624C532.361 353.241 516.624 368.312 495.953 369.009C490.894 369.177 485.816 368.379 481.161 366.378C479.398 365.62 477.962 368.256 479.738 369.02Z" fill="#332E7F"/>
</svg>
