<svg width="686" height="381" viewBox="0 0 686 381" fill="none" xmlns="http://www.w3.org/2000/svg">
<path d="M10.9326 4.8156L2.15247 19.743L0 14.787L8.8402 0L25.6796 3.63456L27.8321 8.58997L10.9326 4.8156ZM15.8983 16.2687L7.11821 31.1961L4.96574 26.2402L13.8059 11.4531L30.6453 15.0877L32.7978 20.0431L15.8983 16.2687Z" fill="#332E7F"/>
<path d="M21.3647 64.9049C19.7128 63.8237 16.7494 61.0406 14.3266 56.7256C8.89034 47.0344 11.9138 37.0428 21.7352 31.5364C31.6165 25.98 42.5892 28.7231 48.4759 39.2152C50.4182 42.6692 51.2692 46.2033 51.3593 48.2456L46.1032 49.457C46.1132 47.6148 45.6126 45.0222 43.8306 41.8285C39.6958 34.4601 32.017 33.539 25.3193 37.3033C17.8907 41.4781 15.9985 48.8267 19.5727 55.194C21.4348 58.5079 23.5272 60.2196 25.1891 61.461L21.3647 64.9152V64.9049Z" fill="#332E7F"/>
<path d="M64.3641 65.6058L54.2024 72.7141C55.3937 74.0156 56.7653 75.8477 58.0668 77.7199C62.4218 83.9571 65.0749 92.787 57.2759 98.2332C54.0923 100.456 51.0387 100.736 48.0653 99.9354C42.9494 98.5939 38.7946 93.9784 35.7011 89.5533C33.6086 86.5599 31.8366 83.6266 30.465 81.1437L56.2147 63.1328L49.9775 54.2123L54.2825 51.2089L64.3541 65.6156L64.3641 65.6058ZM38.0037 83.9468C38.6044 85.1982 39.3052 86.4698 40.5667 88.2818C43.7503 92.8371 48.4457 96.2308 53.2513 92.877C58.4272 89.2628 56.2347 83.4561 53.1812 79.0911C52.2201 77.7195 51.269 76.6186 50.1677 75.4472L38.0037 83.9468Z" fill="#332E7F"/>
<path d="M69.7905 105.782C62.9626 111.729 63.8336 118.557 68.1485 123.673C71.2321 127.337 73.735 129.009 76.1678 130.25L73.2344 134.215C70.9017 133.094 67.3676 130.791 63.6033 126.316C56.3049 117.646 57.6464 107.664 66.1462 100.506C74.646 93.3478 85.5486 92.717 92.4666 100.926C100.205 110.127 94.1785 119.378 89.0025 123.743C87.9513 124.624 87.0403 125.195 86.4696 125.575L69.8105 105.782H69.7905ZM86.0992 117.716C89.403 115.033 93.2975 109.366 88.4419 103.61C84.0769 98.4338 77.3992 100.176 73.5047 102.759L86.0992 117.716Z" fill="#332E7F"/>
<path d="M111.368 123.572L89.2528 146.118L98.4334 155.119L120.549 132.573L125.224 137.158L103.109 159.704L112.289 168.714L134.405 146.168L139.13 150.804L113.341 177.094L80.9133 145.287L106.703 118.997L111.378 123.582L111.368 123.572Z" fill="#332E7F"/>
<path d="M152.225 161.586L144.306 171.227C145.678 171.958 147.72 173.54 149.252 174.792C155.659 180.048 160.785 187.596 154.558 195.185C152.145 198.128 149.282 199.219 146.198 199.249C140.912 199.34 135.316 195.835 131.141 192.412C128.258 190.049 125.755 187.696 123.833 185.724L147.089 157.371L152.205 161.566L152.225 161.586ZM131.812 186.465C132.713 187.406 133.734 188.437 135.446 189.839C139.33 193.022 145.387 195.836 149.302 191.07C153.357 186.134 149.052 180.828 145.227 177.685C143.876 176.573 142.604 175.723 141.283 174.942L131.822 186.465H131.812Z" fill="#332E7F"/>
<path d="M181.599 208.821C176.673 216.419 179.387 222.737 184.943 226.481C188.918 229.154 191.781 230.075 194.464 230.596L192.732 235.211C190.179 234.78 186.154 233.539 181.299 230.265C171.898 223.938 170.436 213.966 176.643 204.756C182.851 195.535 193.162 191.931 202.063 197.928C212.034 204.636 208.78 215.198 204.996 220.814C204.235 221.946 203.514 222.747 203.064 223.277L181.599 208.831V208.821ZM200.561 215.809C203.004 212.315 205.186 205.807 198.939 201.602C193.323 197.818 187.376 201.342 184.342 204.896L200.561 215.819V215.809Z" fill="#332E7F"/>
<path d="M226.421 214.647L210.853 242.119L222.046 248.456L237.614 220.975L243.31 224.198L227.742 251.67L238.935 258.007L254.503 230.536L260.26 233.8L244.582 261.471L247.785 263.374L239.246 277.69L234.74 275.137L240.247 264.795L202.573 243.461L220.724 211.413L226.421 214.637V214.647Z" fill="#332E7F"/>
<path d="M265.185 257.967C261.431 266.206 265.045 272.063 271.092 274.937C275.417 276.999 278.391 277.49 281.114 277.6L280.083 282.415C277.5 282.365 273.335 281.724 268.039 279.212C257.807 274.336 254.894 264.695 259.669 254.663C264.445 244.632 274.116 239.546 283.807 244.161C294.659 249.327 292.997 260.25 290.084 266.367C289.493 267.608 288.903 268.499 288.532 269.09L265.175 257.967H265.185ZM284.968 262.082C286.87 258.268 288.072 251.51 281.264 248.266C275.147 245.352 269.791 249.708 267.308 253.672L284.968 262.082Z" fill="#332E7F"/>
<path d="M315.063 276.159L332.363 282.906C334.085 276.799 332.363 270.572 324.694 267.589C321.08 266.177 317.896 266.167 315.724 266.297L315.954 261.732C319.598 261.191 323.953 261.742 327.567 263.153C332.533 265.086 336.337 268.53 338.139 272.905C339.861 277.09 339.861 282.315 337.679 287.912C333.784 297.913 324.153 303.14 312.52 298.604C308.836 297.163 305.652 294.86 303.44 292.367L306.383 288.372C307.734 289.714 310.197 291.987 314.242 293.558C321.12 296.242 327.417 293.708 330.631 287.121L313.401 280.403L315.063 276.148V276.159Z" fill="#332E7F"/>
<path d="M375.172 281.214L373.45 286.25L362.578 282.526L352.366 312.33L346.109 310.187L356.32 280.383L345.448 276.659L347.17 271.623L375.172 281.214Z" fill="#332E7F"/>
<path d="M386.475 284.678L382.08 299.565C380.418 305.182 379.317 308.665 377.535 313.611L377.735 313.751C381.119 310.067 383.091 307.955 386.635 304.561L403.034 289.563L410.553 291.776L400.131 327.097L394.004 325.285L398.419 310.328C400.121 304.561 401.152 301.617 403.114 296.011L402.894 295.951C399.3 299.806 396.927 302.198 393.824 305.172C388.848 309.657 382.981 315.303 377.355 320.389L369.986 318.217L380.408 282.896L386.465 284.678H386.475Z" fill="#332E7F"/>
<path d="M423.938 295.25L427.122 304.2C427.953 306.523 428.604 308.646 429.294 310.938L429.515 310.989C431.227 309.136 432.869 307.585 434.53 305.963L441.438 299.605L448.456 301.347L431.977 315.604L439.947 337.189L432.558 335.356L429.314 326.006C428.423 323.593 427.743 321.3 427.012 318.847L426.862 318.807C425.15 320.659 423.418 322.261 421.555 324.073L414.387 330.841L407.219 329.059L424.449 313.972L416.69 293.458L423.928 295.26L423.938 295.25Z" fill="#332E7F"/>
<path d="M470.632 306.153L478.671 307.845L481.414 327.387C481.745 330.261 482.386 334.976 482.616 337.98L482.766 338.009C484.148 335.496 487.361 330.19 489.604 326.536L498.704 312.049L506.824 313.751L501.788 350.323L495.531 349.012L498.324 331.642C498.915 327.728 499.585 323.042 500.356 318.617L500.136 318.567C498.484 321.641 496.902 324.344 493.739 329.43L482.996 346.139L478.231 345.138L475.558 325.996C475.157 322.331 474.687 316.795 474.497 313.261L474.196 313.201C473.155 317.416 471.934 322.131 470.882 326.036L466.407 342.895L460.38 341.634L470.622 306.163L470.632 306.153Z" fill="#332E7F"/>
<path d="M536.868 357.181L530.371 355.91L533.334 340.753L528.479 339.801C525.716 339.261 523.703 339.641 522.041 340.632C518.928 342.274 517.086 346.559 514.983 349.793C514.312 350.824 513.602 351.695 512.911 352.486L505.893 351.114C506.944 350.083 507.955 348.882 508.936 347.44C511.189 344.236 513.001 339.711 516.745 337.649C518.057 336.898 519.558 336.338 521.26 336.358L521.3 336.137C516.695 334.695 512.41 330.831 513.491 325.305C514.222 321.57 516.735 319.428 519.799 318.397C523.123 317.266 527.668 317.376 532.373 318.297C536.708 319.148 540.813 320.329 543.876 321.32L536.878 357.161L536.868 357.181ZM536.588 324.103C534.986 323.563 533.525 323.112 531.212 322.662C526.737 321.781 521.18 322.021 520.209 327.026C519.308 331.652 524.734 334.425 528.619 335.186C531.312 335.707 532.724 335.987 534.215 336.277L536.598 324.103H536.588Z" fill="#332E7F"/>
<path d="M576.154 326.987L575.172 332.303L559.454 329.419L553.778 360.325L547.27 359.124L553.928 322.902L576.154 326.987Z" fill="#332E7F"/>
<path d="M588.328 329.109L585.624 344.857L587.196 345.127L603.545 331.722L611.574 333.104L592.933 346.81C598.679 348.411 601.533 352.916 603.265 359.935C603.825 362.497 604.496 366.242 605.648 369.456L598.75 368.274C598.049 366.532 597.258 363.459 596.647 360.265C595.175 353.988 592.262 350.714 586.115 349.653L584.844 349.433L582.1 365.401L575.573 364.28L581.81 327.988L588.338 329.109H588.328Z" fill="#332E7F"/>
<path d="M623.088 334.936L620.695 350.274C619.794 356.06 619.153 359.655 618.042 364.8L618.252 364.91C621.125 360.816 622.797 358.463 625.861 354.629L640.147 337.609L647.886 338.82L642.2 375.202L635.882 374.211L638.295 358.803C639.226 352.867 639.857 349.803 641.068 343.986L640.838 343.946C637.784 348.241 635.742 350.925 633.059 354.288C628.724 359.384 623.648 365.752 618.733 371.538L611.144 370.346L616.83 333.965L623.068 334.936H623.088Z" fill="#332E7F"/>
<path d="M660.971 340.702L665.076 349.272C666.147 351.495 667.018 353.537 667.939 355.74L668.17 355.77C669.681 353.758 671.153 352.036 672.635 350.244L678.842 343.196L686 344.197L671.093 360.085L681.265 380.719L673.726 379.667L669.531 370.707C668.4 368.395 667.479 366.192 666.498 363.829L666.347 363.809C664.836 365.821 663.284 367.604 661.622 369.606L655.195 377.084L647.886 376.063L663.454 359.264L653.593 339.671L660.981 340.702H660.971Z" fill="#332E7F"/>
</svg>
