<svg width="872" height="724" viewBox="0 0 872 724" fill="none" xmlns="http://www.w3.org/2000/svg">
<path d="M215.58 376.635C199.158 390.835 173.85 393.497 154.927 382.739C144.529 376.825 136.654 367.499 128.598 358.853C120.522 350.186 111.946 342.11 101.449 336.446C81.1741 325.519 55.4458 322.326 33.6502 330.602C12.405 338.668 0.276315 357.101 0.00612205 379.647C-0.264071 402.193 8.45217 422.658 17.6588 442.152C26.7953 461.496 37.7531 479.969 50.272 497.321C75.43 532.196 106.552 562.508 141.958 586.905C182.006 614.505 227.579 634.189 275.303 643.716C281.587 644.967 284.279 635.33 277.965 634.069C195.706 617.648 121.093 570.764 68.8453 505.357C55.766 488.985 44.1877 471.373 34.2806 452.91C24.4736 434.636 15.1269 415.133 11.3442 394.598C7.56154 374.063 12.505 350.927 33.9404 341.24C55.0554 331.703 81.3443 335.516 100.628 347.524C121.943 360.794 133.602 385.461 157.639 395.028C179.394 403.695 205.083 398.911 222.675 383.7C227.559 379.477 220.454 372.432 215.6 376.625L215.58 376.635Z" fill="#332E7F"/>
<path d="M259.111 480.519C256.379 508.499 255.569 536.66 256.84 564.75C257.92 588.707 259.472 613.494 265.506 636.791C270.72 656.935 280.767 676.339 299.09 687.387C309.107 693.422 320.555 696.894 331.593 700.537C342.361 704.089 353.189 707.461 364.106 710.494C406.447 722.242 453.28 730.348 496.311 717.359C517.456 710.974 536.179 699.306 551.781 683.735C568.653 666.903 581.872 646.908 597.353 628.865C627.845 593.32 666.132 564.739 708.843 545.546C719.25 540.872 730.018 537.25 740.605 533.027C750.412 529.114 760.17 524.341 767.355 516.385C780.674 501.645 781.465 480.88 775.12 462.837C768.255 443.323 755.066 427.922 738.914 415.393C721.712 402.054 702.448 391.205 686.827 375.904C669.885 359.313 662.269 338.278 656.946 315.642C651.842 293.906 647.949 271.76 637.412 251.816C618.258 215.58 581.792 188.701 541.653 180.685C520.818 176.522 498.052 176.792 478.358 185.459C458.664 194.125 445.785 210.716 444.954 231.651C444.564 241.408 447.626 250.455 453.55 258.12V251.046C442.622 260.182 425.35 253.087 413.051 251.176C399.241 249.024 385.652 250.225 375.104 260.302C365.097 269.859 360.324 283.989 357.452 297.178C353.539 315.151 351.647 333.724 349.346 351.947C339.098 432.995 334.885 514.804 336.747 596.472C336.987 607.12 337.627 617.767 337.667 628.415C337.707 636.781 337.297 645.848 332.984 653.273C329.492 659.287 324.058 662.319 317.083 661.098C312.339 660.268 306.175 657.106 307.506 651.422C308.967 645.157 299.32 642.485 297.859 648.76C294.867 661.549 306.175 670.175 317.853 671.236C333.084 672.627 343.021 660.438 346.053 646.608C347.785 638.702 347.805 630.557 347.544 622.511C347.194 611.863 346.824 601.215 346.624 590.558C346.204 568.582 346.224 546.597 346.674 524.621C347.575 481.32 350.176 438.059 354.479 394.968C356.651 373.213 359.243 351.507 362.295 329.852C364.617 313.39 366.078 295.637 373.253 280.386C376.615 273.241 381.379 266.427 388.604 262.804C396.219 258.981 405.076 259.842 413.181 261.283C429.243 264.145 446.685 269.759 460.615 258.11C462.867 256.229 462.146 253.007 460.615 251.035C448.367 235.194 456.983 211.837 471.513 200.859C487.905 188.47 510.491 186.569 530.255 188.921C568.713 193.484 604.608 216.981 624.793 249.914C647.219 286.501 642.285 333.655 667.533 368.8C679.442 385.372 696.144 397.25 712.706 408.768C729.147 420.206 746.129 431.564 757.117 448.746C766.414 463.277 773.309 482.891 766.264 499.763C758.098 519.327 734.791 524.121 717.079 531.226C676.52 547.487 639.293 571.775 608.201 602.507C592.41 618.108 579.13 635.64 565.35 652.963C551.871 669.915 537.29 686.247 518.287 697.114C481.55 718.129 437.079 716.298 396.92 708.142C375.655 703.829 354.8 697.665 334.205 690.86C323.437 687.297 312.259 683.995 302.642 677.82C294.316 672.467 287.982 664.781 283.349 656.105C273.732 638.112 271.17 616.987 269.158 596.993C266.567 571.304 265.686 545.436 266.507 519.627C266.927 506.558 267.798 493.508 269.078 480.499C269.709 474.095 259.692 474.135 259.071 480.499L259.111 480.519Z" fill="#332E7F"/>
<path d="M253.637 408.688C251.206 397.48 248.294 383.91 253.667 373.093C259.442 361.484 273.001 359.663 284.63 359.583C304.324 359.453 331.703 362.755 342.131 341.22C344.923 335.446 336.297 330.372 333.495 336.166C328.361 346.764 316.022 349.386 305.214 349.866C292.966 350.407 280.767 348.485 268.628 351.107C256.66 353.689 246.843 361.364 242.89 373.143C238.777 385.411 241.319 399.061 243.991 411.34C245.362 417.634 255.008 414.972 253.637 408.678V408.688Z" fill="#332E7F"/>
<path d="M591.559 170.248C588.487 165.704 591.489 160.681 595.502 157.759C600.926 153.816 607.701 155.177 613.385 157.909C619.739 160.961 625.243 165.554 630.817 169.787C636.751 174.301 642.826 178.634 649.02 182.777C673.458 199.128 699.836 212.508 727.366 222.815C741.336 228.039 755.606 232.432 770.097 235.955C777.342 237.716 784.637 239.257 791.972 240.578C797.166 241.508 806.393 241.679 809.535 246.762C812.957 252.306 807.794 262.724 805.922 268.308C803.601 275.223 800.999 282.037 798.207 288.772C792.543 302.432 786.098 315.752 779.754 329.101C765.814 358.442 752.034 388.373 747.35 420.807C746.44 427.101 756.087 429.823 756.997 423.469C761.681 391.005 775.521 361.214 789.481 331.863C796.325 317.483 803.16 303.082 809.135 288.312C812.177 280.777 814.979 273.131 817.381 265.365C819.572 258.28 822.264 250.195 818.862 243.05C815.889 236.815 809.475 233.893 803.05 232.452C795.235 230.711 787.279 229.62 779.453 227.869C763.502 224.306 747.791 219.683 732.44 214.069C701.087 202.581 671.296 186.749 644.167 167.285C631.438 158.149 616.977 143.018 599.765 145.49C586.786 147.361 574.517 162.872 582.913 175.301C586.495 180.605 595.172 175.611 591.549 170.248H591.559Z" fill="#332E7F"/>
<path d="M824.726 214.209C828.158 182.126 842.538 152.655 854.677 123.184C860.821 108.253 866.586 93.0722 870.238 77.311C871.999 69.7255 873.04 61.9603 868.507 55.0954C863.974 48.2305 857.039 43.367 851.205 38.0832C844.48 31.9788 837.745 25.8845 831.02 19.7801C824.676 14.026 818.481 6.97084 811.196 2.41758C804.862 -1.53524 798.027 -0.37461 792.272 3.96849C785.818 8.85199 780.124 15.0564 774.39 20.7505C762.041 33.0093 750.172 45.7586 738.834 58.958C728.097 71.4569 718.33 84.6863 707.822 97.3653C702.258 104.08 696.214 110.665 688.909 115.508C680.833 120.852 671.606 123.164 662.58 126.336C647.839 131.5 632.268 141.527 632.098 158.929C632.038 165.374 642.045 165.374 642.105 158.929C642.255 143.488 660.118 137.604 672.097 133.721C686.287 129.118 698.075 122.704 708.423 111.806C718.77 100.908 727.086 88.679 736.493 77.2509C746.38 65.2223 756.687 53.5439 767.395 42.2459C772.859 36.4817 778.423 30.818 784.077 25.264C786.909 22.482 789.761 19.7298 792.643 16.9978C795.104 14.6662 797.856 11.3338 801.189 10.263C805.162 8.99213 808.274 12.6548 810.976 15.0966C814.098 17.9286 817.22 20.7609 820.343 23.5929C826.587 29.2569 832.841 34.921 839.086 40.585C845.09 46.0289 851.365 51.2723 857.099 57.0064C860.021 59.9285 861.922 62.8309 861.882 67.104C861.842 70.9967 860.551 75.0193 859.591 78.772C855.918 93.0722 850.654 106.892 845.04 120.522C832.491 151.004 818.281 181.035 814.739 214.199C814.058 220.593 824.065 220.543 824.746 214.199L824.726 214.209Z" fill="#332E7F"/>
<path d="M479.029 302.192C520.738 321.976 550.96 357.592 580.011 392.327C594.841 410.049 609.602 427.892 625.984 444.224C644.217 462.407 665.092 477.117 685.236 493.019C691.08 497.632 698.315 502.396 703.129 508.13C704.71 510.011 704.55 509.1 703.129 511.372C702.138 512.963 700.637 514.404 699.406 515.815C697.034 518.517 694.563 521.109 691.981 523.61C681.523 533.718 669.435 541.814 656.265 547.948C650.431 550.67 655.505 559.296 661.319 556.584C673.738 550.8 685.226 543.225 695.433 534.068C699.956 530.015 704.2 525.652 708.112 521.008C712.025 516.365 717.059 510.671 713.016 504.257C709.583 498.813 702.859 494.48 697.935 490.457C692.491 486.004 686.907 481.711 681.313 477.438C669.385 468.351 657.306 459.434 646.098 449.457C609.692 417.064 582.412 376.145 548.398 341.46C529.585 322.276 508.48 305.114 484.082 293.546C478.298 290.804 473.214 299.43 479.029 302.182V302.192Z" fill="#332E7F"/>
</svg>
