<svg width="346" height="401" viewBox="0 0 346 401" fill="none" xmlns="http://www.w3.org/2000/svg">
<path d="M95.4206 223.803C92.189 230.302 88.9575 236.79 85.7259 243.289C84.8999 244.939 86.0253 246.751 87.2746 247.541C97.816 254.167 110.546 252.069 121.253 247.071C133.58 241.317 144.628 231.872 154.106 221.522C164.265 210.426 172.721 197.473 179.112 183.328C185.152 169.963 190.056 154.901 190.562 139.828C191.016 126.428 188.383 110.953 178.059 102.494C166.671 93.1634 151.494 96.9689 138.97 100.901C110.526 109.83 85.6846 129.259 65.1696 152.471C45.6044 174.594 29.0334 200.659 17.1188 228.708C5.87529 255.175 -0.980225 284.279 0.114184 313.681C1.15697 341.695 10.8724 372.117 31.9656 389.162C42.1044 397.358 54.277 401.323 66.7802 400.979C79.0561 400.647 91.043 396.211 102.039 390.388C114.232 383.935 125.538 375.659 136.74 367.314C150.761 356.872 164.596 346.097 178.224 335.012C204.5 313.635 230.26 291.271 254.637 267.268C277.01 245.237 298.217 221.246 314.881 193.53C330.12 168.186 342.334 139.186 344.729 108.489C345.844 94.2294 344.75 79.7525 340.63 66.135C336.717 53.2281 329.996 41.6851 321.354 32.068C304.04 12.7994 279.498 2.15068 255.266 0.282276C227.421 -1.86123 200.339 8.37506 177.181 25.1333C152.413 43.0608 131.815 68.141 115.574 95.4105C107.624 108.764 100.759 123.276 98.2083 139.174C95.8337 153.972 97.7334 169.951 104.909 182.847C118.661 207.56 146.879 208.821 169.644 201.886C183.49 197.668 196.581 190.378 208.806 182.136C222.496 172.909 235.092 161.802 246.377 149.193C251.787 143.152 257.084 136.778 261.616 129.889C265.529 123.952 268.503 117.189 268.213 109.681C267.738 97.0493 258.229 85.0137 246.614 84.3145C235.185 83.6267 224.592 92.2808 221.711 104.523C220.761 108.558 226.554 109.463 227.493 105.451C230.167 94.0576 242.918 87.2604 252.427 92.6937C256.887 95.2384 260.17 100.018 261.647 105.291C263.474 111.802 261.668 118.187 258.374 123.711C254.378 130.417 249.309 136.492 244.312 142.292C239.212 148.207 233.781 153.778 228.082 158.982C216.25 169.803 203.282 179.087 189.468 186.446C169.995 196.82 144.648 205.543 124.03 193.908C112.869 187.615 105.972 175.213 103.877 161.756C101.595 147.095 104.568 132.503 110.092 119.138C115.791 105.337 123.844 92.7168 132.249 80.8186C140.849 68.6454 150.327 57.2055 160.837 47.0382C181.249 27.2767 206.111 11.5956 233.265 7.48053C256.165 4.00737 280.489 9.07396 300.406 22.233C320.332 35.4035 334.539 56.6779 338.204 82.2968C342.117 109.624 335.241 137.547 324.513 162.019C312.279 189.942 294.737 214.564 275.265 236.675C254.74 259.978 231.933 280.783 208.909 300.934C184.016 322.713 158.37 343.414 132.032 362.981C112.652 377.378 91.2186 393.345 67.1313 394.457C55.5987 394.984 44.2209 391.214 34.9598 383.534C25.2236 375.452 18.1617 363.978 13.4536 351.656C3.81044 326.438 4.14073 297.919 9.61278 271.567C15.2603 244.412 26.6794 218.885 40.7518 195.926C56.0942 170.88 74.7817 147.897 97.2171 130.474C108.657 121.591 121.077 114.266 134.303 109.246C140.56 106.873 147.013 104.924 153.559 103.801C159.826 102.723 166.475 102.563 172.215 105.979C182.674 112.191 185.234 127.242 184.76 139.266C184.202 153.697 179.504 167.945 173.723 180.749C167.941 193.553 159.929 205.852 150.626 216.226C141.881 225.969 131.474 234.967 120.076 240.526C110.391 245.249 99.1892 247.587 89.546 241.524C90.0622 242.945 90.5784 244.355 91.0947 245.776C94.3263 239.277 97.5579 232.789 100.789 226.29C102.607 222.645 97.2171 220.134 95.4103 223.757L95.4206 223.803Z" fill="#44403B"/>
<path d="M103.464 234.784C120.097 234.05 134.52 223.31 145.361 209.933C155.789 197.061 164.183 180.921 165.845 163.453C166.588 155.601 165.938 147.279 162.572 140.218C159.258 133.272 153.682 127.792 146.93 125.271C133.343 120.193 118.207 125.775 106.592 133.971C77.745 154.34 59.0471 192.12 55.9911 229.591C54.5353 247.404 57.3745 266.363 69 279.614C79.7376 291.856 95.2762 297.014 110.36 297.06C127.933 297.106 144.483 289.151 159.175 279.007C175.467 267.762 190.531 253.984 205.429 240.618C233.306 215.607 260.233 186.423 271.951 147.817C277.134 130.727 279.405 111.814 276.05 94.001C274.202 84.1775 270.578 74.6748 264.187 67.4076C258.653 61.1146 251.488 57.1027 243.827 55.0623C226.708 50.5002 209.353 57.0796 194.785 66.9604C178.358 78.102 163.966 93.3704 152.805 110.748C143.616 125.053 134.799 143.45 141.045 161.263C143.74 168.931 149.14 175.889 156.388 178.365C164.172 181.024 172.122 178.388 179.277 174.789C188.156 170.33 196.839 165.355 205.605 160.621C214.371 155.887 222.816 151.887 230.818 146.419C237.58 141.811 244.229 135.22 246.284 126.371C247.771 119.94 246.201 112.662 242.691 107.366C239.377 102.368 233.956 99.1703 228.319 100.626C224.695 101.566 225.315 108.008 228.97 107.068C233.781 105.83 237.591 109.372 239.511 114.072C241.999 120.193 241.111 126.302 237.498 131.609C232.748 138.601 225.304 142.751 218.377 146.522C210.138 150.993 201.888 155.44 193.639 159.899C186.288 163.877 178.967 168.53 171.183 171.396C164.482 173.872 157.513 173.654 152.062 168.221C140.354 156.541 144.917 137.478 151.721 124.388C160.373 107.767 172.659 93.0725 186.298 81.3692C199.121 70.3766 214.257 60.6674 230.849 60.0599C246.232 59.5097 260.749 67.74 267.078 83.7417C273.231 99.3079 272.705 117.728 269.411 134.028C262.339 169.092 240.895 197.771 217.231 221.086C203.901 234.222 189.736 246.338 175.56 258.305C162.056 269.711 147.859 280.68 131.609 286.629C118.021 291.604 102.875 292.223 89.3601 286.572C75.9588 280.967 66.1194 269.241 62.8878 253.617C59.491 237.214 62.2065 219.481 66.8216 203.697C71.7051 187.019 79.4279 171.385 89.9487 158.248C99.3854 146.465 111.393 135.953 125.228 131.563C137.008 127.826 151.298 129.901 157.41 143.186C163.635 156.701 159.113 173.86 153.187 186.481C146.528 200.648 135.852 214.048 123.194 221.843C116.896 225.729 109.989 227.998 102.782 228.319C99.0137 228.491 99.6951 234.933 103.433 234.761L103.464 234.784Z" fill="#44403B"/>
<path d="M154.601 347.128C149.997 341.638 151.122 333.546 152.165 326.771C153.29 319.458 155.035 312.294 157.379 305.348C159.722 298.401 162.479 291.959 165.835 285.747C169.314 279.316 173.382 271.521 179.608 268.014C182.932 266.134 180.836 260.082 177.481 261.973C170.326 266.008 165.731 273.573 161.643 280.99C157.678 288.177 154.323 295.742 151.721 303.662C149.119 311.583 147.188 319.756 146.063 328.066C145 335.849 144.762 344.848 149.924 351.003C152.454 354.029 157.162 350.177 154.601 347.128Z" fill="#44403B"/>
<path d="M210.158 301.392C203.819 297.346 202.662 287.729 202.642 280.393C202.621 273.057 203.674 265.285 205.574 258.11C209.404 243.667 216.714 230.381 226.77 220.248C229.527 217.463 226.068 212.248 223.281 215.056C211.655 226.782 203.406 241.947 199.39 258.797C195.755 274.042 193.381 298.125 207.876 307.376C211.129 309.45 213.379 303.467 210.158 301.404V301.392Z" fill="#44403B"/>
<path d="M282.647 226.462C273.83 227.059 266.427 219.207 263.216 210.678C259.066 199.629 260.583 187.054 261.936 175.546C262.421 171.408 256.65 170.468 256.154 174.617C254.595 187.857 253.026 202.643 258.601 215.046C263.278 225.442 272.416 233.638 283.298 232.905C287.056 232.652 286.385 226.21 282.647 226.462Z" fill="#44403B"/>
<path d="M331.204 137.924C326.382 143.403 321.096 149.329 314.055 150.876C308.438 152.114 302.646 150.808 297.587 147.977C285.466 141.191 280.118 125.808 278.879 111.617C278.517 107.456 272.715 108.19 273.076 112.34C274.542 129.258 281.481 146.635 295.935 154.292C301.892 157.444 308.882 158.728 315.376 157.158C323.822 155.129 329.955 148.527 335.809 141.89C338.431 138.921 333.806 134.955 331.194 137.912L331.204 137.924Z" fill="#44403B"/>
<path d="M325.887 50.6262C322.985 59.269 319.041 67.3615 313.982 74.6747C309.212 81.5751 303.4 88.5902 295.811 91.5361C283.029 96.4994 271.001 84.8306 267.243 71.9238C266.086 67.9463 260.645 70.3305 261.802 74.2851C265.24 86.0801 274.233 96.4995 285.466 98.792C299.765 101.703 311.525 89.2207 319.361 77.5403C324.348 70.1011 328.354 61.8598 331.266 53.1712C332.577 49.2739 327.208 46.7178 325.887 50.638V50.6262Z" fill="#44403B"/>
<path d="M55.7018 391.867C43.2504 382.422 36.5909 366.225 36.3018 349.707C35.9921 331.848 44.3344 315.182 56.5794 304.017C63.7653 297.461 72.0767 292.784 81.0281 290.033C84.6521 288.921 82.4942 282.892 78.9012 283.993C61.6075 289.3 46.2032 302.034 37.417 319.492C29.1883 335.838 28.2694 355.931 34.8565 373.159C38.5011 382.696 44.3861 391.11 52.1089 396.979C55.196 399.317 58.8095 394.228 55.6915 391.855L55.7018 391.867Z" fill="#44403B"/>
<path d="M14.073 256.826C16.5613 251.381 19.4831 246.234 22.8593 241.409C26.2767 236.526 30.1691 231.402 35.2592 228.628C38.9863 226.599 43.4981 225.728 47.4008 227.642C51.0454 229.431 53.2963 233.775 52.429 238.142C51.6134 242.223 57.4054 243.128 58.2108 239.07C59.3774 233.201 56.8479 227.023 52.5529 223.516C47.8862 219.71 41.7636 219.378 36.3638 221.177C29.849 223.344 24.6867 228.812 20.402 234.451C15.7973 240.515 11.9254 247.22 8.69383 254.281C6.99027 258.006 12.3695 260.528 14.073 256.814V256.826Z" fill="#44403B"/>
<path d="M219.791 53.984C211.851 54.901 203.757 49.0204 201.558 40.4349C199.4 32.0443 203.602 22.2098 210.643 18.4959C214.03 16.7192 211.924 10.667 208.517 12.4551C198.626 17.6591 193.092 30.4628 195.972 42.2578C198.801 53.8465 209.828 61.6638 220.442 60.4373C224.189 60.0017 223.529 53.5596 219.791 53.9952V53.984Z" fill="#44403B"/>
</svg>
