<svg width="1531" height="838" viewBox="0 0 1531 838" fill="none" xmlns="http://www.w3.org/2000/svg">
<path d="M917.082 703.812C1317.82 557.414 1577.83 309.639 1497.83 150.392C1417.83 -8.85596 1028.11 -19.273 627.363 127.125C226.621 273.523 -33.3887 521.298 46.6147 680.545C126.618 839.793 516.339 850.21 917.082 703.812Z" fill="#332E7F"/>
<path d="M709.278 102.875C701.598 93.143 703.959 79.354 713.026 71.1288C717.74 66.8606 724.14 64.2804 731.067 64.3734C737.994 64.4664 745.114 67.066 750.508 71.0991C756.611 75.6611 760.838 82.2298 760.864 89.2528C760.88 91.1231 764.006 91.8065 764.715 89.9188C769.215 77.7283 774.339 64.2497 786.269 55.9868C791.35 52.4683 797.188 50.541 803.782 50.9236C809.51 51.259 815.209 53.0859 819.715 56.2385C824.222 59.3911 827.275 64.528 825.806 69.714C825.204 71.8241 828.69 72.9033 829.554 70.8302C834.257 59.517 841.653 47.6214 854.099 41.4841C859.773 38.6932 866.149 37.2857 872.688 38.4632C878.717 39.5446 884.454 42.3655 888.558 46.3739C892.975 50.6843 895.039 56.3255 892.698 61.7945L896.445 62.9107C899.652 51.4931 903.499 38.4687 914.26 30.5981C918.94 27.183 924.424 25.2253 930.635 26.1228C936.166 26.9262 941.501 29.6112 945.12 33.3423C948.738 37.0734 950.018 42.102 946.497 46.2528L950.026 47.7673C957.199 34.6511 965.626 19.8023 980.778 12.3764C987.576 9.04272 994.968 7.61107 1002.61 9.76086C1009.27 11.6289 1015.5 15.5706 1019.32 20.7032C1021.23 23.2813 1022.71 26.2685 1022.79 29.362C1022.87 32.4555 1021.54 35.3808 1019.19 37.7834L1022.5 39.6849C1034.67 24.311 1053.3 13.1079 1074.26 8.59797L1072.37 8.05046C1080.55 14.8915 1081.75 26.5841 1075.03 34.3446L1078.34 36.2462C1086.31 24.9063 1097.32 13.7887 1112.2 9.22028C1119.02 7.1304 1126.31 6.59368 1133.33 8.53858C1139.93 10.3575 1145.91 13.9105 1150.19 18.6576C1154.76 23.7403 1156.81 30.2233 1154.47 36.3878L1158.26 36.595C1156.33 23.1986 1166.75 10.1915 1180.69 5.20709C1187.84 2.645 1195.85 2.52323 1203.18 4.8952C1210.53 7.26859 1216.95 11.9391 1221.25 17.6225C1226.18 24.1153 1228.47 31.8433 1226.9 39.4743C1226.56 41.12 1229.66 41.9843 1230.53 40.5385C1236.83 29.8598 1248.12 19.8863 1262.49 18.2882C1268.69 17.6009 1274.7 18.795 1279.75 22.1368C1284.24 25.1061 1287.72 29.4797 1289.23 34.1786C1290.85 39.2256 1290.08 44.6432 1285.69 48.393L1288.68 50.631C1297.37 41.3364 1307.76 30.573 1322.09 28.1403C1327.93 27.1481 1333.35 27.9 1338.22 31.0492C1342.38 33.7385 1345.69 37.7721 1347.03 42.12C1348.38 46.4679 1347.41 51.3509 1342.6 53.8467L1344.84 56.6592C1359.39 47.5473 1376.4 41.5682 1394.22 39.155L1392.04 38.2497C1399.63 48.3417 1399.47 61.8862 1391.52 71.586C1390.41 72.9386 1392.4 74.9276 1394.09 74.0626C1405.87 68.094 1419.87 62.9193 1433.93 65.1455C1444.47 66.8151 1453.35 73.9679 1455.77 83.0941C1457.02 87.7672 1456.12 92.4598 1452.65 96.1802C1451.25 97.6882 1454.04 99.721 1455.64 98.4176C1463.93 91.6545 1477.61 91.5695 1486.99 97.0971C1496.81 102.888 1498.77 113.892 1494.17 122.783C1491.61 127.738 1486.99 131.715 1481.1 133.616C1479.04 134.279 1480.32 137.347 1482.46 136.814C1494.79 133.736 1509.71 136.044 1518.96 144.334C1523.13 148.072 1525.85 152.848 1526.1 158.049C1526.35 162.941 1524.84 167.851 1521.79 171.936C1518.38 176.492 1513.14 179.672 1506.79 180.158C1504.58 180.333 1504.92 183.52 1507.13 183.539C1518.12 183.58 1525.08 192.566 1526.76 201.149C1528.91 212.107 1521.62 221.786 1512.93 228.994C1507.45 233.528 1501.28 237.387 1495.1 241.176C1494.12 241.783 1494.31 243.378 1495.35 243.879C1505.83 248.931 1512.76 258.873 1513.34 269.175C1513.93 279.477 1507.21 289.758 1496.58 295.059C1490.65 298.018 1483.86 299.471 1476.95 298.969L1477.3 302.351C1490.11 300.508 1499.99 311.443 1501.72 321.431C1503.78 333.353 1493.37 342.987 1481.61 347.395C1474.45 350.082 1466.49 351.163 1458.67 350.782C1456.39 350.669 1455.92 353.379 1457.96 354.106C1471.06 358.708 1473.73 372.692 1470.38 383.19C1468.44 389.262 1464.58 394.512 1458.9 398.43C1451.73 403.362 1442.94 406.155 1433.99 407.695C1423.56 409.486 1412.85 409.687 1402.22 409.62C1400.71 409.607 1399.7 410.873 1400.37 412.095C1412.28 433.605 1394.94 459.879 1370.91 467.698C1364.05 469.935 1356.61 470.463 1349.37 469.248C1347.83 468.993 1346.92 470.675 1347.52 471.723C1356.53 487.124 1341.64 505.883 1323.9 509.555C1318.65 510.636 1313.27 510.331 1308.23 508.54C1306.69 508 1305.54 509.316 1305.69 510.51C1307.39 523.974 1301.5 537.809 1290.71 547.354C1279.27 557.468 1262.86 561.804 1246.6 559.914C1237.35 558.839 1228.49 555.688 1221.05 550.746C1219.7 549.851 1217.57 551.103 1218.05 552.509C1222.48 565.528 1219.35 579.868 1210.26 590.691C1201.17 601.514 1185.85 607.654 1170.18 607.449C1161.4 607.334 1152.66 605.353 1145.05 601.427C1143.28 600.51 1141.46 602.029 1142.23 603.61C1151.47 622.785 1129.53 643.269 1108.1 644.846C1101.87 645.304 1095.62 644.017 1090.3 641.071C1088.14 639.882 1086.04 642.651 1088.16 643.906C1097.73 649.581 1095.06 660.846 1089.32 667.759C1086.15 671.587 1081.59 674.815 1076.27 676.108C1068.24 678.053 1059.46 676.73 1051.72 674.279C1041.88 671.166 1032.99 666.133 1024.33 661.078C1023.21 660.424 1021.16 661.053 1021.28 662.393C1022.72 677.655 1015.99 693.007 1003.56 703.682C990.478 714.903 971.916 719.623 953.604 717.336C943.315 716.056 933.441 712.497 925.149 706.983C924.093 706.287 922.598 706.878 922.203 707.848C917.023 720.412 911.48 733.845 900.019 743.183C895.192 747.114 889.597 749.909 883.048 751.102C877.178 752.172 870.912 752.036 865.152 750.376C858.872 748.563 853.722 744.885 851.168 739.525C850.388 737.887 847.555 738.599 847.442 740.188C846.409 754.768 835.335 767.899 820.266 774.03C805.198 780.161 786.741 777.638 773.165 768.735C765.684 763.824 759.741 757.048 756.79 749.319C756.144 747.619 752.87 747.487 752.889 749.562C753.017 763.635 745.346 777.169 732.862 785.948C720.254 794.813 703.141 797.595 687.291 794.143C678.344 792.195 669.918 788.418 663.155 782.908C662.019 781.98 660.423 782.246 659.816 783.479C653.105 797.293 638.236 806.535 621.793 810.334C605.364 814.122 586.759 813.095 571.39 806.147C562.798 802.27 555.386 796.588 550.322 789.392C549.111 787.673 546.386 788.585 546.65 790.514C548.588 804.994 539.898 819.828 526.079 827.703C511.988 835.723 493.746 835.297 479.124 827.934C471.018 823.844 464.321 817.859 460.321 810.493C459.734 809.413 457.574 809.158 456.918 810.308C449.713 822.807 435.567 830.618 419.948 833.333C404.487 836.023 387.383 834.064 373.648 826.886C365.934 822.851 359.522 817.189 355.327 810.269C354.674 809.185 352.658 808.95 351.924 810.084C345.409 820.067 333.683 826.301 320.818 828.517C307.98 830.734 293.831 829.187 282.297 823.44C275.844 820.226 270.33 815.742 266.522 810.177C266.095 809.55 265.198 809.068 264.344 809.272C243.154 814.328 219.644 819.861 197.797 813.528C182.878 809.203 171.081 797.411 168.709 783.877C167.503 776.995 169.431 769.93 175.029 764.901C176.775 763.332 174.373 760.99 172.375 762.34C162.538 768.973 149.342 769.29 137.812 765.64C126.283 761.99 115.705 754.425 110.469 744.599C107.6 739.199 106.588 733.125 107.958 727.329C108.455 725.225 105.077 724.106 104.21 726.213C99.2741 738.186 83.5437 744.862 69.2888 743.093C54.1823 741.231 44.5943 729.047 44.4675 716.398C44.4027 709.373 47.1041 702.374 52.9217 697.436L49.9337 695.199C42.4273 703.794 28.0718 699.762 20.1497 693.516C15.5637 689.892 12.0808 685.131 11.2129 679.783C9.97164 672.101 12.7076 664.226 16.7368 657.527C21.635 649.393 28.4294 642.252 35.3297 635.344C36.2497 634.426 36.162 632.893 34.6182 632.444C20.152 628.269 8.85389 617.235 5.12 604.515C1.38611 591.795 6.33991 578.296 17.0764 569.193C23.1698 564.031 30.8268 560.402 39.2821 559.051C40.8374 558.805 41.187 557.229 40.305 556.246C30.2368 544.891 24.466 527.477 33.2773 514.53C36.6585 509.562 41.8312 506.3 48.3808 505.095C54.2516 504.014 60.5623 504.529 66.0999 506.655C72.1281 508.967 76.4574 513.433 77.0533 519.176L80.0487 517.413C64.8987 506.931 57.0144 489.608 58.5975 473.155C60.1806 456.702 72.8395 441.833 90.3147 434.579C100.212 430.469 111.347 428.796 122.334 430.08C123.735 430.248 124.486 429.035 124.357 428.025C122.187 411.036 119.994 392.769 127.752 376.676C133.62 364.526 146.805 355.477 162.188 354.207C169.879 353.567 177.774 355.48 183.46 360.213C184.695 361.237 186.753 360.723 186.889 359.191C188.269 343.08 194.647 325.703 209.679 315.41C216.29 310.892 224.114 308.32 232.639 308.58C240.362 308.819 248.069 311.041 254.361 315.032C261.112 319.322 265.699 325.819 265.444 333.146L269.345 332.902C265.056 317.325 264.721 299.548 274.226 285.487C278.312 279.43 283.98 274.587 291.302 271.533C298.031 268.731 305.678 267.461 313.181 268.11C321.393 268.809 329.056 272.065 334.118 277.836C335.272 279.141 337.331 278.125 337.547 276.815C341.081 256.022 345.329 232.51 362.993 216.969C366.592 213.802 370.562 211.078 375.25 209.225C379.385 207.581 383.866 206.618 388.409 206.193C397.112 205.368 406.519 206.634 414.347 210.253C422.728 214.13 428.992 220.81 429.416 229.222C429.521 231.394 433.408 231.652 433.358 229.438C432.973 211.623 434.107 190.585 448.72 176.861C451.72 174.049 455.094 171.623 459.172 170.079C462.603 168.784 466.397 168.079 470.148 167.931C477.742 167.638 485.653 169.244 492.095 172.924C498.906 176.818 503.037 182.982 501.82 190.074C501.494 191.949 505.253 192.621 505.671 190.74C509.787 172.066 514.744 150.781 531.653 137.489C535.205 134.697 539.229 132.203 543.813 130.801C547.886 129.564 552.26 129.107 556.587 129.275C565.017 129.587 573.523 132.148 580.176 136.774C586.829 141.401 590.957 148.819 588.532 156.312L592.33 156.52C589.02 140.369 591.84 121.293 605.503 109.283C611.469 104.035 619.006 100.685 627.654 100.382C635.432 100.099 643.427 101.858 650.039 105.558C657.097 109.511 662.223 115.798 662.32 123.201L666.221 122.958C664.72 109.893 663.366 94.1346 673.096 83.1983C677.069 78.7302 682.348 76.1685 689.008 76.5661C694.578 76.8929 700.342 78.9744 704.399 82.3874C708.457 85.8005 710.338 90.6906 706.832 95.0361C705.391 96.8268 708.7 98.7284 710.142 96.9376C713.846 92.3408 713.355 86.8426 709.542 82.3258C705.73 77.809 699.32 74.7692 693.056 73.6295C686.192 72.3886 679.127 73.371 673.857 77.4492C667.308 82.5176 663.888 89.6374 662.377 97.044C660.608 105.804 661.341 114.816 662.362 123.648C662.587 125.564 666.277 125.321 666.263 123.405C666.068 107.652 648.095 97.7124 631.424 96.9851C622.247 96.5869 613.619 98.9316 606.51 103.867C598.442 109.468 593.035 117.505 590.118 126.043C586.684 136.081 586.372 146.87 588.496 157.222C588.841 158.871 591.771 159.031 592.293 157.429C594.702 149.992 592.148 142.466 585.998 136.83C579.609 130.987 570.613 127.51 561.574 126.276C551.959 124.965 542.28 126.522 534.31 131.297C524.556 137.136 517.773 145.748 513.022 155.053C507.43 166.01 504.528 177.877 501.937 189.624L505.788 190.291C508.439 174.796 489.888 165.303 474.3 164.544C465.651 164.118 456.847 166.065 450.192 170.9C441.561 177.154 436.175 186.024 433.215 195.347C429.731 206.305 429.18 217.856 429.429 229.223L433.371 229.438C432.501 211.574 411.351 202.372 392.85 202.571C382.803 202.672 372.819 205.228 365.02 210.73C354.959 217.841 348.149 227.683 343.625 238.139C338.287 250.455 335.831 263.601 333.619 276.6L337.048 275.579C326.788 263.883 307.934 262.352 293.15 267.131C285.141 269.726 278.343 274.279 273.39 280.278C267.674 287.216 264.495 295.489 263.23 303.935C261.744 313.782 262.837 323.93 265.498 333.605C266.004 335.456 269.332 335.33 269.399 333.362C269.942 317.855 253.042 307.323 236.724 305.452C227.753 304.427 218.926 306.066 211.347 310.2C202.762 314.884 196.227 321.857 191.741 329.694C186.553 338.781 183.831 348.822 182.962 358.954L186.391 357.933C174.454 347.98 156.432 349.322 143.237 356.136C136.389 359.672 130.464 364.65 126.665 370.746C121.626 378.815 119.338 387.901 118.68 397.052C117.92 407.6 119.186 418.201 120.524 428.704L122.547 426.649C101.727 424.202 80.503 432.049 67.3381 445.807C54.0899 459.641 51.2412 479 58.2088 495.977C62.1063 505.457 68.7875 513.914 77.9185 520.226C79.455 521.29 81.0541 519.759 80.9139 518.463C79.5688 505.68 63.2205 500.012 50.2591 501.345C43.2088 502.066 36.5962 504.908 32.2201 509.753C26.4833 516.108 24.4908 524.366 25.2799 532.366C26.2129 541.832 30.6971 550.946 37.3886 558.492L38.4115 555.686C22.2454 558.269 8.63145 568.664 2.79907 581.842C-3.0333 595.02 0.518658 610.59 10.9447 621.908C16.742 628.209 24.5659 633.116 33.3884 635.66L32.6769 632.76C19.9082 645.537 5.42378 660.773 7.18632 678.948C8.35024 690.946 20.7184 701.208 34.1682 703.241C41.5529 704.362 48.732 702.246 53.2444 697.078C54.5801 695.543 51.8449 693.502 50.2564 694.84C38.5936 704.736 37.5576 721.789 46.304 733.699C50.7323 739.732 57.5524 744.196 65.5912 745.889C73.63 747.581 82.098 746.721 89.5677 743.868C97.9395 740.666 104.848 734.808 107.96 727.295L104.212 726.178C101.419 738.006 107 749.721 116.902 758.081C126.804 766.441 140.233 771.756 153.842 771.359C161.603 771.133 168.93 768.968 175.032 764.855L172.378 762.294C160.612 772.88 163.339 789.078 172.383 800.594C177.127 806.632 183.48 811.687 191.111 814.828C201.59 819.138 213.673 820.128 225.042 819.483C238.764 818.705 252.066 815.714 265.231 812.568L263.054 811.663C270.475 822.498 283.398 829.347 297.42 831.777C311.441 834.206 326.49 832.519 338.69 826.312C345.535 822.821 351.337 817.94 355.249 811.941L351.846 811.755C359.885 825.029 375.274 833.551 391.902 836.51C408.53 839.47 426.73 837.522 441.184 829.841C449.26 825.551 455.993 819.536 460.23 812.164L456.827 811.978C464.539 826.18 481.756 835.726 499.575 836.915C518.168 838.157 535.349 829.292 544.325 815.488C549.389 807.694 551.696 798.746 550.5 789.767L546.827 790.889C556.675 804.842 573.928 812.999 592.244 815.218C610.56 817.437 629.714 813.957 644.628 804.843C652.999 799.726 659.588 792.733 663.58 784.539L660.241 785.109C673.199 795.664 691.464 800.514 708.892 798.467C726.24 796.439 741.269 786.932 749.642 773.801C754.312 766.464 756.926 758.172 756.847 749.721L752.946 749.964C758.663 764.98 774.198 776.623 791.98 779.918C800.996 781.584 810.157 781.058 818.717 778.277C827.196 775.514 834.619 770.63 840.299 764.579C846.735 757.738 850.77 749.238 851.4 740.347L847.674 741.01C852.947 752.093 867.605 756.141 880.324 754.897C887.267 754.216 893.77 751.915 899.256 748.236C905.754 743.871 910.788 738.071 914.751 731.87C919.405 724.589 922.745 716.746 925.967 708.909L923.02 709.774C938.624 720.155 959.713 723.711 978.529 719.654C997.119 715.653 1012.05 704.088 1019.84 689.102C1024.12 680.855 1026.09 671.649 1025.24 662.564L1022.19 663.879C1037.67 672.92 1057.01 683.687 1076.45 679.572C1088.5 677.027 1097.86 666.493 1098.5 655.835C1098.84 649.961 1096.05 644.405 1090.33 641.027L1088.19 643.862C1110.78 656.346 1141.43 640.396 1147.31 619.856C1149.02 613.897 1148.52 607.761 1145.77 602.036L1142.94 604.219C1157.69 611.817 1176.1 612.787 1191.76 607.361C1207.42 601.935 1218.55 589.912 1222.45 575.888C1224.65 567.995 1224.62 559.626 1221.94 551.752L1218.94 553.515C1233.04 562.878 1252.16 565.974 1269.08 562.087C1285.74 558.265 1298.93 547.609 1305.54 533.961C1309.22 526.354 1310.61 518.017 1309.58 509.765L1307.03 511.734C1327.98 519.135 1350.73 503.119 1353.87 485.383C1354.78 480.201 1353.81 474.87 1351.05 470.16L1349.2 472.635C1363.41 475.018 1377.67 470.552 1388.32 462.596C1398.97 454.639 1406.52 443.105 1407.94 430.804C1408.74 423.883 1407.38 416.855 1403.88 410.531L1402.03 413.007C1421.83 413.153 1443.5 412.409 1460 402.013C1472.49 394.134 1478.61 379.524 1474.46 366.349C1472.27 359.401 1467.01 353.597 1459.19 350.856L1458.48 354.18C1473.65 354.917 1490.1 350.434 1499.59 339.861C1504.14 334.797 1506.48 328.622 1505.78 322.154C1505.11 316.145 1502.03 310.197 1497.24 305.741C1491.84 300.716 1484.29 297.853 1476.43 298.986C1474.19 299.309 1474.59 302.203 1476.77 302.367C1490.35 303.348 1503.85 297.382 1511.36 287.749C1518.87 278.117 1519.01 265.426 1512.84 255.013C1509.41 249.218 1504.1 244.22 1497.5 241.033L1497.75 243.737C1509.49 236.535 1521.75 228.723 1527.97 217.105C1533.1 207.514 1531.72 195.641 1523.77 187.273C1519.67 182.969 1513.76 180.161 1507.31 180.128L1507.65 183.51C1520.91 182.478 1529.53 171.15 1530.04 160.304C1530.64 147.581 1519.57 137.459 1506.04 133.792C1498.12 131.649 1489.49 131.487 1481.58 133.472L1482.94 136.669C1495.21 132.71 1502.04 120.636 1500.26 109.607C1498.39 97.9693 1486.16 90.2118 1473.07 89.7484C1465.72 89.484 1458.33 91.4866 1452.98 95.8567L1455.97 98.0941C1463.4 90.1102 1460.25 78.7673 1453.18 71.2797C1449.5 67.3745 1444.56 64.2667 1439 62.7551C1431.69 60.7717 1423.9 60.8704 1416.53 62.2809C1407.92 63.9195 1399.83 67.1944 1392.28 71.0228L1394.85 73.4999C1403.53 62.9055 1403.85 47.7852 1395.55 36.7197C1395.05 36.0425 1394.3 35.6828 1393.37 35.8144C1374.85 38.326 1357.31 44.6414 1342.22 54.0996C1340.43 55.2218 1342.55 57.9021 1344.46 56.9121C1356.1 50.8674 1351.65 37.4137 1343.35 30.4177C1338.8 26.5903 1332.89 24.0793 1326.51 24.2899C1318.41 24.5656 1311.07 27.4593 1304.67 31.5788C1297.24 36.3484 1291.2 42.5498 1285.41 48.731C1284.01 50.2277 1286.82 52.3079 1288.39 50.969C1298.11 42.6652 1293.92 29.1225 1284.88 21.5046C1279.82 17.2507 1273.43 14.7821 1266.41 14.7182C1258.56 14.6431 1251.13 17.0868 1244.79 20.8903C1237.34 25.3737 1231.38 31.6712 1227.27 38.6509L1230.9 39.7157C1234.02 24.6682 1222.93 9.13013 1207.21 2.69863C1191.5 -3.73287 1172.22 1.86067 1161.89 13.87C1156.13 20.5662 1153.26 28.9362 1154.48 37.3237C1154.73 39.0584 1157.71 39.0273 1158.28 37.5309C1163.27 24.4442 1151.84 11.8059 1138.39 6.59233C1122.66 0.490417 1105.66 5.98028 1093.44 15.0706C1086.12 20.5187 1080.11 27.2468 1075.1 34.371C1073.77 36.2477 1076.9 38.0142 1078.41 36.2725C1082.36 31.7007 1083.89 25.9026 1083.24 20.2132C1082.91 17.4257 1082.02 14.6756 1080.62 12.1368C1079.94 10.8913 1079.09 9.7167 1078.16 8.60599C1077.33 7.61465 1075.91 5.72423 1074.51 5.32858C1073.1 4.93292 1070.92 5.83988 1069.53 6.18582C1067.74 6.64662 1065.97 7.15441 1064.22 7.69692C1060.72 8.78266 1057.29 10.0657 1053.97 11.5145C1047.49 14.3526 1041.38 17.8606 1035.83 21.901C1029.51 26.5142 1023.91 31.8857 1019.24 37.7862C1017.79 39.6331 1020.98 41.3115 1022.55 39.6878C1027.48 34.6334 1027.82 27.8929 1024.64 21.9288C1021.31 15.6826 1014.85 10.7595 1007.75 7.85276C999.953 4.65729 991.76 4.57488 983.889 7.29145C975.186 10.2932 968.158 15.9056 962.503 22.2197C955.85 29.6649 950.958 38.1636 946.33 46.6539C945.335 48.469 948.619 49.6287 949.859 48.1689C958.227 38.2754 946.482 26.9766 935.472 23.7085C928.91 21.7546 922.151 22.2062 916.24 25.2349C909.637 28.6134 904.789 33.9117 901.358 39.7773C897.29 46.7137 894.875 54.2647 892.749 61.8202C892.16 63.931 895.606 65.0079 896.497 62.9363C901.615 51.0075 889.754 39.668 877.209 36.0311C870.229 34.0088 863.187 34.343 856.468 36.7121C849.212 39.2798 843.216 43.8655 838.434 49.1444C832.881 55.2703 828.892 62.4274 825.844 69.7501L829.592 70.8668C832.941 59.001 820.326 50.1169 808.026 48.0322C801.196 46.873 794.236 47.6442 788.271 50.6928C781.221 54.2977 775.822 59.7824 771.772 65.8877C767.018 73.0718 763.885 80.9713 760.978 88.8489L764.829 89.5149C764.752 75.2279 750.41 62.9893 734.389 61.2146C718.369 59.4399 704.744 70.027 701.534 83.2112C699.77 90.4216 700.873 98.2213 705.791 104.451C707.222 106.251 710.731 104.744 709.288 102.921L709.278 102.875Z" fill="#332E7F"/>
</svg>
