<svg width="252" height="637" viewBox="0 0 252 637" fill="none" xmlns="http://www.w3.org/2000/svg">
<path d="M48.6512 268.051C20.1144 209.367 60.5942 134.429 132.531 112.754C104.815 91.9289 99.2734 53.85 120.228 28.2038C141.183 2.55766 186.024 -7.46473 219.782 5.96849C230.155 10.0995 239.637 16.341 244.988 24.763C269.524 63.3523 196.027 105.162 209.98 147.192C215.451 163.696 233.336 175.219 242.948 190.373C267.674 229.392 232.265 274.273 213.421 315.472C181.503 385.259 198.567 463.018 216.021 536.216C220.723 555.911 225.414 575.605 230.115 595.3C232.645 605.912 234.926 617.745 227.884 626.857C218.022 639.63 193.726 639.74 179.153 630.538C164.579 621.336 157.857 606.032 153.816 591.259C140.673 543.107 148.325 492.105 132.691 444.463C131.441 440.652 129.841 436.622 126.05 434.201C114.237 426.669 100.074 441.693 98.1332 453.916C89.7912 506.418 127.55 565.453 92.3718 609.723C85.4101 618.485 75.0276 626.197 62.4345 627.497C43.67 629.428 26.626 616.055 21.2648 601.071C15.9035 586.088 19.3042 570.044 22.7251 554.69C36.1383 494.546 49.5515 434.401 62.9647 374.247C63.6049 371.366 64.245 368.365 63.2348 365.555C60.7342 358.573 49.0014 356.523 41.1395 359.803C33.2776 363.084 28.4664 369.746 24.0954 376.057C-3.25117 365.365 -4.39144 333.007 6.22111 309.611C16.8337 286.216 35.198 263.68 32.8074 238.774C31.5571 225.691 24.6655 211.848 31.6072 200.035" fill="#FFE1C0"/>
</svg>
