<svg width="253" height="594" viewBox="0 0 253 594" fill="none" xmlns="http://www.w3.org/2000/svg">
<path d="M236.511 229.226C260.038 246.473 258.476 261.588 226.355 259.705C230.661 264.773 239.496 268.599 239.496 276.381C239.496 289.482 217.561 289.492 217.671 292.346C231.653 299.778 235.259 314.733 216.198 316.305C213.965 318.278 224.401 323.857 222.869 329.396C219.984 339.822 205.351 338.33 200.283 341.746C197.999 343.278 196.467 349.688 193.933 352.092C188.905 356.87 184.327 353.294 182.955 363.611C178.969 416.745 187.803 476.561 182.795 528.904C181.713 540.252 179.049 535.965 172.218 540.092C162.382 546.022 183.256 559.363 186.521 562.959C192.841 569.92 193.682 580.136 192.901 589.08C174.352 592.516 133.246 593.548 136.762 565.583C137.953 556.068 145.776 548.966 141.91 540.082C138.114 539.341 132.825 539.621 132.024 534.744C128.759 478.083 124.953 421.443 120.436 364.922C119.704 355.748 121.798 346.002 117.621 337.268L108.196 336.617C106.313 353.695 107.835 371.062 107.425 388.23C106.643 421.352 105.391 455.127 104.4 488.25C104.099 498.205 106.674 529.756 101.635 535.906C98.9312 539.201 95.115 536.416 94.2136 543.387C92.591 556.058 98.7609 552.882 100.874 558.622C112.883 591.204 78.2682 595.601 54.33 593.588C48.4706 593.097 42.7214 592.325 42.0803 585.414C40.4778 568.267 63.6749 557.52 68.1921 542.035C68.162 540.483 56.4534 542.396 55.0812 530.437C52.6874 509.643 54.0494 477.242 53.5987 454.996C52.8375 417.016 53.4986 378.955 52.2165 340.994C42.8716 340.724 29.6105 341.816 20.8766 338.22C16.4395 336.397 16.5496 333.192 13.5548 331.028C11.1209 329.276 7.81567 328.675 5.05125 326.471C-9.82249 314.592 11.782 302.663 23.1701 300.339L6.65379 295.832C-1.62944 289.632 1.81611 280.087 10.2095 276.321C1.53567 264.893 14.1458 259.124 17.3609 251.712C18.7131 248.607 12.1626 249.628 9.5384 247.956C-1.94994 240.664 19.254 217.487 28.8894 216.055C29.3301 210.997 24.6926 207.982 26.3052 202.674C30.1613 189.953 95.8863 173.507 109.478 172.576C143.873 170.212 217.661 184.304 243.702 208.272C253.909 217.667 251.485 229.096 236.531 229.246L236.511 229.226ZM130.562 178.435C118.082 173.136 115.488 181.42 111.701 191.466C115.918 193.609 131.503 179.697 130.562 178.435ZM111.691 178.425C105.862 178.445 95.7961 177.704 90.9183 181.209C85.9804 184.765 79.2597 207.471 65.8984 200.25L65.2473 188.571C63.3142 186.518 35.7503 199.589 32.6554 203.194C30.5019 205.698 30.1614 209.404 33.657 210.827C39.2559 213.11 70.8564 212.129 79.1095 211.848C115.367 210.586 137.272 207.291 174.382 213.701C197.158 217.637 220.675 227.273 243.692 223.327C248.66 213.591 222.889 199.469 216.198 197.846C210.019 196.354 205.221 210.516 194.434 205.247C185.88 201.071 202.907 187.499 184.658 185.967C175.844 185.226 160.55 203.885 148.61 195.902C145.706 191.996 153.568 185.596 155.211 182.031C155.051 179.146 141.379 179.366 138.584 179.897C132.355 181.089 117.901 203.905 106.563 194.4C104.039 190.253 109.117 182.07 111.701 178.435L111.691 178.425ZM82.6551 182.772C74.3519 183.172 69.9448 187.359 69.6143 195.823C74.2216 197.776 84.4279 184.605 82.6551 182.772ZM172.639 182.772C164.646 181.189 157.675 184.955 155.241 192.918C156.373 193.959 176.034 185.636 172.639 182.772ZM205.561 198.307C206.212 197.596 207.725 195.272 206.843 194.34L198.791 191.475L197.338 201.632C198.41 202.754 204.39 199.609 205.571 198.307H205.561ZM60.9004 217.597H35.4999C28.679 217.597 9.85891 234.274 11.6718 242.798C12.8437 246.423 24.6025 245.382 28.2283 245.152C78.4484 241.886 120.876 230.528 172.729 240.013C197.138 244.48 223.941 259.554 247.999 250.84C243.983 223.707 216.359 243.478 206.002 240.223C197.108 237.429 203.087 229.837 208.907 227.032C195.225 218.288 184.067 226.572 171.186 229.917C155.041 234.114 146.988 229.726 161.04 216.165C151.725 214.963 144.203 212.709 135.349 217.307C130.632 219.761 113.124 236.568 107.966 229.296C104.28 224.098 112.212 218.078 110.99 213.26C102.487 216.385 94.9348 212.84 86.5114 217.808C83.777 219.42 82.1644 222.465 79.6804 224.038C69.5542 230.448 47.3989 237.148 60.9004 217.597ZM130.562 213.26C123.21 211.758 114.196 217.307 113.154 224.849C114.536 226.261 129.941 216.726 130.562 213.26ZM79.7605 216.165C72.3887 215.474 65.9886 218.368 62.3428 224.839C69.1837 225.58 76.2549 222.114 79.7605 216.165ZM179.9 219.06C171.557 218.469 165.327 218.098 161.04 226.291C166.619 227.012 172.088 225.049 176.986 222.595C179.029 221.574 180.642 222.946 179.9 219.06ZM224.892 229.216C221.357 228.925 218.172 229.136 214.696 229.917C212.953 230.308 207.755 231.9 208.937 235.005C213.394 235.436 217.661 234.124 221.697 232.471C223.871 231.58 225.633 233.342 224.882 229.216H224.892ZM156.673 242.277C150.704 243.849 142.631 240.013 137.433 241.055C128.078 242.938 93.8631 275.71 105.862 240.815C100.253 243.559 94.2837 241.425 88.4143 242.948C83.817 244.14 77.4869 250.53 72.5189 253.174C69.1436 254.967 57.0143 261.628 55.1914 255.838L56.5234 246.624C39.346 246.353 14.5365 249.208 12.8939 270.351C13.8354 274.488 44.7647 268.559 49.943 268.318C76.3952 267.096 103.328 268.799 129.37 273.186C157.124 277.863 197.609 293.538 224.251 284.434C236.14 280.367 237.122 274.849 227.016 266.966C211.942 255.197 201.465 274.718 192.991 270.622C183.546 266.055 199.392 255.929 198.761 253.164C193.222 248.387 184.327 246.864 177.366 249.168C173.941 250.299 146.647 269.701 146.487 257.551L156.653 242.257L156.673 242.277ZM126.205 240.835C119.033 240.083 109.398 242.016 108.807 250.981C114.686 248.266 122.679 246.734 126.205 240.835ZM75.4036 243.729C69.4641 242.847 61.9721 245.812 60.9004 252.423C64.1356 252.934 66.4693 251.061 69.1235 249.769C71.1968 248.757 76.2749 246.864 75.4036 243.729ZM172.639 245.192C163.785 242.227 158.566 249.038 153.779 255.318L161.09 253.214L172.639 245.192ZM210.379 256.8C206.082 252.703 195.485 263.691 197.338 265.494C200.603 263.641 204.279 262.299 207.524 260.396C209.397 259.294 211.18 260.646 210.379 256.8ZM50.7241 272.755C39.356 276.691 15.9386 272.555 8.54682 283.533C-0.80811 297.445 35.2495 294.089 41.2791 294.53C75.5238 297.074 109.368 296.573 142.871 298.887C164.456 300.37 186.862 310.506 206.763 311.908C211.18 312.218 222.959 313.04 223.54 306.82C221.817 297.355 207.054 291.596 198.37 293.398C191.689 294.781 178.728 307.271 174.301 295.502L178.438 288.741C170.746 288.421 162.733 283.072 155.191 285.015C151.124 286.067 127.757 300.85 129.069 288.09C129.43 284.564 133.907 282.491 133.446 278.574C114.937 271.303 108.506 288.1 92.2605 290.073L90.1171 286.848L95.706 274.228C75.5538 266.565 65.2474 281.439 48.691 287.208C42.3909 282.791 51.4853 278.394 50.7141 272.765L50.7241 272.755ZM108.787 274.208C101.736 272.635 97.629 277.583 97.1984 284.364C98.881 283.933 111.411 276.461 108.787 274.208ZM39.1156 300.329C31.203 302.833 8.3165 308.602 4.96114 316.345C3.44873 319.82 7.54531 324.197 10.6403 323.396C13.7352 322.595 13.0942 314.302 19.274 315.203C23.2103 315.784 23.651 319.54 29.4903 316.125C31.9943 314.662 39.9269 301.14 39.1056 300.339L39.1156 300.329ZM53.6388 300.339C46.6977 299.608 42.0403 304.987 39.1257 310.466C45.0451 310.336 50.4838 304.967 53.6388 300.339ZM81.944 301.772C76.1047 300.87 66.5795 301.772 60.1693 301.772C59.0875 301.772 46.197 314.041 43.5127 315.564C52.4169 318.989 55.4918 318.679 60.3996 327.673C75.2533 328.905 90.3274 329.376 105.151 330.808C113.424 331.61 155.722 337.699 159.558 335.886C161.411 335.015 162.573 331.679 164.987 331.008C165.558 330.848 174.812 329.616 176.315 329.446C179.68 329.075 197.068 328.064 198.41 329.706L200.233 336.607C203.869 336.287 218.362 332.05 217.52 327.362C216.729 322.965 200.133 314.462 195.465 315.103C188.714 316.014 176.315 328.905 167.781 326.311C159.959 323.927 173.911 310.786 172.629 309.044C167 308.633 156.984 304.286 151.906 304.977C143.332 306.129 107.785 337.849 126.195 303.244C121.718 303.615 116.679 302.713 112.322 303.144C104.881 303.875 100.774 311.227 93.3623 314.662C89.8066 316.305 86.1607 317.787 82.1543 317.857C76.8458 314.893 86.2509 304.165 85.5698 303.254C84.0474 303.655 82.7052 301.902 81.944 301.782V301.772ZM100.083 303.244C92.4708 301.592 89.2056 304.897 87.0321 311.938C87.573 312.519 99.9227 306.209 100.083 303.244ZM140.718 303.244C133.787 301.842 128.578 306.65 127.667 313.39C132.054 310.085 138.084 308.483 140.718 303.244ZM185.7 311.948C179.85 310.696 173.821 314.582 172.659 320.652C173.781 320.472 188.975 314.422 185.7 311.948ZM28.9494 332.251L19.5343 320.652C8.71707 337.899 51.816 341.045 53.6789 331.519C54.3099 328.324 53.8692 323.056 49.2919 323.547C48.4406 324.168 48.4306 335.706 44.945 332.24L40.588 322.094C42.3107 325.78 38.4847 333.903 34.7788 330.798C34.3481 330.427 34.258 320.962 30.4218 320.632L28.9394 332.24L28.9494 332.251ZM98.6207 335.175C91.1888 335.345 62.8836 329.486 58.3364 334.043L56.7337 340.393L60.8904 531.839C62.553 540.503 87.2225 536.076 93.9833 534.483L95.7461 532.92L98.6307 335.175H98.6207ZM178.448 335.165L175.173 336.958L174.091 346.783L168.412 346.653L166.83 336.607C164.245 334.564 157.805 353.524 171.888 353.745C183.086 353.925 196.056 348.146 194.404 335.155C190.968 336.567 193.222 345.201 187.903 345.321L187.152 335.145C183.266 336.757 182.685 341.626 182.805 345.311H178.468L178.458 335.155L178.448 335.165ZM176.876 358.522C171.056 358.172 166.609 359.484 161.741 355.498C155.622 350.47 159.728 343.629 156.763 341.605L131.994 339.512L140.698 535.455C153.048 535.956 165.267 538.49 177.076 533.101L176.866 358.522H176.876ZM89.9267 541.244C82.3847 541.925 71.7578 537.738 71.0566 548.505C77.8174 547.243 83.4464 550.699 89.9067 551.41L89.9267 541.244ZM165.387 541.254H147.969L147.989 554.305L163.895 546.272L165.397 541.254H165.387ZM87.0122 584.804C79.1196 587.007 70.6059 585.344 63.0238 586.186C60.8503 586.426 58.5466 586.486 57.9958 589.13C66.299 589.571 74.5923 588.83 82.6852 586.977C84.2978 586.606 87.3727 586.977 87.0122 584.813V584.804Z" fill="#332E7F"/>
<path d="M127.817 51.4421C121.477 63.8019 122.409 79.2868 129.851 90.9955C133.817 97.2355 139.766 102.764 146.928 104.978C154.991 107.472 162.713 104.137 168.943 99.0484C174.983 94.1105 180.171 87.7405 184.288 81.1399C188.414 74.5394 191.499 67.1374 192.591 59.405C193.682 51.6727 193.332 43.0191 188.164 36.8192C183.677 31.4406 176.325 29.3872 169.564 29.1869C152.737 28.6961 136.231 38.1613 126.595 51.6128C125.754 52.7947 126.385 54.5972 127.557 55.2783C128.909 56.0696 130.381 55.4987 131.223 54.3168C138.805 43.7299 151.064 36.3782 164.005 34.8057C169.694 34.1146 175.974 34.5055 180.962 37.6105C186.741 41.2062 187.903 48.0571 187.693 54.3873C187.232 68.2193 179.43 80.8792 170.095 90.6248C165.598 95.3223 159.828 100.43 152.927 100.52C146.347 100.601 140.457 96.0334 136.501 91.1456C128.278 81.0095 126.475 65.805 132.445 54.1564C134.017 51.0915 129.39 48.3775 127.817 51.4524V51.4421Z" fill="#332E7F"/>
<path d="M143.863 43.3991C157.625 44.0502 170.786 48.4872 183.716 52.8742C186.992 53.986 190.277 55.1078 193.572 56.1695C196.517 57.1211 199.492 58.1829 202.537 58.7938C207.675 59.8255 214.075 59.6249 217 54.4867C220.275 48.7175 216.228 42.1672 212.272 37.9505C208.186 33.5936 203.478 29.7575 198.44 26.5524C188.694 20.3325 176.855 16.2458 165.187 17.6481C158.787 18.4093 151.415 20.5825 147.068 25.6506C142.721 30.7187 142.371 38.6013 148.11 42.7179C149.282 43.5592 151.094 42.9283 151.775 41.7564C152.567 40.4042 151.996 38.9322 150.814 38.0909C149.332 37.0292 148.931 34.9054 149.141 33.2027C149.412 31.0192 150.814 29.2165 152.457 27.8543C156.052 24.8695 161.271 23.4071 165.848 22.9363C175.974 21.8846 185.97 25.2202 194.544 30.4385C199.021 33.1629 203.137 36.418 206.873 40.1038C208.676 41.8767 210.369 43.7197 211.601 45.9432C212.583 47.7161 213.464 50.1097 212.252 51.9827C210.129 55.2479 204.68 53.9259 201.625 53.0645C195.716 51.3918 189.926 49.3286 184.117 47.3654C171.036 42.9384 157.765 38.7018 143.873 38.0508C140.427 37.8905 140.437 43.2487 143.873 43.4089L143.863 43.3991Z" fill="#332E7F"/>
<path d="M193.632 21.9854C193.462 21.705 193.292 21.4142 193.142 21.1237C193.092 21.0235 192.811 20.3725 193.011 20.8733C192.801 20.3525 192.631 19.8117 192.501 19.2609C192.45 19.0305 192.4 18.7901 192.36 18.5498C192.21 17.8086 192.36 19.0608 192.33 18.3096C192.3 17.7387 192.27 17.1874 192.29 16.6165C192.3 16.3761 192.33 16.1357 192.34 15.8853C192.38 15.5648 192.37 15.5651 192.34 15.8756C192.36 15.7554 192.38 15.6353 192.4 15.5151C192.501 14.9943 192.611 14.4732 192.761 13.9624C192.841 13.6819 192.931 13.4117 193.021 13.1412C193.051 13.0411 193.362 12.2499 193.152 12.7407C193.362 12.2499 193.602 11.7692 193.863 11.2984C194.494 10.1566 194.854 9.66571 195.525 8.92453C195.856 8.56395 196.196 8.21335 196.567 7.88283C196.807 7.66248 197.058 7.45226 197.308 7.25194C196.948 7.53238 197.449 7.17165 197.549 7.09152C198.019 6.77101 198.5 6.48069 199.001 6.23029C199.101 6.18021 199.752 5.88937 199.241 6.09971C199.462 6.00956 199.692 5.91942 199.922 5.84931C200.463 5.66902 201.004 5.54891 201.565 5.42871C202.296 5.26846 201.074 5.42893 201.825 5.39888C202.156 5.37885 202.487 5.35878 202.817 5.35878C206.263 5.32873 206.273 -0.0299221 202.817 0.000125896C191.148 0.0902698 182.905 14.6937 189.005 24.6997C190.798 27.6444 195.435 24.9499 193.632 21.9952V21.9854Z" fill="#332E7F"/>
<path d="M158.807 81.2099C160.529 78.155 164.997 78.766 167.851 80.2284C172.248 82.472 174.973 87.0793 178.648 90.2444C183.116 94.0905 188.554 95.7231 194.414 94.9819C199.932 94.2808 205.692 91.9571 209.708 88.0108C214.115 83.6739 216.118 76.3021 212.222 70.9636C211.371 69.8017 209.898 69.2208 208.556 70.0021C207.404 70.6732 206.733 72.4962 207.595 73.6681C210.519 77.6645 208.216 82.5521 204.71 85.2965C200.734 88.4115 195.205 90.134 190.187 89.7734C185.169 89.4128 181.603 85.8572 178.298 82.2815C174.993 78.7058 171.717 75.4307 166.95 74.2188C162.222 73.0068 156.753 73.9684 154.189 78.5157C152.487 81.5205 157.124 84.2245 158.817 81.2197L158.807 81.2099Z" fill="#332E7F"/>
<path d="M147.078 73.5875C136.782 67.8483 124.933 69.1903 113.695 70.4022C108.056 71.0132 102.367 71.6039 96.6875 71.2033C93.9632 71.013 91.2789 70.5325 88.6747 69.7112C86.4011 68.99 84.0674 67.9481 83.2961 65.5042C81.333 59.3544 87.8033 55.2081 92.7913 53.7858C96.1066 52.8443 94.6944 47.6659 91.3691 48.6174C85.3795 50.3201 79.2096 54.2666 77.9376 60.8171C77.3467 63.8419 77.6872 67.1371 79.43 69.7513C81.343 72.6058 84.488 74.0579 87.6831 75.0194C99.8426 78.6653 112.553 75.37 124.883 74.749C131.583 74.4084 138.394 74.8894 144.374 78.2247C147.388 79.9074 150.093 75.2799 147.078 73.5972V73.5875Z" fill="#332E7F"/>
<path d="M138.554 59.6351C140.337 61.9288 143.452 62.7199 146.207 62.2893C148.961 61.8586 151.305 59.565 152.146 56.8607C152.567 55.4985 152.577 54.0462 152.286 52.664C152.146 51.9829 151.866 51.2518 151.505 50.6608C151.054 49.9197 150.263 49.2986 149.542 48.8479C148.34 48.1067 146.838 47.716 145.435 47.7661C143.733 47.8162 142.24 48.407 140.918 49.4587C139.746 50.3902 138.885 51.893 138.544 53.3453C138.134 55.1382 138.344 56.8706 139.135 58.5132C139.416 59.0941 140.137 59.5849 140.738 59.7452C141.379 59.9254 142.23 59.8453 142.801 59.4747C144.103 58.6334 144.414 57.1613 143.763 55.8092C143.723 55.7391 143.693 55.669 143.663 55.5989L143.933 56.2396C143.783 55.869 143.683 55.4985 143.622 55.1079L143.723 55.819C143.673 55.3883 143.673 54.9576 143.723 54.5269L143.622 55.238C143.683 54.8073 143.793 54.3866 143.963 53.986L143.693 54.6271C143.803 54.3767 143.923 54.1263 144.073 53.896C144.133 53.8058 144.454 53.3653 144.133 53.7859C143.813 54.2066 144.153 53.7856 144.233 53.6955C144.314 53.6153 144.404 53.5252 144.484 53.4451C144.965 53.0144 144.033 53.7256 144.414 53.5052C144.654 53.365 144.895 53.2251 145.155 53.1149L144.514 53.3854C144.885 53.2352 145.275 53.1347 145.666 53.0846L144.955 53.1849C145.395 53.1348 145.836 53.1348 146.277 53.1849L145.566 53.0846C146.006 53.1547 146.427 53.265 146.838 53.4353L146.197 53.1648C146.357 53.2349 146.527 53.3148 146.677 53.405C146.788 53.4651 147.369 53.8761 146.958 53.5556C146.547 53.2351 147.038 53.6557 147.138 53.7458C147.409 53.9862 146.928 53.5352 146.938 53.4852C146.938 53.5152 147.078 53.7659 147.088 53.806L146.818 53.1648C146.998 53.5955 147.118 54.0461 147.188 54.5068L147.088 53.7957C147.148 54.2665 147.138 54.7271 147.088 55.1979L147.188 54.4868C147.118 54.9976 146.988 55.4786 146.798 55.9593L147.068 55.3182C146.948 55.6086 146.808 55.8791 146.637 56.1496C146.507 56.3599 146.137 56.7106 146.718 56.0796C146.627 56.1798 146.547 56.29 146.447 56.3902C146.347 56.4904 146.257 56.5803 146.157 56.6704C145.676 57.1011 146.607 56.3799 146.237 56.6103C145.966 56.7805 145.706 56.931 145.415 57.0612L146.056 56.7907C145.626 56.971 145.175 57.0911 144.714 57.1512L145.425 57.0509C144.915 57.111 144.414 57.1112 143.913 57.0411L144.624 57.1414C144.153 57.0713 143.713 56.951 143.272 56.7707L143.913 57.0411C143.793 56.9911 142.761 56.5402 142.791 56.42C142.791 56.42 143.382 56.9207 143.012 56.5902C142.941 56.5201 142.871 56.4603 142.801 56.3902C142.631 56.2299 142.481 56.0494 142.341 55.8591C141.95 55.3583 141.048 55.078 140.448 55.078C139.786 55.078 139.005 55.3683 138.554 55.8591C138.104 56.3499 137.733 57.0411 137.773 57.7522C137.803 58.5134 138.094 59.0544 138.554 59.6454V59.6351Z" fill="#332E7F"/>
<path d="M173.34 58.3133C172.368 58.3634 171.377 58.6034 170.575 59.1843C169.774 59.7653 169.103 60.4367 168.672 61.3181C168.202 62.2596 167.981 63.1409 167.891 64.1825C167.871 64.463 167.871 64.7335 167.901 65.0139C167.951 65.5047 168.001 66.0153 168.172 66.486C168.492 67.3774 168.963 68.2592 169.714 68.8702C170.696 69.6715 171.807 70.1621 173.1 70.1921C175.243 70.2322 177.166 68.8599 178.278 67.1071C178.879 66.1556 179.209 65.0241 179.249 63.9023C179.299 62.5101 178.728 61.2677 177.847 60.226C177.426 59.7252 176.585 59.445 175.954 59.445C175.323 59.445 174.512 59.7352 174.061 60.226C173.61 60.7168 173.24 61.408 173.28 62.1192C173.32 62.8303 173.58 63.4414 174.061 64.0123C174.091 64.0524 174.121 64.0823 174.151 64.1224L173.731 63.5815C173.861 63.7518 173.961 63.9223 174.051 64.1126L173.781 63.4714C173.871 63.6818 173.921 63.8922 173.961 64.1126L173.861 63.4015C173.901 63.6719 173.891 63.9322 173.861 64.2026L173.961 63.4915C173.911 63.812 173.831 64.1222 173.71 64.4227L173.981 63.782C173.831 64.1326 173.64 64.4528 173.41 64.7533L173.831 64.2124C173.61 64.4928 173.36 64.7334 173.079 64.9538L173.62 64.5332C173.38 64.7135 173.13 64.8634 172.849 64.9836L173.49 64.7132C173.26 64.8033 173.029 64.8739 172.789 64.9039L173.5 64.8036C173.28 64.8337 173.059 64.8337 172.839 64.8036L173.55 64.9039C173.32 64.8739 173.1 64.8033 172.879 64.7132L173.52 64.9836C173.33 64.9035 173.16 64.7933 172.989 64.6731L173.53 65.0941C173.36 64.9639 173.21 64.8135 173.069 64.6432L173.49 65.1841C173.35 64.9938 173.23 64.7934 173.14 64.5831L173.41 65.2242C173.29 64.9438 173.22 64.6635 173.17 64.363L173.27 65.0741C173.22 64.7035 173.22 64.3328 173.27 63.9722L173.17 64.6833C173.22 64.3127 173.32 63.9523 173.46 63.6118L173.19 64.2525C173.32 63.952 173.48 63.6717 173.67 63.4113L173.25 63.9522C173.41 63.7519 173.59 63.5715 173.791 63.4113L173.25 63.8319C173.42 63.7017 173.6 63.5914 173.801 63.5013L173.16 63.7717C173.36 63.6816 173.57 63.6318 173.791 63.5918L173.079 63.6915C173.16 63.6815 173.25 63.6715 173.33 63.6715C174.041 63.6314 174.712 63.4013 175.223 62.8904C175.684 62.4297 176.034 61.6583 176.004 60.9973C175.974 60.3362 175.744 59.5854 175.223 59.1046C174.702 58.6238 174.041 58.283 173.33 58.3231L173.34 58.3133Z" fill="#332E7F"/>
<path d="M132.385 91.7764C133.306 95.8729 130.922 99.7391 127.948 102.353C124.342 105.528 119.254 106.63 114.646 107.381C109.378 108.243 104.069 108.784 98.821 109.795C93.2521 110.867 87.7433 112.239 82.3147 113.892C72.9497 116.746 63.3143 120.312 56.0427 127.123C48.7711 133.934 45.2955 143.91 42.7315 153.485C39.3761 166.045 36.9122 178.806 35.2195 191.696C35.0292 193.138 36.5817 194.38 37.9038 194.38C39.5064 194.38 40.3977 193.138 40.588 191.696C42.0804 180.338 44.2739 169.07 47.1084 157.972C49.5323 148.467 52.1965 138.271 59.4882 131.24C66.5495 124.439 76.4252 121.183 85.6399 118.499C91.0886 116.907 96.6175 115.614 102.196 114.603C107.475 113.651 112.843 113.221 118.102 112.189C123.36 111.158 129.119 109.064 133.036 104.888C136.732 100.961 138.765 95.713 137.553 90.3444C136.792 86.979 131.623 88.4012 132.385 91.7666V91.7764Z" fill="#332E7F"/>
<path d="M164.696 99.3386C160.549 108.143 163.745 117.948 169.975 124.899C177.076 132.812 187.813 135.736 197.899 137.619C207.985 139.502 217.601 140.514 226.274 145.372C230.311 147.626 233.816 150.681 236.19 154.677C238.564 158.673 239.676 163.28 239.986 167.878C240.367 173.406 239.796 178.966 238.884 184.414C237.773 191.085 236.33 197.706 234.828 204.296C234.067 207.652 239.225 209.084 239.996 205.718C242.45 194.961 245.175 183.873 245.435 172.796C245.675 162.93 243.282 152.804 235.91 145.802C228.889 139.122 219.223 136.147 209.918 134.344C199.562 132.341 188.404 131.42 179.229 125.741C171.807 121.143 165.167 110.827 169.313 102.033C169.934 100.721 169.674 99.138 168.352 98.3668C167.19 97.6857 165.307 98.0162 164.686 99.3283L164.696 99.3386Z" fill="#332E7F"/>
</svg>
