<svg width="1921" height="628" viewBox="0 0 1921 628" fill="none" xmlns="http://www.w3.org/2000/svg">
<path d="M84.7937 603.151C374.183 446.17 663.562 289.189 952.951 132.208C1220.66 297.423 1488.36 462.648 1756.07 627.864L1921 445.6C1688.72 297.063 1456.44 148.527 1224.16 0C816.101 172.219 408.05 344.438 0 516.656L84.7937 603.151Z" fill="#332E7F"/>
<path d="M167.146 584.751C179.672 585.672 190.488 574.516 191.869 562.55C192.259 559.148 191.819 555.666 190.508 552.495L187.767 553.655C195.01 564.051 208.367 568.953 220.714 566.742C233.06 564.531 242.735 553.985 245.176 541.589C246.547 534.625 245.776 527.362 242.575 520.998C241.704 519.277 239.113 520.788 239.983 522.509C245.566 533.605 258.343 540.228 270.609 539.418C283.466 538.568 293.741 529.223 297.343 517.066C299.314 510.423 299.204 503.109 296.533 496.676L293.791 497.837C299.174 508.092 312.051 510.423 322.406 507.431C328.009 505.811 333.071 502.669 336.803 498.177C341.346 492.724 344.177 486.12 345.718 479.237C347.519 471.203 347.739 462.888 347.329 454.694L344.377 455.095C348.479 467.491 361.636 475.575 374.503 474.915C380.996 474.584 387.119 471.953 391.722 467.351C396.324 462.748 399.175 456.775 400.176 450.492C401.307 443.368 400.106 435.885 396.014 429.852L393.963 431.902C404.668 438.806 417.345 444.739 430.402 442.838C440.297 441.397 448.961 433.924 451.733 424.259C453.173 419.216 452.663 413.773 449.762 409.341C448.681 407.68 446.43 409.111 447.17 410.852C451.102 420.137 461.498 425.889 471.433 425.299C481.858 424.669 490.062 416.795 492.474 406.82C493.814 401.267 493.314 395.384 490.703 390.271L488.341 392.092C496.896 402.998 512.304 407.34 525.521 403.818C539.338 400.136 548.442 387.73 549.913 373.793C550.724 366.149 549.083 358.215 544.911 351.721C543.84 350.06 541.559 351.501 542.319 353.232C546.822 363.497 558.017 370.011 569.083 369.921C580.729 369.82 590.414 361.856 594.316 351.131C596.457 345.248 596.717 338.644 594.666 332.691L592.465 334.382C601.11 340.395 612.115 340.015 621.43 335.793C630.665 331.601 638.629 323.587 641.81 313.862C643.601 308.419 643.641 302.506 641.77 297.073L639.029 298.234C645.252 308.909 658.239 314.822 670.405 313.341C676.648 312.581 682.441 309.95 686.984 305.577C691.526 301.205 694.538 295.642 695.978 289.659C697.619 282.826 697.079 275.632 694.107 269.239L691.516 270.75C697.369 280.385 708.435 286.268 719.641 286.298C731.187 286.338 741.582 279.614 747.135 269.619C750.266 263.986 751.807 257.453 751.167 251.019L748.365 251.78C754.669 260.044 765.344 264.096 775.589 262.595C785.885 261.084 794.009 253.421 797.271 243.706C799.102 238.253 799.302 232.26 797.611 226.757L795.41 228.448C805.295 234.001 817.081 233.5 827.266 229.038C837.401 224.606 846.066 216.311 850.278 206.016C852.639 200.243 853.31 193.96 852.189 187.827L849.678 189.287C856.781 197.732 868.457 201.544 879.243 199.733C890.108 197.912 898.723 189.838 902.435 179.633C904.516 173.93 904.926 167.656 903.465 161.753L900.724 162.914C905.266 171.198 914.661 176.281 924.046 176.121C933.431 175.961 942.255 169.758 946.147 160.983C948.328 156.07 949.049 150.668 947.958 145.385L945.217 146.545C947.708 151.428 950.199 156.311 952.701 161.193C953.091 161.953 954.061 162.064 954.752 161.733C966.618 156.03 975.512 144.735 978.284 131.878C978.694 129.997 975.803 129.187 975.392 131.077C972.761 143.254 964.467 153.749 953.241 159.142L955.292 159.682C952.801 154.8 950.31 149.917 947.808 145.035C946.998 143.454 944.737 144.595 945.067 146.195C946.778 154.47 943.176 163.304 936.693 168.567C930.209 173.829 920.934 174.41 913.44 170.808C909.188 168.767 905.606 165.565 903.335 161.413C902.505 159.892 900.194 160.943 900.594 162.574C902.955 172.139 899.683 182.644 892.74 189.558C885.796 196.471 875.231 198.762 865.716 196.071C860.303 194.54 855.441 191.499 851.819 187.186C850.758 185.926 849.067 187.327 849.307 188.647C851.158 198.792 847.046 208.908 840.163 216.291C833.279 223.675 823.554 228.888 813.389 229.508C807.646 229.859 801.963 228.688 796.93 225.866C795.82 225.246 794.329 226.276 794.729 227.557C797.411 236.302 794.759 246.177 788.466 252.74C782.173 259.304 772.218 261.435 763.403 258.723C758.551 257.233 754.068 254.341 750.977 250.279C750.196 249.249 748.015 249.368 748.175 251.039C749.206 261.465 744.203 272.11 735.699 278.183C727.195 284.256 716.119 284.807 706.774 280.414C701.581 277.973 697.109 274.171 694.117 269.249C693.097 267.568 690.716 269.039 691.526 270.76C696.279 280.955 693.717 293.801 686.263 302.036C678.81 310.27 666.333 312.521 655.768 308.489C649.915 306.258 644.812 302.146 641.65 296.723C640.82 295.292 638.339 296.233 638.909 297.883C645.292 316.423 626.573 335.263 608.633 335.993C603.391 336.203 598.338 334.803 594.016 331.801C592.955 331.061 591.395 332.291 591.815 333.492C595.146 343.167 591.755 354.303 584.221 361.076C576.687 367.85 565.291 368.5 556.356 363.757C551.324 361.096 547.252 356.954 544.951 351.711L542.359 353.222C549.273 363.978 548.472 378.525 541.439 389.03C534.195 399.856 520.658 404.018 508.242 401.067C501.268 399.406 494.945 395.624 490.503 389.961C489.402 388.56 487.411 390.341 488.141 391.782C492.183 399.726 490.132 409.981 484.089 416.355C478.046 422.728 467.981 423.908 460.007 419.936C455.464 417.675 451.793 414.033 449.802 409.331L447.21 410.842C452.123 418.366 448.581 427.81 442.628 433.603C439.436 436.715 435.504 438.826 431.132 439.676C425.319 440.807 419.316 440.027 413.713 438.276C407.22 436.255 401.207 432.973 395.514 429.301C394.283 428.501 392.612 430.112 393.463 431.352C399.996 440.967 398.585 454.694 391.221 463.489C387.499 467.931 382.397 470.893 376.644 471.703C370.891 472.513 364.958 471.273 359.895 468.581C354.132 465.52 349.39 460.547 347.319 454.284C346.809 452.753 344.287 452.913 344.367 454.684C345.018 467.761 344.247 482.068 336.753 493.294C333.652 497.947 329.46 501.609 324.217 503.65C319.504 505.481 314.212 506.201 309.209 505.26C303.776 504.23 299.014 501.268 296.413 496.306C295.642 494.835 293.011 495.875 293.671 497.466C298.033 507.952 295.142 520.578 287.298 528.662C279.204 536.987 266.647 538.527 256.242 533.785C250.409 531.124 245.506 526.751 242.605 520.998L240.013 522.509C245.096 532.584 243.195 545.501 236.201 554.205C228.848 563.36 216.631 566.252 205.586 562.89C199.543 561.049 194.03 557.357 190.388 552.135C189.497 550.854 186.946 551.614 187.646 553.295C191.899 563.53 185.665 575.637 175.99 580.159C173.229 581.45 170.207 581.97 167.176 581.75C165.245 581.61 165.255 584.611 167.176 584.751H167.146Z" fill="#332E7F"/>
<path d="M967.869 173.329C979.645 185.315 1000.02 185.886 1013.6 176.651C1017.49 174.01 1020.79 170.598 1023.19 166.536C1024.09 165.005 1022.09 163.644 1020.83 164.715C1011.39 172.819 1010.29 188.017 1016.76 198.272C1020.08 203.515 1025.37 207.267 1031.51 208.337C1037.59 209.398 1043.94 208.137 1049.31 205.146C1055.35 201.774 1060.17 196.091 1061.6 189.228C1061.91 187.737 1060.24 186.766 1059.09 187.767C1050.73 195.09 1049.02 208.087 1053.82 217.852C1058.63 227.617 1070.55 232.07 1081.17 229.488C1087.07 228.058 1092.38 224.586 1095.74 219.483L1093.15 217.972C1089.15 226.807 1091.59 237.662 1098.5 244.376C1105.4 251.089 1116.63 251.92 1125.16 247.017C1129.93 244.276 1133.68 239.964 1135.47 234.731C1136.04 233.05 1133.62 232.23 1132.72 233.57C1126.72 242.495 1126.7 254.681 1131.87 263.986C1137.27 273.681 1148.22 278.744 1159.13 277.693C1165.33 277.093 1171.22 274.692 1175.84 270.469L1173.47 268.648C1167.35 278.654 1165.37 292.851 1172.27 303.006C1175.16 307.238 1179.3 310.19 1184.32 311.27C1188.97 312.271 1193.9 311.811 1198.26 309.9C1203 307.819 1206.75 303.737 1207.63 298.544C1207.94 296.673 1205.24 295.842 1204.74 297.743C1201.96 308.309 1205.62 320.035 1213.5 327.519C1221.56 335.183 1233.43 337.124 1243.78 333.362C1249.57 331.261 1254.63 327.559 1258.19 322.506L1255.6 320.995C1247.3 333.032 1248.24 350.18 1256.64 361.926C1260.87 367.839 1266.86 372.202 1273.87 374.203C1280.87 376.204 1288.33 375.924 1295.17 373.743C1302.99 371.251 1309.95 366.259 1314.3 359.255L1311.56 358.094C1309.75 368.14 1314.64 378.555 1323.08 384.148C1331.53 389.741 1342.95 388.84 1351.11 382.827C1355.65 379.486 1359.11 374.843 1360.62 369.37C1360.99 368.019 1359.09 366.699 1358.11 367.909C1350.52 377.294 1351.52 391.412 1358.92 400.616C1362.69 405.309 1368.13 408.28 1374.12 408.891C1380.11 409.501 1386.5 407.63 1391.53 404.218C1397.2 400.356 1401.54 394.413 1402.5 387.51C1402.76 385.649 1400.22 384.818 1399.61 386.709C1395.37 399.746 1392.03 416.304 1401.1 428.15C1407.23 436.145 1419.87 437.065 1428.05 431.692C1432.55 428.731 1434.94 423.918 1433.8 418.556C1433.55 417.385 1432.08 417.185 1431.29 417.895C1421.42 426.7 1420.01 442.548 1426.49 453.734C1429.79 459.447 1435.18 463.659 1441.55 465.37C1447.93 467.081 1454.59 466.43 1460.53 463.989C1467.37 461.178 1473 456.075 1475.84 449.191L1472.95 448.391C1468.98 462.438 1466.27 479.467 1474.96 492.384C1480.88 501.178 1493.23 504.83 1503.18 501.368C1508.52 499.517 1512.74 495.465 1513.92 489.832C1514.22 488.432 1512.51 487.231 1511.41 488.372C1503.51 496.586 1507.02 509.402 1514.39 516.686C1518.42 520.668 1523.59 523.039 1529.26 523.27C1535.98 523.54 1542.58 521.159 1548.08 517.377C1554.46 512.984 1559.6 506.881 1563.2 500.038C1564 498.507 1562.12 497.086 1560.83 498.217C1551.17 506.711 1550.22 522.369 1556.93 532.934C1560.39 538.387 1565.93 542.29 1572.32 543.41C1578.71 544.531 1585.36 543.17 1590.99 540.008C1597.3 536.456 1602.32 530.503 1603.83 523.33C1604.1 522.059 1602.81 520.979 1601.63 521.639C1590.83 527.652 1587.43 542.309 1592.23 553.235C1594.67 558.798 1599.42 563.02 1605.25 564.761C1611.07 566.502 1617.45 565.731 1622.97 563.28C1629.16 560.529 1634.24 555.306 1636.07 548.703C1636.43 547.402 1635 546.411 1633.87 547.012C1622.98 552.775 1620.28 567.742 1625.5 578.228C1628.22 583.721 1633.39 587.803 1639.49 588.753C1646.03 589.774 1652.65 587.553 1657.79 583.531C1663.54 579.038 1667.45 571.985 1666.66 564.551C1666.52 563.22 1665.14 562.62 1664.1 563.49C1652.16 573.415 1651.48 592.555 1659.83 604.942C1664.25 611.505 1671.09 615.877 1679.01 616.718C1687.24 617.598 1695.57 614.537 1701.99 609.484C1709.27 603.741 1714.25 594.946 1713.86 585.512C1713.81 584.281 1712.21 583.441 1711.3 584.451C1701.07 595.697 1696.36 611.235 1698.52 626.273C1698.61 626.903 1699.37 627.383 1699.97 627.373C1716.4 627.133 1732.64 622.421 1746.64 613.786C1748.28 612.776 1746.78 610.175 1745.13 611.195C1731.57 619.549 1715.89 624.132 1699.98 624.372L1701.43 625.472C1699.44 611.565 1703.99 596.948 1713.44 586.572L1710.88 585.512C1711.5 600.87 1696.66 613.846 1681.81 613.866C1674.62 613.866 1667.99 610.565 1663.54 604.952C1659.08 599.339 1657.22 592.635 1657.27 585.862C1657.32 578.168 1660.25 570.604 1666.24 565.611L1663.68 564.551C1664.91 576.237 1653.42 586.342 1642.16 586.002C1636.75 585.842 1631.88 582.95 1629.04 578.378C1626.2 573.806 1625.41 568.533 1626.19 563.47C1627.08 557.707 1630.15 552.375 1635.4 549.593L1633.2 547.902C1630.34 558.218 1618.41 564.281 1608.19 562.37C1602.9 561.379 1598.37 558.258 1595.74 553.535C1593.11 548.813 1592.54 543.43 1593.53 538.347C1594.66 532.514 1597.89 527.172 1603.17 524.23L1600.97 522.539C1598.53 534.065 1586.42 541.619 1575 540.749C1569.33 540.318 1564.09 537.497 1560.63 532.975C1557.22 528.502 1555.58 522.799 1555.65 517.216C1555.74 510.843 1558.15 504.6 1563 500.348L1560.63 498.527C1555.09 509.082 1544.88 519.197 1532.4 520.208C1527.22 520.628 1522.26 519.378 1518.19 516.066C1514.52 513.064 1511.73 508.922 1510.51 504.33C1509.22 499.447 1509.98 494.245 1513.56 490.513L1511.05 489.052C1509.06 498.487 1498.15 500.928 1489.93 498.987C1485.45 497.937 1481.12 495.615 1478.29 491.904C1474.15 486.491 1472.48 479.577 1472.28 472.864C1472.05 464.84 1473.69 456.885 1475.86 449.211C1476.4 447.3 1473.68 446.68 1472.97 448.411C1468.52 459.186 1455.47 465.009 1444.29 462.928C1438.58 461.868 1433.47 458.736 1430.15 453.924C1426.83 449.111 1425.33 443.228 1425.57 437.425C1425.84 430.852 1428.48 424.459 1433.42 420.046L1430.91 419.386C1432.79 428.221 1422.34 432.333 1415.23 432.043C1411 431.873 1406.76 430.292 1403.98 427.01C1399.91 422.208 1398.42 415.754 1398.39 409.581C1398.35 402.067 1400.2 394.653 1402.51 387.54L1399.62 386.739C1398.11 397.655 1387.59 405.849 1376.78 406.029C1371.4 406.119 1366.3 404.048 1362.55 400.196C1358.8 396.344 1356.75 391.572 1356.08 386.499C1355.32 380.756 1356.57 374.613 1360.26 370.051L1357.75 368.59C1355.39 377.154 1347.47 383.538 1338.77 384.788C1330.07 386.039 1321.42 381.066 1317.1 373.312C1314.68 368.97 1313.6 363.827 1314.48 358.905C1314.77 357.274 1312.68 356.234 1311.74 357.744C1304.67 369.11 1289.97 374.563 1277.05 371.891C1270.48 370.531 1264.67 367.079 1260.4 361.906C1256.13 356.734 1253.7 350.341 1253.05 343.827C1252.31 336.343 1253.93 328.749 1258.22 322.516C1259.32 320.915 1256.73 319.435 1255.63 321.005C1249.95 329.05 1239.71 333.122 1230.03 332.101C1220.36 331.08 1211.95 323.857 1208.58 314.642C1206.69 309.479 1206.26 303.887 1207.66 298.554L1204.77 297.753C1203.36 306.148 1194.04 309.719 1186.38 308.609C1182.08 307.979 1178.28 305.898 1175.6 302.456C1172.33 298.284 1170.96 292.951 1170.98 287.718C1171.01 281.535 1172.87 275.432 1176.1 270.169C1177.01 268.678 1174.97 267.228 1173.73 268.348C1166.44 275.022 1155.31 276.552 1146.24 272.911C1137.18 269.269 1131.57 260.144 1131.14 250.509C1130.9 245.046 1132.27 239.643 1135.34 235.091L1132.59 233.931C1129.89 241.915 1121.57 247.237 1113.27 247.307C1104.62 247.377 1097.57 241.164 1095.13 233.07C1093.8 228.638 1093.85 223.735 1095.77 219.483C1096.56 217.742 1094.26 216.331 1093.18 217.972C1087.92 225.946 1077.06 229.018 1068.12 226.296C1058.51 223.375 1053.46 213.74 1054.27 204.075C1054.73 198.662 1057.12 193.49 1061.23 189.888L1058.72 188.427C1056.43 199.363 1044.95 206.446 1034.15 205.656C1028.72 205.266 1023.68 202.564 1020.39 198.212C1017.11 193.9 1015.58 188.407 1015.7 183.024C1015.84 176.871 1018.25 170.878 1022.97 166.826L1020.61 165.005C1012.76 178.292 994.823 183.064 980.705 178.012C976.673 176.571 973.001 174.24 970 171.188C968.639 169.808 966.518 171.928 967.879 173.309L967.869 173.329Z" fill="#332E7F"/>
<path d="M168.247 582.47C154.98 580.009 143.004 572.105 135.63 560.789C134.579 559.178 131.978 560.679 133.038 562.3C140.812 574.236 153.429 582.76 167.446 585.362C169.337 585.712 170.148 582.82 168.247 582.47Z" fill="#332E7F"/>
</svg>
