<svg width="201" height="329" viewBox="0 0 201 329" fill="none" xmlns="http://www.w3.org/2000/svg">
<path d="M30.1591 49.9838C35.1004 41.1744 40.2001 31.6368 45.8542 22.9674C50.067 16.4969 53.773 15.7266 57.4474 10.8527C57.7958 10.3905 57.3523 9.21402 57.5266 9.05995C58.0492 8.59778 60.1873 9.77427 60.8683 9.80228C61.2642 9.81629 61.0742 8.63989 62.0403 8.28976C67.5359 6.28698 71.9547 3.3458 79.0183 1.77719C97.4691 -2.3124 111.185 1.00679 126.278 8.14957C127.656 8.79382 133.722 11.2448 134.624 11.833C150.304 22.183 159.711 45.1379 163.259 59.4235C164.573 64.7316 167.899 71.2302 168.96 77.8968C169.325 80.2217 168.343 91.0619 168.913 91.7201C171.479 92.3364 170.243 90.6557 171.526 90.0814C177.038 87.6725 184.038 84.5494 189.613 81.09C192.163 79.5074 191.513 77.1404 197.231 78.3589C197.5 80.2636 196.771 82.6865 197.246 84.4652C197.421 85.0955 198.925 84.9835 199.099 85.6138C199.717 87.8967 198.45 96.7061 199.131 97.5745L201 96.72C200.952 98.5547 200.382 100.404 200.446 102.238C200.937 118.33 200.699 135.487 197.183 150.543C196.027 155.501 192.21 161.915 194.396 166.859C189.724 166.159 192.242 168.61 191.545 171.313C190.452 175.543 185.923 184.772 184.006 189.422C183.769 189.996 183.293 190.514 183.056 191.089C182.707 191.943 182.422 192.741 182.106 193.596C181.821 194.38 181.235 195.024 181.155 195.262C180.728 196.579 179.366 198.358 180.205 200.276C177.75 199.954 178.653 201.397 178.32 201.943C174.345 208.414 171.114 215.654 166.997 221.985C165.571 224.183 163.781 226.438 162.277 228.665C161.865 229.281 161.628 229.898 161.327 230.332C160.376 231.719 156.021 238.301 155.657 238.679C155.578 238.777 154.358 238.427 153.994 238.847C153.249 239.66 154.089 241.466 153.756 242.027C153.709 242.111 152.521 241.13 151.46 241.984C149.638 243.455 147.199 248.021 145.679 249.463C144.697 250.388 138.425 255.038 136.778 256.214C134.529 257.839 129.572 259.057 129.224 262.054C126.436 261.928 117.535 264.505 122.334 266.886C123.649 267.544 126.547 268.175 128.273 268.735C129.477 269.127 130.871 269.155 132.043 269.575C134.577 270.458 136.541 271.34 138.647 272.082C141.957 273.259 145.331 274.323 148.086 275.416C152.679 277.25 164.225 284.113 167.82 287.628C172.999 292.684 173.775 299.113 177.354 303.805C176.863 304.575 176.499 305.415 176.404 306.312C175.786 312.292 175.612 311.228 172.951 315.779C171.178 318.805 172.698 317.922 169.23 320.835C168.786 321.213 168.96 322.096 168.85 322.18C168.153 322.698 166.553 322.642 165.856 323.076C154.358 330.135 141.846 330.023 128.258 327.194C112.848 323.986 105.34 320.443 87.6656 318.847C87.4597 318.833 86.6679 318.104 85.781 318.006C84.8941 317.908 83.8804 318.076 82.946 318.006C81.4573 317.894 82.2491 316.746 80.1111 318.006C77.3078 317.292 74.4412 317.432 71.6221 317.166C70.0067 317.026 68.9772 317.18 68.7871 317.166C62.5629 316.62 56.1012 316.143 49.9086 315.499C48.6891 315.373 47.3429 315.639 46.1393 315.499C42.4016 315.079 30.6184 313.104 27.5142 311.914C26.754 311.62 20.6248 305.653 20.213 304.617C19.3419 302.376 19.7062 300.261 19.7062 297.964C20.5139 296.41 20.9574 293.945 21.5909 292.95C21.8443 292.558 24.6792 289.519 25.3603 288.777C27.4825 286.494 32.2813 282.222 34.7995 280.43C35.1796 280.164 38.2521 278.959 38.5689 278.763C41.0079 277.25 43.2093 275.976 46.1234 274.589C48.1665 273.609 52.2051 270.976 53.678 270.416C54.6441 270.051 56.9247 270.052 58.3976 269.575C61.3434 268.623 66.0789 268.595 62.5313 264.771C61.3434 263.483 60.2348 263.861 59.3954 263.133C54.2798 258.693 47.6122 253.595 43.3043 248.707C41.8156 247.026 37.5869 241.606 36.7 240.36C36.0982 239.52 35.3222 237.825 34.8153 237.026C34.071 235.878 33.2474 235.024 32.9307 234.52C32.804 234.31 33.0574 233.903 32.9307 233.679C32.2338 232.545 31.7428 230.696 31.046 229.506C28.8445 225.71 26.5164 222.755 24.4417 218.652C16.5387 203.091 10.267 186.019 6.49759 170.221C6.37089 169.717 6.60845 169.058 6.49759 168.554C3.17168 153.834 -3.06835 119.059 1.77797 105.095C1.9997 104.451 3.12416 103.681 2.72822 102.588C3.67848 102.854 4.53371 103.303 5.54732 103.429C9.9977 103.975 14.2105 105.221 18.756 105.095C18.2967 103.541 17.584 98.7229 15.921 98.4148C15.8893 92.8546 15.9527 87.2664 15.921 81.7202C17.9007 78.485 19.0569 73.8072 19.6904 70.0257C23.048 64.2695 25.867 58.3311 29.1296 52.4909C29.6206 51.6085 29.7156 50.6141 30.0799 49.9838H30.1591ZM114.178 105.095C119.626 105.095 120.513 104.395 125.09 103.471C131.758 102.126 141.244 100.656 146.582 98.6948C151.064 97.0422 156.259 94.7873 160.234 93.4428C161.121 93.1347 162.958 93.6388 163.259 93.4007C163.987 92.8405 163.607 78.0227 163.338 76.23C163.116 74.6894 161.58 75.1378 161.39 74.4655C160.82 72.3367 161.928 69.3815 161.342 67.2667C160.25 63.2471 155.245 54.1856 153.851 49.4097C152.458 44.6339 151.064 41.5386 150.003 37.2529C149.844 36.5807 146.661 35.0821 146.534 34.7739C145.932 33.2754 146.55 31.9308 146.217 30.5723C145.964 29.5499 133.104 16.7069 130.855 15.2084C128.147 13.4017 123.807 12.2112 120.513 11.567C119.674 11.3989 118.058 8.42981 117.25 8.28976C115.366 7.95363 113.212 8.47178 111.074 8.06562C108.27 7.53342 103.788 4.91434 103.361 4.85832C100.811 4.57821 88.5684 4.49426 86.4936 4.94244C85.7809 5.0965 85.9076 6.44091 85.1949 6.58096C78.5906 7.89748 78.0997 7.63148 71.8596 9.84434C50.0037 17.5894 39.0915 44.4098 30.1432 62.5468C25.8512 71.2302 20.5931 79.8296 20.6248 89.6754C20.6248 91.5521 24.505 105.866 25.5661 106.664C26.1838 107.126 29.7314 106.762 31.0935 106.804C37.0801 106.986 41.0712 108.429 46.2026 108.471C49.7819 108.499 53.1395 108.415 56.5921 108.471C66.5224 108.639 82.851 109.605 92.0527 108.541C93.6048 108.359 92.9079 106.944 98.1185 106.804C100.193 106.748 103.06 106.958 105.673 106.804C105.99 106.79 106.307 106.832 106.623 106.804C109.173 106.566 112.198 107.07 114.178 105.137V105.095ZM175.533 194.436C177.687 192.041 177.418 189.912 178.447 187.573C182.597 178.288 187.031 167.728 189.66 157.952C190.088 156.383 189.454 154.339 189.692 152.672L191.561 153.512C191.957 151.145 191.006 147.91 191.592 145.725C191.767 145.095 193.271 145.207 193.43 144.577C194.206 141.72 192.321 129.087 193.461 127.616L195.33 128.456C194.126 119.941 196.581 109.465 195.409 101.258C195.188 99.6611 193.604 100.46 193.366 98.8629C193.049 96.664 194 85.5017 193.43 85.0255H189.644L190.61 86.6922C183.959 88.8071 178.02 92.1402 171.574 95.1514C160.566 100.291 152.885 102.672 141.26 105.263C130.364 107.686 120.513 110.6 108.888 111.706C95.537 112.966 81.3622 113.429 67.8685 113.429C64.7327 113.429 61.5493 113.527 58.4293 113.429C49.4968 113.162 40.8811 112.168 31.9962 111.762C31.5211 111.412 21.4483 110.263 19.722 110.095C15.3983 109.675 10.8213 110.277 6.51342 109.255C6.45007 110.922 6.57677 112.602 6.51342 114.269C6.37088 117.868 6.52926 121.524 6.51342 125.123C6.51342 125.403 6.51342 125.683 6.51342 125.963C6.51342 129.017 6.48174 132.098 6.51342 135.151C6.52926 137.238 5.76906 140.445 7.46369 141.832C7.24196 145.557 7.85962 149.044 8.41393 152.686C12.0091 176.733 19.6587 196.341 31.0777 217.811C40.1368 234.856 52.3952 258.357 75.0747 264.477C77.7354 265.192 81.1722 264.897 83.2627 265.444C84.118 265.668 83.5795 266.942 85.29 267.138C87.428 267.39 94.4917 267.391 96.5189 267.054C97.2316 266.942 97.184 265.668 97.6117 265.598C105.926 264.449 105.53 263.959 112.261 262.054C112.547 261.97 112.927 262.138 113.212 262.054C115.017 261.48 115.936 261.494 118.248 260.668C126.405 257.755 129.794 253.763 135.875 248.693C137.728 247.139 139.867 246.13 142.48 243.679C145.536 240.808 147.405 238.413 150.034 235.332C154.12 230.528 156.892 227.307 160.424 221.971C162.182 219.296 163.544 216.354 165.143 213.623C166.87 210.668 168.232 208.315 169.863 205.276C172.144 201.005 173.585 200.529 174.583 195.262C174.915 194.996 175.248 194.73 175.533 194.422V194.436ZM114.178 268.749C105.119 269.743 97.4692 272.432 88.2516 271.858C77.292 271.172 74.9005 269.253 63.2123 272.516C55.0717 274.799 50.4788 278.245 44.0487 281.872C43.1776 282.362 41.5147 281.83 40.7545 282.306C40.2318 282.642 40.6436 283.693 40.5486 283.777C40.3744 283.931 38.2046 283.525 38.6639 285.443C37.2068 285.289 36.6208 285.821 36.7792 287.11C36.5416 287.054 36.0824 287.082 35.829 287.11C31.9487 287.572 26.0571 295.261 25.5028 298.44C23.6339 309.141 38.5213 309.477 47.1529 310.499C51.2707 310.99 56.1962 310.975 60.3773 311.339C74.9322 312.6 89.8671 312.964 104.216 315.569C108.793 316.395 113.814 319.099 118.897 318.861C118.993 318.973 121.305 320.471 121.463 320.513C123.269 320.863 125.502 320.359 127.402 320.541C127.291 323.454 127.83 321.437 130.031 321.914C132.819 322.516 134.846 323.594 137.776 323.888C140.532 324.168 150.921 324.336 153.17 323.86C153.835 323.72 153.693 322.53 154.532 322.278C159.521 320.751 158.222 320.849 161.659 319.127C162.562 318.664 164.067 319.084 164.858 318.608C169.214 315.919 172.001 305.359 170.782 301.088C170.623 300.527 169.372 300.513 169.245 300.233C166.949 295.261 166.331 295.724 162.594 291.914C161.216 290.514 160.408 286.396 156.655 287.152C155.435 284.239 155.736 286.172 154.77 285.485C148.276 280.934 131.568 273.091 123.617 272.124C123.015 272.054 122.35 272.166 121.732 272.124L114.178 268.791V268.749Z" fill="#332E7F"/>
</svg>
