<svg width="323" height="480" viewBox="0 0 323 480" fill="none" xmlns="http://www.w3.org/2000/svg">
<path d="M186.452 30.2544C196.501 5.87686 182.183 -6.38102 162.055 3.34017C110.707 28.1424 40.3898 137.646 20.0967 195.204C14.2662 211.732 1.00277 278.897 0 320.341C0.744321 323.887 0.79607 327.514 0.0620873 331.244C0.0620873 331.256 0.0620873 331.267 0.0620873 331.278C0.475599 341.413 2.01594 348.93 5.11728 352.109C11.4337 358.594 18.8251 353.257 25.586 357.665C20.9754 374.341 38.8081 425.632 56.8889 412.284C61.0137 409.243 64.0943 397.88 67.4955 402.322C75.6416 412.95 75.0524 437.614 96.9685 431.853C96.4723 448.208 107.461 460.753 121.8 451.824L139.426 428.307C134.856 448.483 136.707 492.246 163.513 476.741C167.255 474.583 169.933 471.266 172.786 468.615C172.662 466.698 172.631 464.655 172.744 462.485C173.344 451.215 177.572 442.366 180.818 436.983C183.578 431.291 186.349 425.586 189.109 419.894C189.864 418.608 190.618 417.323 191.373 416.038C192.996 413.386 194.723 410.827 196.542 408.393C198.765 405.88 200.977 403.355 203.2 400.841C205.567 398.684 208.079 396.951 210.684 395.677C207.593 384.842 235.061 343.352 239.919 331.198L239.981 331.232C241.594 327.02 244.137 323.405 247.239 320.513C247.27 318.826 247.404 317.173 247.662 315.612C248.82 308.611 253.038 299.888 258.517 295.55C259.137 291.211 260.688 287.344 262.859 284.004C265.175 279.677 268.431 276.188 272.215 273.674L287.845 243.34C288.052 239.288 288.9 235.272 290.461 231.564L310.888 183.234C311.436 182.006 311.984 180.789 312.532 179.561C314.217 176.095 316.347 173.122 318.817 170.712C317.742 159.901 329.579 137.497 317.081 125.32C310.392 118.801 295.423 131.667 294.203 126.605C305.089 94.5264 281.715 89.4882 261.742 106.773C257.669 104.879 272.7 69.2769 254.403 59.7393C243.527 54.0696 232.125 65.6156 222.087 68.9211C246.763 18.1459 226.708 4.60259 186.463 30.2427L186.452 30.2544ZM107.813 63.9973L117.334 53.002C119.246 52.2445 121.459 56.3879 122.007 57.9718C123.009 60.8411 123.299 72.8347 121.004 73.7529L107.813 63.9973ZM77.7299 100.093C84.0566 96.6725 82.1957 134.651 79.9731 135.718C70.514 125.974 70.0489 111.903 77.7299 100.093ZM42.7881 165.238C45.1968 164.641 53.9529 200.059 48.0604 205.339C36.6164 191.876 26.8266 181.627 42.7881 165.238ZM15.9925 246.14C19.7658 244.602 31.1685 270.77 25.276 276.819C13.677 270.105 10.8546 259.913 15.9925 246.14ZM10.2344 342.182C7.31918 334.526 7.9601 280.285 12.1469 278.632L28.9148 286.081C48.1637 269.646 21.0477 242.215 19.466 231.61C17.905 221.132 25.8444 205.339 29.8245 195.859C33.1326 202.711 41.0927 216.897 48.6083 215.829C69.6767 204.352 47.6986 164.274 50.3141 153.301C51.4822 148.389 60.5587 126.043 64.7042 127.88C68.5602 133.136 72.1164 150.558 79.5699 148.688C98.9119 135.122 83.3329 96.7188 90.4143 82.9577C105.084 54.4598 112.361 91.9784 124.064 81.1324C138.826 67.4516 122.317 49.352 128.654 40.4113C135.508 30.7245 172.92 -0.814487 183.124 14.3354C172.848 54.563 143.24 85.7123 122.12 119.823C87.7161 175.384 77.2957 213.339 54.1804 273.1C48.9184 286.701 28.615 338.704 21.5853 346.13C17.2021 350.755 12.2606 347.507 10.2344 342.193V342.182ZM180.839 56.652C180.374 64.4106 179.288 72.2838 175.618 79.2046C170.47 78.8603 171.814 69.2767 172.465 66.1549C173.757 59.9457 175.639 54.6204 178.472 49.0999C184.767 50.8904 181.087 52.4743 180.839 56.652ZM136.355 122.037C136.428 131.77 135.415 142.076 130.577 150.615C122.058 137.692 126.865 127.845 133.409 114.738C139.364 116.356 136.324 117.974 136.355 122.037ZM91.4584 190.591C95.8726 194.114 98.6328 226.055 95.7072 227.283C85.876 220.099 84.3046 201.425 91.4584 190.591ZM60.6622 275.155C66.5754 285.174 66.5753 299.188 60.8379 309.736C54.294 299.108 54.6353 286.621 60.6622 275.155ZM310.589 132.505C317.711 134.548 313.7 161.174 311.643 167.303L310.868 167.154C310.433 169.002 309.71 170.816 309.038 172.411C305.647 180.548 301.388 188.272 297.697 196.249C292.456 207.589 287.587 219.123 282.707 230.658C282.645 230.818 282.563 230.933 282.48 231.071C282.625 231.656 282.718 232.23 282.707 232.792C282.604 240.344 245.088 304.548 238.286 317.402C226.17 340.3 215.222 364.298 203.375 387.402C203.22 387.976 203.044 388.549 202.838 389.1C202.021 391.269 200.315 393.232 198.444 394.518C198.165 395.252 197.71 395.929 197.131 396.469C192.934 400.371 189.895 405.869 187.176 411.114C184.292 416.669 181.728 422.442 178.658 427.871C176.694 431.348 174.347 434.481 172.073 437.706C170.377 440.117 168.268 442.745 167.493 445.74C165.994 451.548 167.596 458.205 163.244 462.899C163.141 463.014 163.017 463.106 162.913 463.209C163.141 463.92 163.213 464.643 163.079 465.389C162.076 471.002 153.165 474.468 149.329 469.487C140.811 458.411 148.451 417.071 150.384 402.403C151.903 401.726 163.037 420.204 165.415 427.561C166.686 425.598 167.896 423.589 168.961 421.454C171.204 416.967 172.682 412.009 174.781 407.441C175.184 406.557 175.608 405.696 176.053 404.835C175.608 405.34 175.163 405.834 174.688 406.362C174.409 400.887 166.108 371.035 166.852 369.279C171.245 358.881 176.518 342.767 181.79 333.941C182.483 332.782 185.853 331.887 186.328 329.121C188.065 328.662 196.604 351.754 204.388 345.292C207.045 338.738 207.479 331.737 207.614 324.771C207.914 310.241 200.45 298.224 204.533 285.61C206.921 278.219 211.646 270.69 214.199 263.161C249.926 318.229 229.995 237.452 234.265 222.693C236.797 213.947 249.73 200.851 254.175 192.025C257.483 191.222 266.281 223.439 274.975 212.478C284.455 200.519 274.954 170.999 278.304 159.384C280.619 151.339 303.89 130.588 310.578 132.505H310.589ZM160.38 378.84C164.681 387.333 168.465 400.073 164.578 409.771C158.923 401.048 154.602 389.582 160.38 378.84ZM199.488 333.08C191.146 324.426 188.758 316.725 196.294 305.569C200.326 307.98 200.677 332.609 199.488 333.08ZM229.396 268.177C220.598 261.795 217.466 249.836 224.175 239.61C229.685 247.701 227.793 258.651 229.396 268.177ZM267.19 172.939C272.887 169.427 270.922 198.487 270.406 200.438C262.725 194.149 261.443 181.512 267.19 172.939ZM285.985 107.783C294.296 113.257 285.054 131.77 281.591 138.714C265.981 169.989 236.456 198.992 219.575 232.93C193.358 285.633 170.832 340.931 143.799 394.656C139.033 404.124 118.988 465.091 105.962 439.773C95.6866 419.791 117.541 384.785 119.836 363.472C128.24 366.306 128.137 384.28 138.64 377.267C141.938 346.175 128.22 318.63 152.751 291.498L166.552 309.747L172.527 308.623C180.911 280.825 161.859 258.157 184.716 233.412C190.515 235.524 190.339 244.304 195.012 247.449C211.956 258.869 207.324 210.171 208.637 202.814C211.087 189.156 224.051 180.055 229.788 167.797L236.405 179.435C255.891 180.812 247.321 150.685 249.968 138.84C253.41 123.449 271.574 103.674 285.995 107.771L285.985 107.783ZM167.927 296.514C158.747 290.867 154.653 280.606 161.693 270.311C166.635 267.706 168.485 293.461 167.927 296.514ZM232.724 73.1443C250.671 62.482 257.711 68.0831 255.23 90.3489C249.678 140.217 200.005 194.516 174.419 236.155C150.415 275.224 129.564 317.689 113.126 361.521C109.911 370.083 96.9788 424.611 90.5486 423.119C62.1301 405.054 75.166 362.714 87.3233 335.031L99.2841 343.903C108.63 345.166 107.647 320.616 107.451 313.844C107.162 303.859 102.572 288.927 104.06 280.595C105.962 269.967 113.033 261.829 113.044 250.731C153.568 295.607 131.238 216.231 135.032 199.669C137.141 190.476 148.037 180.169 149.939 169.335L164.34 196.972C181.428 205.568 173.044 147.138 173.809 140.757C175.36 127.776 183.589 114.463 194.061 108.942C198.341 109.941 201.628 143.018 214.488 131.013C226.025 120.247 205.939 89.0405 232.724 73.1331V73.1443ZM98.3951 332.162C89.8871 325.62 90.8899 311.308 96.1932 302.298C101.166 303.148 100.328 312.777 100.318 316.875C100.308 322.12 101.321 327.284 98.3848 332.151L98.3951 332.162ZM129.243 253.359C117.127 245.865 121.035 228.81 127.01 217.734C132.83 227.765 129.481 241.848 129.243 253.359ZM164.95 145.543L168.237 170.127L166.17 183.532C160.67 171.194 154.736 157.766 164.95 145.554V145.543ZM207.056 92.7475C212.989 94.251 209.867 96.1565 210.126 100.001C210.56 106.647 209.919 113.59 210.26 120.236C206.466 121.934 198.382 96.7303 207.056 92.7363V92.7475ZM157.775 141.629C108.94 218.882 95.7073 296.02 65.8207 379.907C63.6601 385.979 57.0542 405.8 51.172 405.065C38.012 401.794 27.6226 359.099 32.2952 348.035L49.7144 306.809C67.7848 342.962 73.6154 302.126 71.5995 281.02C71.1033 275.843 67.9606 271.011 67.5885 265.387C66.4306 248.103 76.5616 238.416 78.0296 222.348C85.5969 223.874 88.5638 241.125 98.3641 238.933C112.051 235.857 100.576 195.204 100.39 185.759C100.039 168.049 108.34 157.479 116.414 143.236C125.728 175.923 137.369 166.041 142.589 136.774C146.755 113.43 142.837 89.2928 164.443 73.4542C164.361 84.9429 170.873 100.173 180.88 87.7777C192.541 73.3279 183.858 14.0945 224.537 27.3392C220.205 72.7315 180.756 105.269 157.775 141.629Z" fill="#FFB96C"/>
<path d="M280.971 215.542C282.056 212.994 283.152 210.446 284.248 207.91C284.196 207.864 284.145 207.841 284.103 207.795C283.845 207.542 283.638 207.232 283.462 206.888C282.646 209.688 281.715 212.914 280.971 215.542Z" fill="#FFB96C"/>
<path d="M285.995 198.579C287.039 196.582 287.732 194.379 288.3 192.107C287.37 194.632 286.574 196.881 285.995 198.579Z" fill="#FFB96C"/>
<path d="M0.403235 328.81C0.878773 328.351 1.27156 327.823 1.51967 327.238C2.50176 324.931 1.71608 322.831 0.217099 321.43C0.620273 323.852 0.682355 326.308 0.403235 328.81Z" fill="#FFB96C"/>
<path d="M146.89 11.695C148.078 12.7394 149.278 13.7841 150.467 14.84C154.633 18.5242 160.184 11.1904 156.008 7.49472C155.284 6.852 154.56 6.20907 153.837 5.56635C151.728 8.20611 149.391 10.2377 146.9 11.7068L146.89 11.695Z" fill="#FFB96C"/>
</svg>
