<svg width="427" height="806" viewBox="0 0 427 806" fill="none" xmlns="http://www.w3.org/2000/svg">
<path d="M2.46446 783.635C22.045 776.626 32.676 756.865 40.3239 738.412C45.219 726.591 49.6938 714.576 54.25 702.617C59.118 689.865 63.9182 677.099 68.6506 664.305C78.129 638.704 87.3362 613.019 96.2994 587.223C105.262 561.427 113.968 535.548 122.416 509.585C130.864 483.608 139.054 457.561 146.973 431.417C154.892 405.273 162.567 379.046 169.971 352.75C177.374 326.453 184.52 300.072 191.409 273.609C198.297 247.145 204.915 220.626 211.261 194.038C217.62 167.449 223.709 140.791 229.526 114.077C235.343 87.3628 240.903 60.5793 246.191 33.7402C247.466 27.246 248.74 20.7514 249.988 14.2572L249.052 15.5093C268.402 5.55243 290.858 1.97809 312.255 5.3295C318.371 6.28903 324.378 7.80481 330.236 9.84903L328.744 7.83303C328.215 35.5899 327.958 63.3463 327.998 91.0893C328.039 118.832 328.364 146.603 328.988 174.346C329.612 202.089 330.507 229.833 331.714 257.562C332.921 285.291 334.385 313.005 336.161 340.706C337.938 368.408 340.013 396.304 342.358 424.075C344.691 451.609 347.321 479.13 350.223 506.609C353.152 534.31 356.379 561.997 359.878 589.628C363.349 616.996 367.105 644.336 371.146 671.62C373.045 684.47 374.875 697.347 377.085 710.155C378.753 719.819 380.814 729.428 383.689 738.801C389.086 756.323 397.656 774.012 412.897 784.594C416.518 787.097 420.437 789.072 424.532 790.602C427 791.519 428.057 787.487 425.617 786.583C408.545 780.228 397.697 764.542 391.147 747.854C383.499 728.372 380.652 707.415 377.519 686.792C373.356 659.438 369.478 632.043 365.885 604.605C362.332 577.433 359.064 550.232 356.067 522.99C353.071 495.747 350.318 468.019 347.864 440.498C345.423 413.089 343.267 385.638 341.396 358.187C339.524 330.722 337.924 303.243 336.623 275.75C335.321 248.258 334.29 220.751 333.544 193.231C332.799 165.71 332.338 138.19 332.161 110.656C331.985 83.1214 332.094 55.6011 332.487 28.0806C332.582 21.3361 332.704 14.6054 332.826 7.86087C332.839 6.90134 332.175 6.13622 331.334 5.84419C306.086 -2.93065 277.854 -1.76223 253.324 8.93168C251.819 9.58527 250.313 10.2802 248.835 11.0034C248.13 11.351 247.168 11.6568 246.598 12.2548C245.961 12.9084 245.92 13.9515 245.757 14.7997C245.025 18.5961 244.293 22.3789 243.547 26.1753C242.083 33.643 240.604 41.1107 239.113 48.5645C236.116 63.4859 233.024 78.3933 229.865 93.273C223.532 123.046 216.861 152.736 209.878 182.342C202.854 212.06 195.518 241.694 187.829 271.245C180.141 300.796 172.208 330.041 163.909 359.299C155.611 388.558 146.986 417.719 138.05 446.77C129.101 475.82 119.839 504.773 110.253 533.614C100.666 562.456 90.7669 591.187 80.5427 619.792C70.3185 648.397 59.7824 676.89 48.9209 705.245C44.0528 717.983 39.456 730.93 33.788 743.32C29.0555 753.681 23.279 763.958 14.7905 771.578C10.8581 775.097 6.32905 777.892 1.39322 779.658C-1.06113 780.534 -0.00345877 784.566 2.47801 783.676L2.46446 783.635Z" fill="#FFB96C"/>
<path d="M32.5948 805.245C57.0705 804.453 81.5462 803.674 106.022 802.881C107.405 802.839 108.259 801.588 107.988 800.239C101.615 768.964 106.849 735.686 121.277 707.484C136.017 678.684 160.208 656.101 189.863 644.42C219.6 632.711 253.27 631.57 283.495 642.139C313.001 652.457 339.646 674.694 352.04 704.481C363.783 732.711 360.447 768.088 340.406 791.603C337.938 794.496 335.253 797.152 332.365 799.585C330.846 800.878 332.473 803.841 334.345 803.076C355.335 794.343 377.791 789.684 400.436 789.434C403.053 789.406 403.053 785.234 400.436 785.262C377.438 785.512 354.576 790.185 333.26 799.043L335.239 802.534C359.634 781.897 368.014 745.796 359.932 715.105C351.43 682.828 326.249 656.991 297.122 643.251C267.996 629.512 232.292 627.106 200.63 636.34C184.832 640.957 169.74 648.369 156.56 658.451C143.38 668.533 132.599 680.659 123.894 694.579C106.497 722.406 98.3199 756.601 102.184 789.503C102.646 793.48 103.283 797.43 104.069 801.351L106.035 798.709C81.5598 799.502 57.0841 800.281 32.6083 801.074C29.9913 801.157 29.9913 805.329 32.6083 805.245H32.5948Z" fill="#FFB96C"/>
<path d="M81.0444 563.624C119.433 559.98 157.848 556.476 196.263 553.083C234.679 549.69 273.108 546.422 311.537 543.279C333.11 541.513 354.698 539.788 376.272 538.106L374.238 536.02C373.478 545.128 374.197 554.306 376.312 563.193L377.248 560.842C358.915 569.617 338.819 574.429 318.601 574.929C298.383 575.43 277.203 570.341 256.7 566.141C246.3 564.013 235.804 562.178 225.187 561.593C214.569 561.009 203.762 561.663 193.131 562.956C171.516 565.585 150.295 570.688 128.748 573.761C104.354 577.238 79.6749 578.628 55.0635 578.058L56.0941 581.952C62.2368 578.559 66.8336 572.941 69.2066 566.224C70.1016 563.693 66.1692 562.608 65.2878 565.111C63.2809 570.813 59.24 575.472 54.0465 578.337C52.216 579.352 53.1245 582.175 55.0771 582.23C77.2205 582.745 99.4046 581.66 121.399 578.921C143.258 576.195 164.736 571.216 186.527 568.032C197.375 566.447 208.345 565.418 219.315 565.585C229.851 565.738 240.279 567.198 250.625 569.186C271.358 573.191 291.888 578.879 313.123 579.157C335.931 579.463 358.657 574.345 379.323 564.472C380.15 564.082 380.462 562.956 380.258 562.122C378.224 553.583 377.601 544.822 378.333 536.061C378.428 534.99 377.33 533.892 376.299 533.975C337.856 536.979 299.414 540.108 260.985 543.362C222.556 546.616 184.141 549.996 145.739 553.486C124.179 555.447 102.618 557.449 81.0716 559.493C78.4816 559.744 78.468 563.915 81.0716 563.665L81.0444 563.624Z" fill="#FFB96C"/>
<path d="M125.67 379.407C159.15 376.626 192.629 373.859 226.122 371.078C259.71 368.297 293.312 365.501 326.9 362.72C335.104 362.038 343.321 361.107 351.538 360.704C354.413 360.565 357.817 360.564 360.027 362.748C362.034 364.708 362.156 367.879 361.424 370.466C359.62 376.905 352.555 379.491 346.969 381.382C339.416 383.927 331.754 386.097 323.998 387.905C292.905 395.15 260.931 396.067 229.404 391.534C221.268 390.366 213.145 389.072 204.942 388.502C196.738 387.932 188.982 388.28 181.035 389.114C165.143 390.769 149.387 394.134 133.372 394.301C129.426 394.343 125.48 394.176 121.548 393.759L123.514 396.401C124.558 392.98 125.616 389.559 126.66 386.138C127.447 383.566 123.528 382.467 122.741 385.026C121.697 388.446 120.639 391.867 119.595 395.288C119.161 396.693 120.3 397.806 121.561 397.931C138.064 399.655 154.485 396.749 170.798 394.524C178.988 393.411 187.219 392.466 195.49 392.368C203.762 392.271 212.413 393.258 220.807 394.44C229.2 395.622 237.296 396.874 245.594 397.611C253.717 398.32 261.88 398.626 270.043 398.543C286.329 398.362 302.6 396.609 318.561 393.341C326.452 391.728 334.277 389.726 341.992 387.348C348.664 385.29 356.325 383.371 361.451 378.212C365.546 374.095 367.58 366.892 364.325 361.608C360.352 355.169 352.067 356.462 345.775 356.977C311.279 359.841 276.782 362.692 242.299 365.557C207.694 368.421 173.089 371.3 138.484 374.165C134.213 374.512 129.942 374.874 125.67 375.222C123.08 375.43 123.053 379.616 125.67 379.394V379.407Z" fill="#FFB96C"/>
<path d="M203.111 456.282V452.763C203.111 452.235 202.881 451.665 202.515 451.289C202.148 450.914 201.579 450.65 201.077 450.677C200.575 450.705 200.006 450.872 199.64 451.289C199.274 451.706 199.043 452.193 199.043 452.763V456.282C199.043 456.81 199.274 457.381 199.64 457.756C200.006 458.132 200.575 458.396 201.077 458.368C201.579 458.34 202.148 458.173 202.515 457.756C202.881 457.339 203.111 456.852 203.111 456.282Z" fill="#FFB96C"/>
<path d="M157.875 537.703C167.245 512.477 176.615 487.251 185.999 462.025C188.372 455.642 190.745 449.246 193.118 442.863C194.026 440.415 194.867 437.731 196.535 435.687C198.203 433.643 200.847 432.864 203.45 432.53C216.278 430.903 229.255 429.999 242.123 428.734C256.931 427.287 271.752 425.841 286.559 424.395L284.593 422.865C287.997 446.088 291.4 469.312 294.79 492.522C295.753 499.127 296.729 505.719 297.692 512.324L299.658 509.682C261.283 511.073 222.977 514.09 184.846 518.762C174.107 520.07 163.381 521.516 152.682 523.088C150.105 523.463 151.204 527.482 153.767 527.106C191.49 521.585 229.431 517.692 267.467 515.397C278.193 514.758 288.932 514.243 299.672 513.854C301.109 513.798 301.828 512.575 301.638 511.212C298.234 487.988 294.831 464.764 291.441 441.555C290.478 434.949 289.502 428.358 288.539 421.753C288.417 420.932 287.386 420.139 286.573 420.223C259.521 422.865 232.482 425.494 205.43 428.15C202.691 428.414 199.938 428.692 197.403 429.874C194.867 431.056 193.185 432.989 191.897 435.325C190.446 437.953 189.524 440.902 188.48 443.711L184.86 453.459C180.032 466.447 175.205 479.45 170.378 492.438C164.913 507.165 159.435 521.891 153.97 536.604C153.034 539.121 156.967 540.206 157.889 537.717L157.875 537.703Z" fill="#FFB96C"/>
<path d="M226.136 361.372C238.34 317.706 250.53 274.04 262.734 230.389C266.151 218.137 269.582 205.886 272.999 193.634L268.999 193.078C271.86 219.987 274.138 246.964 275.779 273.984C276.606 287.487 277.271 301.018 277.799 314.535C278.057 321.419 278.288 328.288 278.477 335.172C278.545 337.828 278.979 340.943 278.03 343.488C277.081 346.032 274.518 346.742 272.145 347.145C265.134 348.341 257.948 348.8 250.883 349.607C243.466 350.455 236.048 351.289 228.645 352.138C226.068 352.43 226.041 356.602 228.645 356.309C242.259 354.766 255.873 353.209 269.474 351.665C274.613 351.081 280.227 350.149 282.03 344.364C282.911 341.541 282.627 338.426 282.545 335.519C282.45 331.959 282.342 328.413 282.234 324.853C281.311 296.651 279.725 268.477 277.474 240.345C276.213 224.575 274.735 208.806 273.067 193.078C272.836 190.853 269.745 190.116 269.067 192.522C256.863 236.188 244.672 279.853 232.468 323.505C229.051 335.756 225.621 348.007 222.204 360.259C221.485 362.845 225.404 363.944 226.122 361.372H226.136Z" fill="#FFB96C"/>
<path d="M85.5327 786.916C70.8066 766.766 53.5177 748.688 34.0863 733.293C33.2049 732.598 32.0658 732.431 31.2116 733.293C30.5064 734.003 30.3437 735.56 31.2116 736.242C50.3447 751.413 67.5116 769.172 82.0207 789.03C83.5666 791.158 87.1057 789.072 85.5327 786.93V786.916Z" fill="#FFB96C"/>
<path d="M81.9801 728.942C91.106 719.499 100.232 710.057 109.344 700.614C111.188 698.709 108.314 695.748 106.469 697.667C97.3435 707.109 88.2177 716.551 79.1054 725.993C77.2612 727.898 80.1359 730.861 81.9801 728.942Z" fill="#FFB96C"/>
<path d="M20.2415 803.117C38.8457 781.966 57.4636 760.814 76.0678 739.663C81.3562 733.642 86.6582 727.621 91.9465 721.599C93.6958 719.611 90.8346 716.648 89.0718 718.651C70.4676 739.802 51.8498 760.953 33.2455 782.105C27.9571 788.126 22.6552 794.148 17.3668 800.169C15.6175 802.158 18.4787 805.12 20.2415 803.117Z" fill="#FFB96C"/>
<path d="M110.822 706.789C102.645 689.086 91.3093 672.941 77.5324 659.383C73.6136 655.517 69.4913 651.887 65.1928 648.466C63.1453 646.839 60.257 649.774 62.3181 651.414C77.2069 663.29 89.9533 677.878 99.73 694.44C102.496 699.127 105.018 703.952 107.31 708.903C108.436 711.322 111.934 709.209 110.822 706.803V706.789Z" fill="#FFB96C"/>
<path d="M57.4637 706.845C75.5527 682.134 99.1334 661.761 125.806 647.438C133.413 643.363 141.264 639.789 149.305 636.744C150.58 636.257 151.502 634.338 150.2 633.253C134.647 620.348 119.094 607.443 103.554 594.552C101.534 592.883 98.6453 595.818 100.679 597.5C116.233 610.405 131.786 623.31 147.326 636.201L148.22 632.711C119.121 643.724 92.5433 661.427 70.9423 684.275C64.8539 690.714 59.1858 697.57 53.9381 704.745C52.3651 706.887 55.8907 708.973 57.4501 706.845H57.4637Z" fill="#FFB96C"/>
<path d="M76.2713 652.457C94.7264 630.43 115.202 610.196 137.386 592.118C143.746 586.931 150.241 581.953 156.872 577.127C158.987 575.583 156.967 571.968 154.824 573.526C131.406 590.547 109.561 609.807 89.7092 631.069C84.109 637.063 78.685 643.209 73.4102 649.509C71.7152 651.539 74.5763 654.501 76.2849 652.457H76.2713Z" fill="#FFB96C"/>
<path d="M273.04 587.209C293.271 600.378 314.222 612.393 335.782 623.115C341.884 626.16 348.04 629.095 354.237 631.932C356.61 633.017 358.685 629.428 356.285 628.33C334.399 618.303 313.069 607.025 292.444 594.524C286.6 590.977 280.823 587.348 275.087 583.608C272.877 582.161 270.83 585.777 273.04 587.209Z" fill="#FFB96C"/>
<path d="M273.474 626.174C295.549 608.959 317.625 591.742 339.701 574.526C341.762 572.927 339.728 569.298 337.653 570.925C315.578 588.141 293.502 605.357 271.426 622.573C269.365 624.172 271.399 627.801 273.474 626.174Z" fill="#FFB96C"/>
<path d="M303.17 648.439C323.795 662.581 346.033 674.138 369.316 682.926C371.77 683.858 372.841 679.825 370.4 678.907C347.443 670.244 325.558 658.785 305.231 644.851C303.048 643.349 301.014 646.965 303.184 648.453L303.17 648.439Z" fill="#FFB96C"/>
<path d="M332.378 696.485C343.43 673.651 353.206 650.191 361.681 626.231C362.576 623.7 358.644 622.615 357.762 625.118C349.41 648.745 339.755 671.871 328.866 694.371C327.7 696.763 331.212 698.891 332.378 696.471V696.485Z" fill="#FFB96C"/>
<path d="M347.267 714.563C357.749 728.984 370.631 741.388 385.371 751.136C387.581 752.597 389.615 748.981 387.418 747.535C373.302 738.19 360.827 726.272 350.779 712.449C349.233 710.322 345.694 712.394 347.267 714.549V714.563Z" fill="#FFB96C"/>
<path d="M350.345 770.884C363.091 747.952 371.811 722.754 375.96 696.707C376.38 694.079 372.461 692.953 372.041 695.595C367.946 721.308 359.417 746.144 346.847 768.77C345.545 771.106 349.057 773.206 350.359 770.869L350.345 770.884Z" fill="#FFB96C"/>
<path d="M355.783 772.259C371.973 770.368 388.34 772.551 403.514 778.628C405.955 779.601 407.012 775.568 404.599 774.609C389.14 768.421 372.272 766.154 355.783 768.087C353.206 768.393 353.179 772.565 355.783 772.259Z" fill="#FFB96C"/>
<path d="M341.613 796.526C354.034 775.138 369.478 755.725 387.391 738.94C389.33 737.132 386.442 734.184 384.516 735.992C366.346 752.999 350.684 772.746 338.101 794.426C336.758 796.734 340.27 798.834 341.613 796.526Z" fill="#FFB96C"/>
<path d="M313.883 499.808C327.375 509.57 340.88 519.346 354.373 529.108C356.515 530.666 358.549 527.05 356.42 525.507C342.928 515.744 329.422 505.968 315.93 496.206C313.788 494.649 311.754 498.264 313.883 499.808Z" fill="#FFB96C"/>
<path d="M302.126 545.811C318.845 527.969 333.083 507.735 344.311 485.833C345.531 483.455 342.019 481.341 340.799 483.733C329.721 505.343 315.74 525.271 299.251 542.876C297.434 544.809 300.309 547.771 302.126 545.824V545.811Z" fill="#FFB96C"/>
<path d="M292.946 464.278C308.852 480.048 327.741 492.369 348.365 500.545C350.806 501.519 351.864 497.486 349.45 496.526C329.504 488.614 311.198 476.571 295.821 461.33C293.936 459.466 291.061 462.414 292.946 464.278Z" fill="#FFB96C"/>
<path d="M299.116 496.915C311.591 485.026 324.066 473.136 336.541 461.232C338.467 459.397 335.578 456.448 333.666 458.284C321.191 470.174 308.716 482.064 296.241 493.968C294.315 495.803 297.204 498.751 299.116 496.915Z" fill="#FFB96C"/>
<path d="M286.301 411.824C303.523 424.687 320.757 437.565 337.978 450.428C340.094 452.013 342.128 448.397 340.026 446.826C322.805 433.963 305.57 421.086 288.349 408.222C286.234 406.637 284.2 410.253 286.301 411.824Z" fill="#FFB96C"/>
<path d="M292.254 453.25C301.584 429.595 314.33 407.331 329.91 387.431C331.538 385.359 328.676 382.383 327.036 384.483C310.981 404.981 297.95 427.76 288.336 452.138C287.359 454.627 291.292 455.711 292.254 453.25Z" fill="#FFB96C"/>
<path d="M186.134 440.804C175.652 424.464 165.17 408.139 154.689 391.799C153.251 389.56 149.726 391.659 151.176 393.898C161.658 410.238 172.14 426.564 182.622 442.904C184.059 445.143 187.585 443.043 186.134 440.804Z" fill="#FFB96C"/>
<path d="M168.167 425.452C173.7 414.508 181.876 405.135 191.924 398.362C194.107 396.888 192.073 393.286 189.877 394.76C179.259 401.908 170.513 411.782 164.655 423.352C163.448 425.73 166.96 427.844 168.167 425.452Z" fill="#FFB96C"/>
<path d="M140.844 454.502C154.58 443.558 166.621 430.57 176.683 416.01C178.201 413.813 174.676 411.727 173.171 413.91C163.326 428.164 151.421 440.847 137.969 451.555C135.908 453.196 138.796 456.129 140.844 454.502Z" fill="#FFB96C"/>
<path d="M151.271 464.347C158.282 477.197 165.292 490.047 172.303 502.896C173.577 505.246 177.103 503.132 175.815 500.796C168.804 487.946 161.794 475.097 154.783 462.248C153.509 459.898 149.983 462.011 151.271 464.347Z" fill="#FFB96C"/>
<path d="M133.304 506.706C148.79 487.418 167.57 471.106 188.683 458.66C190.948 457.325 188.9 453.709 186.636 455.058C165.238 467.671 146.119 484.219 130.43 503.757C128.775 505.816 131.637 508.778 133.304 506.706Z" fill="#FFB96C"/>
<path d="M127.162 514.506C138.715 524.964 150.268 535.436 161.835 545.893C163.787 547.659 166.675 544.725 164.709 542.945C153.156 532.487 141.603 522.016 130.036 511.559C128.084 509.793 125.196 512.726 127.162 514.506Z" fill="#FFB96C"/>
<path d="M105.995 546.464C127.46 535.311 146.661 519.694 162.12 500.768C163.787 498.724 160.926 495.761 159.245 497.819C143.976 516.496 125.142 531.848 103.947 542.862C101.615 544.072 103.663 547.674 105.995 546.464Z" fill="#FFB96C"/>
<path d="M219.614 355.211C202.311 344.836 187.219 330.777 175.544 314.062C174.039 311.893 170.499 313.978 172.032 316.162C184.114 333.475 199.64 348.049 217.552 358.798C219.817 360.161 221.865 356.546 219.6 355.197L219.614 355.211Z" fill="#FFB96C"/>
<path d="M185.849 341.096C193.362 324.548 204.657 309.904 218.773 298.752C219.654 298.056 220.102 296.972 219.505 295.901C219.017 295.011 217.593 294.469 216.725 295.15C202.054 306.748 190.175 321.766 182.351 338.996C181.253 341.416 184.751 343.53 185.863 341.096H185.849Z" fill="#FFB96C"/>
<path d="M230.312 310.711C220.02 290.727 209.728 270.744 199.423 250.761C198.202 248.383 194.69 250.496 195.911 252.861C206.203 272.844 216.495 292.828 226.8 312.811C228.021 315.189 231.533 313.075 230.312 310.711Z" fill="#FFB96C"/>
<path d="M189.605 314.549C197.836 293.606 209.972 274.29 225.119 257.923C229.39 253.306 233.892 248.939 238.611 244.795C240.604 243.043 237.716 240.109 235.736 241.847C218.61 256.866 204.264 275.222 193.714 295.65C190.731 301.435 188.06 307.374 185.687 313.451C184.71 315.94 188.643 317.024 189.605 314.563V314.549Z" fill="#FFB96C"/>
<path d="M247.425 232.503C236.455 220.39 226.312 207.554 217.051 194.023C215.559 191.84 212.034 193.926 213.539 196.124C222.99 209.933 233.35 223.074 244.55 235.437C246.34 237.411 249.202 234.449 247.425 232.488V232.503Z" fill="#FFB96C"/>
<path d="M206.759 242.612C218.881 222.824 236.292 206.761 256.7 196.401C259.046 195.205 256.985 191.604 254.653 192.8C233.635 203.48 215.722 220.14 203.247 240.512C201.85 242.793 205.362 244.893 206.759 242.612Z" fill="#FFB96C"/>
<path d="M264.877 187.836C258.856 172.205 250.734 157.603 240.672 144.323C239.072 142.209 236.211 145.171 237.797 147.271C247.398 159.926 255.222 174.027 260.958 188.934C261.907 191.41 265.839 190.324 264.877 187.821V187.836Z" fill="#FFB96C"/>
<path d="M240.157 154.6C235.858 153.501 233.363 149.107 233.16 144.768C233.065 142.64 233.458 140.499 234.57 138.677C236.075 136.23 238.787 135.103 241.404 134.366C245.256 133.281 249.242 132.642 253.161 131.821C257.365 130.945 261.568 130.069 265.772 129.193C274.07 127.455 282.369 125.73 290.668 123.992C300.065 122.031 309.475 120.071 318.873 118.096C320.486 117.762 320.961 114.995 319.361 114.286C297.827 104.621 276.986 93.3709 257.053 80.605C251.358 76.9615 245.744 73.1785 240.198 69.2987L239.71 73.1093C260.565 69.6745 281.054 64.0559 300.77 56.2962C306.33 54.1129 311.821 51.7494 317.259 49.2602C318.696 48.5927 318.466 46.3812 317.259 45.658C297.814 33.9073 277.705 23.3385 257.053 13.9935C254.68 12.9227 252.605 16.511 255.005 17.5957C275.657 26.9407 295.766 37.5233 315.211 49.2602V45.658C290.831 56.8943 265.026 64.7515 238.638 69.0902C236.753 69.3961 236.862 71.9969 238.15 72.9009C257.554 86.5012 277.908 98.6547 299.021 109.223C305.055 112.241 311.157 115.12 317.3 117.887L317.788 114.077C299.428 117.915 281.067 121.753 262.694 125.578C258.043 126.551 253.405 127.524 248.754 128.484C244.727 129.332 240.482 129.889 236.713 131.655C231.533 134.074 228.699 139.331 229.106 145.13C229.512 150.929 233.079 157.089 239.072 158.619C241.608 159.272 242.693 155.24 240.157 154.6Z" fill="#FFB96C"/>
<path d="M312.16 9.69653C296.987 24.7987 278.871 36.7857 259.154 44.6428C253.527 46.8817 247.778 48.787 241.947 50.3723C240.347 50.8034 239.845 53.3903 241.459 54.183C263.331 64.9603 286.139 73.6655 309.57 80.1458V76.1267C289.393 84.7486 270.152 95.5395 252.28 108.472C247.167 112.171 242.191 116.038 237.309 120.043C236.035 121.086 236.889 123.102 238.204 123.533C260.687 130.917 281.976 141.889 301.177 155.976C306.587 159.94 311.794 164.153 316.839 168.603V165.655C304.729 180.201 290.925 193.218 275.711 204.287C273.596 205.831 275.63 209.446 277.759 207.888C293.258 196.611 307.374 183.427 319.713 168.603C320.378 167.797 320.595 166.434 319.713 165.655C301.394 149.524 280.715 136.383 258.463 126.787C252.185 124.076 245.784 121.656 239.289 119.528L240.184 123.019C256.795 109.363 274.884 97.5837 293.976 87.9328C299.455 85.1654 305.001 82.5795 310.642 80.1737C312.364 79.4366 312.757 76.7386 310.642 76.1546C287.549 69.7716 265.053 61.233 243.493 50.6086L243.005 54.4193C263.968 48.7316 283.766 38.7326 300.933 25.1462C305.855 21.2524 310.547 17.0945 315.008 12.6584C316.893 10.7811 314.018 7.83277 312.133 9.71011L312.16 9.69653Z" fill="#FFB96C"/>
<path d="M271.887 176.599C293.231 191.577 312.866 209.001 330.412 228.484C332.188 230.458 335.063 227.51 333.287 225.535C319.442 210.169 304.282 196.082 288.037 183.413C283.427 179.826 278.722 176.349 273.935 172.998C271.765 171.482 269.731 175.098 271.887 176.599Z" fill="#FFB96C"/>
<path d="M315.849 218.874C306.031 240.888 294.546 262.095 281.501 282.273C280.05 284.512 283.576 286.612 285.013 284.373C298.044 264.195 309.53 242.988 319.361 220.974C320.445 218.555 316.933 216.427 315.849 218.874Z" fill="#FFB96C"/>
<path d="M279.006 243.266C298.804 253.209 316.283 267.533 330.1 285.152C331.741 287.238 334.602 284.275 332.975 282.203C318.954 264.348 301.122 249.746 281.054 239.664C278.708 238.482 276.647 242.084 279.006 243.266Z" fill="#FFB96C"/>
<path d="M320.418 282.982C306.601 306.442 292.783 329.902 278.966 353.348C277.61 355.656 281.122 357.756 282.478 355.447C296.295 331.987 310.113 308.527 323.93 285.081C325.286 282.773 321.774 280.673 320.418 282.982Z" fill="#FFB96C"/>
<path d="M286.03 309.96C304.648 323.185 321.991 338.232 337.829 354.822C339.66 356.741 342.535 353.793 340.704 351.874C324.622 335.02 306.98 319.779 288.078 306.359C285.922 304.829 283.888 308.445 286.03 309.96Z" fill="#FFB96C"/>
</svg>
