<svg width="1341" height="756" viewBox="0 0 1341 756" fill="none" xmlns="http://www.w3.org/2000/svg">
<path d="M1338.79 0C1309.63 6.36675 1280.58 13.3482 1251.65 20.9319C1222.72 28.5157 1194.3 36.6116 1165.85 45.3354C1137.21 54.1233 1108.72 63.5133 1080.41 73.4926C1073.85 75.8113 1067.23 78.0275 1060.75 80.6152C1054.98 82.9211 1049.35 85.7013 1044.52 89.9415C1036.01 97.4356 1032.2 109.054 1033.16 120.853C1034.11 132.651 1039.11 144.68 1045.7 154.403C1052.61 164.6 1061.74 172.504 1070.58 180.575C1079.35 188.569 1088.31 196.806 1094.88 207.156C1101.45 217.507 1104.79 229.229 1104.5 241.719C1103.89 267.468 1089.56 291.038 1071.18 305.949C1050.37 322.808 1025.22 331.135 1000.76 339.09C973.296 348.032 945.831 356.986 918.39 366.043C891.065 375.049 863.775 384.131 836.497 393.316C809.126 402.54 781.789 411.853 754.499 421.32C727.209 430.786 699.942 440.369 672.734 450.143C645.537 459.904 618.387 469.833 591.294 479.953C564.214 490.073 537.203 500.398 510.262 510.941C483.333 521.484 456.485 532.257 429.73 543.287C402.987 554.304 376.325 565.59 349.779 577.158C323.245 588.726 296.805 600.576 270.492 612.733C244.214 624.877 218.052 637.341 192.042 650.152C165.996 662.975 140.091 676.131 114.336 689.671C88.5819 703.212 62.9786 717.124 37.5615 731.433C25.2891 738.338 13.0517 745.345 0.872388 752.442C-1.11678 753.595 0.651369 756.913 2.6289 755.76C27.953 741.016 53.4748 726.68 79.1711 712.73C104.681 698.882 130.366 685.406 156.19 672.288C182.015 659.17 208.153 646.334 234.338 633.857C260.558 621.367 286.905 609.222 313.369 597.373C339.833 585.523 366.204 574.058 392.773 562.823C419.435 551.55 446.201 540.546 473.049 529.786C499.909 519.012 526.85 508.494 553.861 498.182C580.802 487.895 607.801 477.827 634.858 467.924C662.102 457.958 689.392 448.183 716.74 438.562C743.913 428.993 771.134 419.578 798.377 410.29C825.714 400.964 853.073 391.766 880.468 382.645C907.839 373.537 935.246 364.519 962.664 355.551C976.227 351.119 989.791 346.712 1003.35 342.293C1015.72 338.257 1028.07 334.12 1040.04 328.816C1051.93 323.551 1063.47 317.159 1073.74 308.665C1083.22 300.825 1091.35 291.308 1097.42 280.047C1103.15 269.389 1107 257.398 1107.86 245.011C1108.72 232.559 1106.16 220.159 1100.37 209.424C1094.58 198.689 1085.91 189.786 1077.17 181.664C1068.44 173.542 1058.99 165.945 1051.54 156.35C1038.48 139.543 1027.96 109.605 1046.83 92.862C1051.56 88.6602 1057.33 86.0468 1063.03 83.8435C1069.72 81.2686 1076.49 78.9628 1083.24 76.5801C1097.31 71.6353 1111.42 66.8317 1125.58 62.1816C1153.97 52.8428 1182.53 44.1056 1211.24 35.971C1239.94 27.8364 1268.77 20.2912 1297.74 13.3608C1311.71 10.0173 1325.72 6.81471 1339.74 3.75304C1341.94 3.26624 1341.01 -0.435502 1338.81 0.0512915L1338.79 0Z" fill="#FFE1C0"/>
</svg>
