<svg width="313" height="419" viewBox="0 0 313 419" fill="none" xmlns="http://www.w3.org/2000/svg">
<path d="M180.696 26.4096C190.434 5.13001 176.559 -5.5701 157.052 2.91569C107.29 24.566 39.1429 120.154 19.4763 170.397C13.8258 184.824 0.971809 243.454 0 279.631C0.721342 282.727 0.771494 285.893 0.0601706 289.149C0.0601706 289.159 0.0601706 289.168 0.0601706 289.178C0.460916 298.025 1.95371 304.587 4.9593 307.362C11.0807 313.023 18.244 308.364 24.7961 312.212C20.3278 326.769 37.61 371.542 55.1326 359.89C59.1301 357.235 62.1156 347.317 65.4118 351.194C73.3065 360.471 72.7354 382.001 93.9749 376.972C93.494 391.248 104.144 402.199 118.04 394.405L135.121 373.876C130.693 391.489 132.487 429.69 158.465 416.155C162.092 414.271 164.687 411.376 167.452 409.062C167.331 407.389 167.301 405.605 167.412 403.711C167.993 393.873 172.09 386.149 175.236 381.45C177.911 376.481 180.596 371.502 183.271 366.532C184.002 365.41 184.734 364.288 185.465 363.166C187.038 360.852 188.711 358.618 190.474 356.494C192.628 354.3 194.773 352.095 196.927 349.901C199.221 348.018 201.655 346.505 204.18 345.393C201.184 335.935 227.804 299.718 232.513 289.108L232.573 289.138C234.136 285.461 236.6 282.306 239.606 279.781C239.636 278.308 239.766 276.866 240.017 275.503C241.139 269.392 245.226 261.778 250.536 257.991C251.137 254.203 252.64 250.827 254.744 247.912C256.988 244.135 260.144 241.089 263.811 238.895L278.959 212.415C279.16 208.879 279.981 205.373 281.494 202.137L301.291 159.948C301.822 158.876 302.353 157.814 302.884 156.742C304.517 153.716 306.581 151.122 308.975 149.018C307.933 139.58 319.404 120.023 307.292 109.394C300.81 103.703 286.303 114.934 285.121 110.516C295.67 82.5137 273.018 78.1158 253.662 93.2038C249.715 91.5508 264.282 60.4729 246.549 52.1474C236.009 47.1982 224.959 57.277 215.231 60.1624C239.145 15.8399 219.709 4.01768 180.706 26.3993L180.696 26.4096ZM104.484 55.8643L113.712 46.2664C115.565 45.6052 117.709 49.222 118.24 50.6045C119.212 53.1092 119.492 63.5787 117.268 64.3802L104.484 55.8643ZM75.3303 87.3727C81.4617 84.3871 79.6582 117.539 77.5042 118.471C68.3372 109.965 67.8864 97.6819 75.3303 87.3727ZM41.4672 144.239C43.8015 143.718 52.2873 174.635 46.5767 179.244C35.486 167.492 25.9984 158.545 41.4672 144.239ZM15.4988 214.86C19.1556 213.517 30.2063 236.36 24.4957 241.64C13.2547 235.779 10.5195 226.882 15.4988 214.86ZM9.91848 298.696C7.09323 292.014 7.71436 244.665 11.7719 243.223L28.0221 249.725C46.6768 235.378 20.3979 211.434 18.8651 202.177C17.3522 193.03 25.0466 179.244 28.9038 170.969C32.1097 176.95 39.8241 189.333 47.1077 188.401C67.5257 178.382 46.2261 143.397 48.7608 133.819C49.8929 129.531 58.6892 110.025 62.7067 111.628C66.4436 116.217 69.89 131.425 77.1135 129.792C95.8584 117.95 80.7603 84.4275 87.623 72.4151C101.839 47.5389 108.893 80.2895 120.234 70.8219C134.54 58.8796 118.541 43.0802 124.682 35.2757C131.324 26.82 167.582 -0.71098 177.47 12.5136C167.512 47.629 138.818 74.8197 118.35 104.595C85.0082 153.095 74.9094 186.227 52.5078 238.394C47.4083 250.266 27.7316 295.66 20.9189 302.143C16.671 306.18 11.8821 303.345 9.91848 298.706V298.696ZM175.256 49.4525C174.805 56.2251 173.753 63.0978 170.197 69.139C165.207 68.8385 166.51 60.4728 167.141 57.7477C168.393 52.3276 170.217 47.6791 172.962 42.8601C179.063 44.4231 175.497 45.8057 175.256 49.4525ZM132.146 106.528C132.216 115.024 131.234 124.021 126.546 131.475C118.29 120.194 122.949 111.598 129.291 100.157C135.061 101.569 132.116 102.982 132.146 106.528ZM88.6349 166.37C92.9129 169.446 95.5879 197.328 92.7526 198.4C83.2248 192.128 81.702 175.827 88.6349 166.37ZM58.7895 240.187C64.5201 248.934 64.5201 261.166 58.9597 270.373C52.6179 261.096 52.9486 250.196 58.7895 240.187ZM301 115.666C307.903 117.449 304.016 140.692 302.022 146.042L301.271 145.912C300.85 147.525 300.149 149.108 299.497 150.5C296.211 157.604 292.084 164.346 288.507 171.309C283.427 181.208 278.709 191.276 273.98 201.345C273.92 201.485 273.84 201.585 273.759 201.706C273.9 202.217 273.99 202.717 273.98 203.208C273.88 209.801 237.522 265.845 230.93 277.066C219.188 297.053 208.578 318.002 197.097 338.17C196.947 338.67 196.776 339.171 196.576 339.652C195.784 341.546 194.131 343.259 192.318 344.381C192.047 345.022 191.607 345.613 191.046 346.084C186.978 349.49 184.033 354.29 181.398 358.868C178.602 363.717 176.118 368.757 173.142 373.496C171.239 376.531 168.965 379.266 166.76 382.081C165.117 384.185 163.074 386.48 162.322 389.094C160.869 394.164 162.422 399.975 158.204 404.072C158.104 404.173 157.984 404.253 157.884 404.343C158.104 404.964 158.174 405.595 158.044 406.246C157.072 411.146 148.436 414.171 144.719 409.823C136.464 400.155 143.868 364.068 145.741 351.264C147.214 350.673 158.004 366.803 160.308 373.225C161.541 371.512 162.713 369.758 163.745 367.895C165.919 363.977 167.352 359.649 169.385 355.662C169.776 354.891 170.187 354.139 170.618 353.388C170.187 353.829 169.756 354.259 169.295 354.72C169.025 349.941 160.98 323.883 161.701 322.35C165.959 313.273 171.068 299.207 176.178 291.503C176.849 290.491 180.115 289.71 180.576 287.295C182.259 286.894 190.535 307.052 198.079 301.411C200.653 295.691 201.074 289.579 201.204 283.498C201.495 270.814 194.262 260.325 198.219 249.314C200.533 242.862 205.112 236.29 207.586 229.718C242.211 277.787 222.895 207.276 227.033 194.392C229.487 186.758 242.02 175.326 246.328 167.622C249.534 166.921 258.06 195.043 266.486 185.476C275.673 175.036 266.466 149.268 269.712 139.129C271.956 132.106 294.508 113.992 300.99 115.666H301ZM155.429 330.696C159.597 338.109 163.264 349.23 159.497 357.696C154.017 350.082 149.829 340.073 155.429 330.696ZM193.33 290.751C185.245 283.197 182.93 276.475 190.234 266.737C194.141 268.841 194.482 290.34 193.33 290.751ZM222.314 234.096C213.788 228.526 210.752 218.086 217.254 209.159C222.594 216.223 220.761 225.78 222.314 234.096ZM258.942 150.961C264.462 147.896 262.559 173.263 262.058 174.966C254.614 169.476 253.372 158.445 258.942 150.961ZM277.156 94.0854C285.211 98.8643 276.254 115.025 272.898 121.086C257.77 148.387 229.157 173.704 212.796 203.329C187.389 249.334 165.558 297.604 139.359 344.502C134.741 352.767 115.315 405.986 102.691 383.885C92.7326 366.443 113.912 335.885 116.136 317.281C124.281 319.755 124.181 335.444 134.36 329.323C137.556 302.182 124.261 278.138 148.036 254.454L161.41 270.384L167.201 269.402C175.326 245.137 156.862 225.35 179.013 203.749C184.634 205.593 184.463 213.257 188.992 216.002C205.412 225.971 200.924 183.462 202.196 177.04C204.571 165.117 217.134 157.173 222.694 146.473L229.106 156.632C247.992 157.834 239.686 131.535 242.251 121.196C245.587 107.761 263.19 90.4989 277.166 94.0756L277.156 94.0854ZM162.743 258.832C153.846 253.903 149.879 244.946 156.702 235.959C161.491 233.685 163.284 256.167 162.743 258.832ZM225.54 63.8489C242.932 54.5416 249.755 59.4309 247.35 78.8671C241.97 122.398 193.831 169.796 169.035 206.144C145.771 240.247 125.564 277.316 109.634 315.578C106.518 323.052 93.9849 370.65 87.7533 369.348C60.212 353.578 72.8455 316.62 84.6275 292.455L96.2191 300.199C105.276 301.301 104.324 279.871 104.134 273.96C103.853 265.244 99.405 252.209 100.848 244.936C102.691 235.659 109.544 228.555 109.554 218.867C148.827 258.04 127.187 188.752 130.864 174.295C132.907 166.27 143.467 157.273 145.31 147.815L159.266 171.94C175.827 179.444 167.702 128.439 168.443 122.869C169.946 111.538 177.921 99.9165 188.07 95.0975C192.218 95.9691 195.404 124.843 207.867 114.363C219.048 104.966 199.581 77.725 225.54 63.8391V63.8489ZM95.3575 289.95C87.1122 284.239 88.084 271.746 93.2235 263.881C98.0425 264.623 97.231 273.029 97.221 276.605C97.211 281.184 98.1928 285.692 95.3475 289.94L95.3575 289.95ZM125.253 221.162C113.511 214.62 117.298 199.732 123.089 190.064C128.73 198.82 125.484 211.113 125.253 221.162ZM159.858 127.047L163.043 148.506L161.04 160.208C155.71 149.438 149.959 137.717 159.858 127.057V127.047ZM200.663 80.9608C206.414 82.2733 203.389 83.9367 203.639 87.2929C204.06 93.0937 203.439 99.1549 203.769 104.956C200.092 106.438 192.258 84.4375 200.663 80.9511V80.9608ZM152.905 123.631C105.576 191.066 92.7527 258.401 63.7888 331.628C61.6949 336.927 55.2929 354.23 49.5923 353.588C36.8386 350.733 26.7698 313.464 31.2982 303.806L48.1796 267.819C65.6922 299.378 71.3428 263.731 69.3891 245.307C68.9082 240.788 65.8626 236.57 65.5019 231.661C64.3798 216.573 74.1981 208.117 75.6207 194.091C82.9544 195.424 85.8298 210.482 95.3274 208.568C108.592 205.883 97.4714 170.397 97.2911 162.152C96.9504 146.693 104.995 137.466 112.82 125.033C121.847 153.566 133.128 144.94 138.187 119.393C142.225 99.0148 138.428 77.9452 159.367 64.1194C159.287 74.1481 165.598 87.4428 175.296 76.6227C186.597 64.0092 178.182 12.3033 217.605 23.8648C213.407 63.4886 175.176 91.8915 152.905 123.631Z" fill="#FFB96C"/>
<path d="M272.297 188.15C273.349 185.926 274.411 183.702 275.473 181.488C275.423 181.448 275.373 181.428 275.332 181.388C275.082 181.167 274.882 180.897 274.711 180.596C273.92 183.041 273.018 185.856 272.297 188.15Z" fill="#FFB96C"/>
<path d="M277.166 173.343C278.178 171.599 278.849 169.676 279.4 167.692C278.498 169.897 277.727 171.86 277.166 173.343Z" fill="#FFB96C"/>
<path d="M0.390742 287.024C0.8516 286.624 1.23226 286.163 1.47271 285.652C2.42448 283.638 1.66306 281.805 0.210352 280.582C0.60108 282.696 0.661245 284.84 0.390742 287.024Z" fill="#FFB96C"/>
<path d="M142.355 10.2089C143.507 11.1206 144.669 12.0326 145.821 12.9543C149.859 16.1703 155.239 9.76845 151.191 6.54245C150.49 5.98141 149.789 5.42018 149.088 4.85914C147.044 7.16343 144.779 8.93683 142.365 10.2192L142.355 10.2089Z" fill="#FFB96C"/>
</svg>
