<svg width="1851" height="1065" viewBox="0 0 1851 1065" fill="none" xmlns="http://www.w3.org/2000/svg">
<path d="M116.145 280.416C109.334 247.982 129.227 212.038 160.34 200.607C178.893 193.786 200.365 194.796 216.967 184.065C233.929 173.093 241.6 152.721 251.681 135.219C275.574 93.7637 318.7 63.95 365.925 56.2591C406.76 49.5983 448.395 58.7394 489.76 58.4394C596.953 57.6493 697.976 -6.20848 804.839 2.30255C848.914 5.81298 891.359 21.6149 935.474 24.5252C981.56 27.5656 1027.24 16.4443 1073.08 10.8536C1118.93 5.25291 1168.19 5.90299 1207.68 29.8659C1253.86 57.8993 1277.99 112.406 1321.88 143.9C1353.45 166.542 1397.14 179.944 1409.62 216.729C1417.06 238.661 1410.58 262.524 1406.24 285.277C1394.68 345.914 1399.07 409.522 1418.85 467.999C1434.63 514.635 1460.07 565.331 1439.74 610.166C1411.13 673.244 1314.27 675.004 1277.62 733.771C1259.17 763.345 1260.12 801.57 1243.37 832.143C1219.8 875.169 1166.31 893.251 1117.26 893.381C1068.2 893.511 1020.17 879.659 971.249 876.009C892.859 870.158 815.25 890.55 737.88 904.432C660.501 918.314 577.951 925.225 505.712 894.221C487.15 886.25 469.248 875.579 456.406 859.977C449.646 851.756 444.315 842.225 436.174 835.354C429.973 830.123 422.462 826.723 414.901 823.772C373.456 807.58 325.15 801.3 295.037 768.536C271.234 742.642 264.133 705.348 243.39 676.934C209.776 630.899 147.339 616.267 105.744 577.302C90.5219 563.051 77.6604 541.848 84.6112 522.186C89.8918 507.264 105.014 498.013 112.445 484.031C134.987 441.576 76.3902 390.2 94.3024 345.594C98.0528 336.243 104.884 328.472 109.534 319.531C119.085 301.179 118.535 277.946 108.134 260.064" fill="#FFE1C0"/>
<path d="M271.914 280.016C269.183 266.855 270.954 253.043 276.104 240.681C281.255 228.32 289.756 217.369 300.637 209.698C306.358 205.667 312.639 202.657 319.33 200.627C326.97 198.306 334.871 197.046 342.692 195.526C350.513 194.006 358.094 192.256 365.285 189.015C372.476 185.775 378.147 181.344 383.147 175.744C392.999 164.692 398.929 150.911 406.09 138.119C413.311 125.207 422.302 113.386 432.793 102.955C443.235 92.5835 455.066 83.6324 467.878 76.3915C480.739 69.1207 494.561 63.59 508.913 60.0896C526.155 55.8891 543.957 54.9589 561.639 55.439C580.431 55.9491 599.134 57.9493 617.896 59.1094C635.558 60.1996 653.19 60.2196 670.812 58.4994C687.374 56.8792 703.796 54.0288 720.038 50.4484C736.36 46.848 752.522 42.5274 768.604 37.9869C784.686 33.4463 800.948 28.5957 817.17 24.0452C833.262 19.5246 849.444 15.2441 865.786 11.7237C882.128 8.20327 898.14 5.53294 914.552 4.11277C930.964 2.6926 947.946 2.60259 964.568 4.29279C982.77 6.14301 1000.71 9.96348 1018.56 13.874C1036.42 17.7844 1054.1 21.7949 1072.14 24.2152C1090.18 26.6355 1109.22 27.0456 1127.83 25.7254C1146.56 24.3952 1165.16 21.6249 1183.7 18.7445C1201.88 15.9242 1220.04 12.9338 1238.35 11.1536C1254.78 9.55343 1271.36 8.91335 1287.85 9.98348C1304.34 11.0536 1320.09 13.7939 1335.41 19.0846C1350.13 24.1752 1363.83 31.7461 1375.98 41.4973C1387.33 50.5984 1397.35 61.2097 1406.83 72.211C1416.48 83.4124 1425.61 95.0638 1435.2 106.335C1444.7 117.517 1454.68 128.368 1465.94 137.799C1476.52 146.66 1488.27 153.791 1500.2 160.652C1511.88 167.373 1523.76 173.893 1534.6 181.944C1544.76 189.495 1553.95 198.646 1559.61 210.098C1567.24 225.54 1566.67 242.962 1563.99 259.554C1562.54 268.495 1560.55 277.336 1558.89 286.247C1557.23 295.158 1555.93 304.019 1554.94 312.97C1552.98 330.842 1552.36 348.855 1553.07 366.817C1553.78 384.679 1555.8 402.501 1559.11 420.063C1562.42 437.625 1567.09 454.968 1572.95 471.89C1578.59 488.172 1584.94 504.203 1590.19 520.615C1595.44 537.027 1599.51 553.059 1600.06 569.871C1600.58 585.373 1597.63 600.865 1590.21 614.577C1584.91 624.368 1577.6 632.849 1569.2 640.1C1560.8 647.351 1550.79 653.732 1540.79 659.282C1530.79 664.833 1519.58 670.214 1508.83 675.394C1498.02 680.615 1487.2 685.876 1476.79 691.886C1466.71 697.697 1456.98 704.228 1448.35 712.069C1439.23 720.36 1431.56 730.141 1426.11 741.212C1419.07 755.534 1415.43 771.176 1411.67 786.598C1407.91 802.03 1403.98 817.692 1396.24 831.693C1389.7 843.535 1380.57 853.806 1369.87 862.047C1358.97 870.448 1346.56 876.819 1333.64 881.449C1320.37 886.2 1306.49 889.23 1292.48 890.73C1276.3 892.471 1259.98 892.031 1243.79 890.6C1225.16 888.96 1206.69 885.94 1188.24 882.909C1169.89 879.899 1151.53 876.879 1133.01 875.129C1114.33 873.358 1095.54 873.078 1076.8 873.958C1058.06 874.838 1039.4 876.829 1020.83 879.459C1002.21 882.099 983.69 885.4 965.208 888.9C946.616 892.431 928.073 896.171 909.481 899.701C892.019 903.012 874.517 906.122 856.915 908.613C839.623 911.063 822.241 912.923 804.799 913.903C787.516 914.873 770.174 914.983 752.892 913.843C735.61 912.703 718.928 910.373 702.326 906.462C685.794 902.572 669.532 897.171 654.16 889.92C639.608 883.059 625.697 874.298 614.785 862.337C609.295 856.326 604.944 849.435 599.894 843.075C594.843 836.714 588.572 831.263 581.141 827.393C574.1 823.732 566.54 821.022 559.059 818.412C552.008 815.951 544.877 813.701 537.756 811.481C523.494 807.03 509.163 802.7 495.341 796.969C481.519 791.238 469.158 784.527 458.256 775.056C446.715 765.035 438.284 752.394 431.343 738.872C424.262 725.09 418.572 710.649 411.511 696.857C404.76 683.675 396.539 671.504 386.028 661.023C375.516 650.541 364.615 642.71 352.764 635.159C340.912 627.608 328.131 620.598 315.679 613.547C303.168 606.466 290.726 599.195 279.035 590.804C266.943 582.123 255.172 572.192 247.111 559.52C243.02 553.089 239.8 545.898 238.82 538.288C237.84 530.677 239.27 523.566 242.92 517.085C249.971 504.564 262.633 496.193 268.903 483.121C273.934 472.64 274.364 461.018 272.274 449.747C270.024 437.635 265.303 426.104 260.702 414.733C256.102 403.361 251.151 391.56 248.461 379.338C245.971 367.987 245.741 355.965 250.421 345.124C253.772 337.363 259.112 330.712 263.373 323.462C267.383 316.621 270.134 309.14 271.354 301.299C273.594 286.917 271.054 271.915 263.763 259.274C262.803 257.604 260.202 259.114 261.172 260.784C269.093 274.526 271.184 291.318 267.193 306.639C265.103 314.66 261.152 321.651 256.642 328.532C252.131 335.413 248.051 341.624 245.791 349.175C242.37 360.586 243.56 372.688 246.521 384.049C249.691 396.23 254.742 407.812 259.412 419.473C263.913 430.725 268.443 442.296 270.004 454.387C270.724 459.928 270.784 465.609 269.734 471.109C268.583 477.14 266.163 482.761 262.703 487.822C254.592 499.653 241.87 508.424 237.26 522.506C232.329 537.578 238.69 553.439 247.671 565.591C256.652 577.742 268.393 587.074 280.535 595.515C292.676 603.956 304.988 610.956 317.569 618.057C330.121 625.138 342.742 632.129 354.794 640.04C366.845 647.951 377.707 656.362 387.298 666.643C397.639 677.725 405.3 690.656 411.851 704.258C418.602 718.249 424.362 732.721 431.923 746.303C439.264 759.494 448.495 771.396 460.457 780.707C472.008 789.708 485.19 796.229 498.781 801.55C512.373 806.87 527.245 811.281 541.587 815.801C548.757 818.062 555.898 820.382 562.959 822.962C570.63 825.762 578.391 828.723 585.242 833.253C592.093 837.784 597.263 844.295 602.094 850.936C606.924 857.576 611.855 864.087 617.896 869.728C629.697 880.769 643.959 888.85 658.721 895.231C674.493 902.052 690.955 907.172 707.757 910.723C724.579 914.283 741.711 916.314 758.883 917.164C776.055 918.014 793.567 917.684 810.859 916.504C828.331 915.313 845.743 913.273 863.066 910.703C880.958 908.052 898.75 904.792 916.512 901.382C935.174 897.791 953.807 894.041 972.489 890.55C991.171 887.06 1009.87 883.84 1028.7 881.359C1047.3 878.909 1066.01 877.179 1084.77 876.629C1103.53 876.079 1122.43 876.819 1141.15 878.949C1159.87 881.079 1178.38 884.33 1196.96 887.33C1215.35 890.3 1233.8 893.051 1252.4 894.231C1268.09 895.231 1283.8 895.041 1299.38 892.841C1313.38 890.87 1327.2 887.38 1340.32 882.069C1353.11 876.899 1365.21 870.018 1375.76 861.097C1386.38 852.106 1395.18 841.034 1401.26 828.503C1408.25 814.101 1411.87 798.419 1415.64 782.947C1419.41 767.485 1423.38 751.794 1431.26 737.832C1437.11 727.491 1445.05 718.569 1454.13 710.959C1463.07 703.468 1473.03 697.267 1483.23 691.666C1493.43 686.066 1504.77 680.645 1515.66 675.384C1526.56 670.124 1537.21 664.903 1547.54 658.852C1557.87 652.802 1566.93 646.521 1575.25 638.63C1583.57 630.739 1590.36 621.708 1595.11 611.436C1601.95 596.655 1604.04 580.343 1602.74 564.201C1601.38 547.259 1596.77 530.757 1591.41 514.695C1585.91 498.223 1579.44 482.081 1573.97 465.599C1568.31 448.537 1563.96 431.045 1560.92 413.322C1557.87 395.51 1556.18 377.458 1555.83 359.386C1555.48 341.334 1556.48 323.262 1558.84 305.359C1560.02 296.368 1561.63 287.457 1563.42 278.566C1565.22 269.625 1567.05 260.674 1568.08 251.603C1569.11 242.532 1569.24 233.911 1567.67 225.18C1566.37 217.919 1563.76 210.898 1560.01 204.547C1553.48 193.466 1543.77 184.735 1533.36 177.354C1522.26 169.493 1510.25 163.012 1498.5 156.191C1486.75 149.37 1474.7 141.649 1464.2 132.328C1453.7 123.007 1443.42 111.516 1433.98 100.254C1424.46 88.8631 1415.28 77.1916 1405.45 66.0703C1395.76 55.109 1385.39 44.6877 1373.64 35.9166C1360.98 26.4555 1346.74 19.3746 1331.65 14.6841C1316.03 9.83347 1299.7 7.47318 1283.39 6.71309C1266.87 5.94299 1250.32 6.81309 1233.91 8.58331C1215.37 10.5836 1196.98 13.6639 1178.55 16.5043C1160.13 19.3446 1140.97 22.0449 1122.01 23.0751C1103.38 24.0852 1084.84 23.2151 1066.41 20.3647C1048.26 17.5544 1030.38 13.3239 1012.43 9.45342C994.491 5.58295 976.559 2.10253 958.307 0.712358C941.765 -0.547795 925.123 -0.0777412 908.621 1.66247C892.099 3.40268 875.727 6.35304 859.535 10.0135C843.203 13.7039 827.041 18.0945 810.939 22.665C794.667 27.2956 778.455 32.1162 762.163 36.6567C745.871 41.1973 729.629 45.4078 713.137 48.8382C696.645 52.2686 680.373 54.8289 663.781 56.0791C645.719 57.4392 627.687 56.8192 609.635 55.519C590.762 54.1588 571.89 52.2686 552.948 52.2886C535.776 52.3086 518.594 54.0288 502.052 58.7694C487.79 62.8499 474.088 68.9306 461.447 76.6616C448.805 84.3925 437.234 93.7437 427.093 104.475C416.851 115.306 408.36 127.478 401.3 140.589C394.239 153.701 388.048 167.423 377.147 177.564C371.476 182.834 364.705 186.455 357.364 188.835C350.023 191.215 341.962 192.586 334.181 194.066C326.4 195.546 318.749 197.176 311.499 200.227C305.258 202.847 299.497 206.437 294.306 210.788C283.925 219.479 276.104 231.15 271.664 243.912C267.553 255.713 266.483 268.535 269.023 280.796C269.413 282.687 272.304 281.887 271.914 279.996V280.016Z" fill="#44403B"/>
<path d="M526.914 212.927C543.689 208.077 560.584 203.578 577.6 199.439C594.615 195.301 611.9 191.478 629.196 188.043C646.622 184.581 664.137 181.479 681.733 178.755C699.379 176.013 717.105 173.641 734.881 171.655C752.657 169.669 770.763 168.017 788.769 166.761C806.775 165.504 824.681 164.634 842.677 164.142C860.673 163.65 878.79 163.518 896.846 163.782C914.922 164.046 932.988 164.687 951.024 165.706C969.03 166.726 987.007 168.131 1004.93 169.915C1022.86 171.699 1040.54 173.843 1058.25 176.391C1075.96 178.939 1093.19 181.778 1110.52 185.117C1127.82 188.456 1145.02 192.269 1162.02 196.654C1178.57 200.915 1194.94 205.713 1211.04 211.143C1227.13 216.574 1242.79 222.593 1258.12 229.368C1272.84 235.879 1287.19 243.058 1301 250.975C1314.8 258.892 1328.05 267.529 1340.57 276.94C1352.75 286.096 1364.18 296.008 1374.67 306.649C1385.16 317.29 1394.65 328.616 1403.08 340.557C1411.8 352.912 1419.4 365.881 1425.69 379.325C1432 392.813 1437.01 406.785 1440.5 421.037C1444 435.289 1446.16 451.255 1446.18 466.553C1446.2 481.315 1444.39 496.069 1440.48 510.435C1436.74 524.222 1431.16 537.604 1423.88 550.249C1416.74 562.647 1407.97 574.307 1397.98 585.089C1388.13 595.73 1377.12 605.527 1365.28 614.464C1353.03 623.699 1339.9 631.994 1326.13 639.375C1312.22 646.835 1297.66 653.364 1282.72 659.075C1267.2 665.006 1251.23 670.032 1235.05 674.373C1218.44 678.819 1201.59 682.536 1184.61 685.726C1167.3 688.986 1149.85 691.71 1132.36 694.1C1114.86 696.49 1096.78 698.59 1078.92 700.286C1061.02 701.99 1043.1 703.335 1025.13 704.337C1006.99 705.347 988.828 705.988 970.662 706.27C952.496 706.551 934.52 706.472 916.453 706.041C898.387 705.611 880.401 704.82 862.415 703.686C844.429 702.553 826.543 701.059 808.667 699.223C790.801 697.386 772.975 695.189 755.219 692.641C737.603 690.119 720.047 687.246 702.582 684.03C685.236 680.84 667.971 677.317 650.805 673.45C633.82 669.628 616.995 665.349 600.17 661.017C586.147 657.405 571.504 654.154 559.574 646.378C558.022 645.367 556.521 647.652 558.062 648.654C570.463 656.746 585.797 660.033 600.36 663.82C617.385 668.24 634.451 672.519 651.656 676.376C668.912 680.234 686.257 683.757 703.693 686.938C721.339 690.154 739.064 693.028 756.85 695.541C774.636 698.054 792.482 700.224 810.378 702.043C828.425 703.88 846.521 705.356 864.637 706.472C882.713 707.588 900.819 708.343 918.926 708.748C937.032 709.152 955.408 709.196 973.645 708.871C991.891 708.545 1010.14 707.86 1028.35 706.806C1046.47 705.76 1064.56 704.354 1082.59 702.588C1100.47 700.839 1118.3 698.739 1136.07 696.261C1153.61 693.819 1171.09 691.042 1188.44 687.712C1205.55 684.425 1222.54 680.594 1239.26 675.999C1255.46 671.552 1271.39 666.386 1286.91 660.34C1301.87 654.506 1316.42 647.837 1330.31 640.227C1344 632.732 1357.04 624.314 1369.19 614.991C1381.05 605.888 1392.06 595.897 1401.86 585.063C1411.66 574.228 1420.51 562.278 1427.55 549.695C1434.6 537.112 1440.11 523.616 1443.73 509.838C1447.54 495.322 1449.28 480.41 1449.17 465.525C1449.06 450.139 1446.98 434.771 1443.24 419.745C1439.49 404.72 1434.56 391.311 1428.14 377.726C1421.82 364.335 1414.25 351.401 1405.54 339.081C1396.83 326.762 1387.46 315.646 1376.93 304.953C1366.35 294.198 1354.81 284.198 1342.52 274.963C1329.96 265.543 1316.69 256.871 1302.88 248.927C1289.03 240.958 1274.62 233.735 1259.84 227.188C1244.43 220.37 1228.59 214.28 1212.5 208.824C1196.4 203.367 1179.75 198.473 1163.05 194.176C1146.36 189.879 1128.7 185.943 1111.31 182.586C1093.9 179.229 1076.39 176.347 1058.8 173.825C1040.99 171.268 1023.11 169.107 1005.17 167.314C987.237 165.522 969.101 164.107 951.014 163.079C932.808 162.042 914.572 161.401 896.335 161.146C878.099 160.891 860.053 161.023 841.927 161.532C823.8 162.042 805.634 162.938 787.528 164.221C769.442 165.495 751.395 167.156 733.409 169.195C715.423 171.233 697.867 173.588 680.202 176.338C662.536 179.089 644.78 182.243 627.204 185.749C609.829 189.22 592.553 193.06 575.388 197.251C558.222 201.443 542.418 205.678 526.104 210.397C524.272 210.924 525.063 213.472 526.904 212.936L526.914 212.927Z" fill="#44403B"/>
<path d="M1407.18 556.835C1407.42 557.065 1407.64 557.315 1407.89 557.546C1411.99 561.416 1415.9 565.586 1419.9 569.557C1422.97 572.597 1425.97 575.768 1429.09 578.748C1428.76 581.078 1431.93 582.689 1433.33 584.399C1454.42 610.172 1473.3 637.385 1494.82 662.848C1524.54 698.023 1557.84 723.366 1590.23 755.43C1618.47 783.403 1636.41 812.316 1658.79 842.35C1663.53 848.711 1669.8 858.422 1675.75 863.553C1676.23 863.963 1676.8 864.833 1677.16 864.963C1677.49 871.684 1686.46 874.954 1689.41 878.894C1689.76 879.365 1688.5 880.335 1688.98 880.975C1696.96 891.606 1707.4 900.157 1716.02 909.488C1737.16 932.371 1758.11 954.854 1782.1 975.546C1783.77 976.986 1786.61 979.087 1788.81 979.457C1789.39 980.217 1790.27 980.847 1790.93 981.577C1796.34 987.558 1801.82 990.838 1807.89 995.709C1810.63 997.899 1812.88 999.929 1815.67 1002.07C1822.13 1007.02 1828.91 1011.44 1835.46 1016.2C1838.74 1018.59 1842.06 1020.91 1845.35 1023.27C1847.24 1024.62 1849.08 1026.18 1851 1027.51C1849.41 1029.2 1847.65 1030.76 1846.06 1032.46C1845.61 1032.94 1845.12 1033.41 1844.65 1033.87C1841.31 1037.15 1837.93 1039.4 1834.76 1042.35C1834.27 1042.8 1833.83 1043.31 1833.35 1043.76C1832.03 1044.99 1830.1 1045.63 1829.11 1046.59C1828.87 1046.82 1828.64 1047.06 1828.4 1047.3C1821.1 1051.78 1817.66 1056.69 1814.27 1064.26C1808.11 1056.8 1801.49 1049.69 1795.18 1042.35C1789.75 1036.04 1785.14 1028.91 1778.93 1023.27C1778.2 1022.61 1777.57 1021.74 1776.81 1021.15C1777.3 1020.28 1776.67 1019.66 1776.1 1019.03C1774.84 1014.86 1769.88 1011.81 1766.91 1008.43C1752.28 991.758 1739.49 973.716 1725.21 956.844C1722.76 953.944 1721.07 950.593 1717.44 947.653C1715.51 942.282 1711.05 938.032 1707.55 933.521C1702.61 927.17 1697.67 920.78 1692.71 914.439C1692.11 913.359 1690.66 911.158 1689.88 910.198C1688.87 906.188 1684.34 903.828 1681.83 900.657C1664.98 879.355 1655.24 862.303 1634.75 842.35C1632.15 839.82 1630.36 837.359 1626.98 834.579C1619.54 828.458 1614.54 824.808 1606.49 821.147C1599.82 818.117 1595.54 816.987 1588.83 814.787C1563.89 806.596 1548.38 803.275 1527.7 784.803C1503.35 763.06 1479.71 735.017 1457.08 711.244C1426.54 679.16 1392.08 648.367 1370.45 609.122C1370.25 608.752 1369.88 606.561 1369.04 604.881C1364.26 595.38 1361.1 587.619 1358.44 577.318C1358.34 576.928 1358.54 576.328 1358.44 575.908C1358.1 574.508 1357.29 573.067 1357.03 571.667C1356.59 569.367 1355.85 565.366 1355.62 563.186C1355.27 559.856 1354.8 551.995 1355.62 549.054C1357.76 541.404 1364.99 535.613 1372.93 536.093C1386.25 536.893 1398.01 548.244 1407.21 556.835H1407.18Z" fill="#332E7F"/>
<path d="M331.211 584.203C272.774 612.017 221.928 653.012 175.192 697.287C151.419 719.82 127.076 742.802 105.404 767.385C86.4214 788.918 71.2395 813.971 52.7973 836.134C46.8266 843.315 39.0456 851.066 29.7945 849.805C20.7534 848.575 15.3327 839.394 11.2523 831.233C5.69158 820.092 0.0208856 807.17 4.78146 795.659C7.40178 789.318 12.7824 784.618 18.0031 780.167C66.899 738.462 116.735 697.877 167.481 658.442C215.137 621.398 262.463 582.023 315.479 552.779C324.2 547.969 333.241 543.248 339.922 535.867C352.814 521.606 354.314 500.573 362.855 483.351C373.416 462.038 394.009 447.817 413.741 434.545C448.745 411.002 483.74 387.469 519.194 364.617C489.34 392.34 460.377 421.013 432.343 450.587C477.119 443.036 499.212 381.919 544.457 378.188C509.703 406.982 478.039 439.506 450.196 475.03C496.311 467.869 522.534 415.813 566.46 400.081C553.218 415.743 534.896 426.034 518.224 437.985C501.542 449.927 485.45 465.019 480.439 484.911C514.953 478.22 534.966 435.075 570.04 432.585C532.095 460.238 494.151 487.891 456.206 515.535C438.784 528.226 421.312 540.958 402.43 551.359C379.517 563.971 354.834 573.002 331.221 584.243L331.211 584.203Z" fill="white"/>
<path d="M329.701 581.613C263.303 613.397 207.946 661.673 155.19 712.169C127.446 738.722 101.023 765.955 78.4303 797.089C72.9396 804.65 67.529 812.261 61.9183 819.732C56.3076 827.203 51.127 834.584 44.4962 840.684C37.8654 846.785 29.2843 849.545 22.1835 842.485C16.4728 836.804 12.7923 828.333 9.79198 820.982C6.23155 812.281 3.89127 802.21 9.18191 793.689C13.9125 786.048 22.2735 780.437 29.0243 774.706C44.3662 761.685 59.8081 748.783 75.3399 735.992C106.404 710.399 137.838 685.265 169.601 660.552C199.585 637.22 229.119 613.267 260.172 591.354C275.524 580.513 291.246 570.182 307.508 560.74C321.8 552.439 337.912 545.709 347.153 531.247C355.934 517.505 357.924 500.863 364.765 486.261C371.876 471.089 384.317 459.388 397.559 449.497C412.541 438.296 428.443 428.244 443.975 417.833C460.947 406.452 477.949 395.12 495.021 383.909C503.562 378.308 512.123 372.728 520.704 367.197L517.064 362.486C487.22 390.23 458.256 418.893 430.213 448.457C428.043 450.747 430.263 453.987 433.133 453.467C455.676 449.417 472.538 432.775 488.15 417.243C503.872 401.601 521.054 383.369 544.457 381.169L542.337 376.048C507.592 404.921 475.999 437.375 448.075 472.89C446.185 475.29 447.925 478.41 450.996 477.9C499.121 469.949 523.144 419.163 567.26 402.951L564.339 397.941C537.826 428.694 489.03 441.216 477.549 484.091C476.929 486.401 479.029 488.242 481.239 487.781C498.381 484.231 511.873 472.6 524.705 461.408C537.806 449.987 551.878 437.105 570.04 435.565L568.53 429.974C537.796 452.367 507.072 474.76 476.339 497.153C447.205 518.375 418.592 540.698 385.978 556.42C367.455 565.341 348.293 572.832 329.711 581.623C326.22 583.273 329.261 588.454 332.741 586.804C349.073 579.073 365.845 572.352 382.247 564.781C398.649 557.21 413.631 548.789 428.323 538.948C459.147 518.295 488.67 495.552 518.654 473.71C536.286 460.858 553.928 448.007 571.56 435.155C573.7 433.595 573.32 429.284 570.05 429.564C532.585 432.755 515.253 474.62 479.659 482.001L483.349 485.691C494.381 444.536 543.007 431.875 568.6 402.191C570.37 400.131 568.73 396.05 565.679 397.181C543.607 405.292 526.295 421.403 509.073 436.825C491.68 452.397 473.188 468.199 449.405 472.13L452.326 477.14C480.249 441.636 511.843 409.172 546.587 380.298C548.527 378.688 546.997 374.938 544.467 375.178C495.891 379.738 478.199 439.306 431.553 447.687L434.474 452.697C462.517 423.144 491.48 394.47 521.324 366.727C523.794 364.427 520.574 360.156 517.684 362.016C482.009 385.019 446.775 408.682 411.571 432.395C397.769 441.686 383.757 451.257 372.656 463.799C361.235 476.7 356.064 491.572 350.863 507.684C348.253 515.745 345.333 523.876 340.252 530.757C334.641 538.358 326.46 543.268 318.339 547.779C301.507 557.15 285.075 567.061 269.123 577.882C237.22 599.525 207.106 623.628 176.792 647.391C144.118 672.994 111.484 698.637 79.3704 724.96C63.0584 738.332 46.8365 751.834 30.7245 765.445C18.283 775.956 -0.139224 786.988 0.000793444 805.33C0.0608007 813.891 3.52122 822.082 7.15166 829.673C10.292 836.244 13.7525 843.295 19.4132 848.105C32.2747 859.037 46.0864 848.815 54.9275 838.264C67.289 823.532 78.0403 807.53 89.4917 792.098C101.493 775.917 114.835 760.995 128.876 746.553C156.38 718.279 185.183 690.836 215.217 665.253C244.01 640.72 274.644 618.197 307.718 599.735C315.919 595.155 324.27 590.844 332.741 586.794C336.222 585.123 333.181 579.953 329.711 581.613H329.701Z" fill="#332E7F"/>
<path d="M1526.85 116.536C1548.98 106.545 1570.97 96.264 1592.82 85.6727C1614.75 75.0514 1636.53 64.1301 1658.15 52.9087C1670.29 46.6079 1682.39 40.2172 1694.43 33.7264C1696.13 32.8063 1694.62 30.216 1692.92 31.1361C1671.53 42.6475 1650 53.8688 1628.32 64.8002C1606.64 75.7315 1584.65 86.4228 1562.61 96.784C1550.23 102.605 1537.81 108.325 1525.34 113.946C1523.58 114.736 1525.11 117.327 1526.85 116.536Z" fill="#332E7F"/>
<path d="M1595.42 130.668C1616.12 127.108 1636.9 124.047 1657.74 121.517C1678.58 118.987 1699.44 116.986 1720.35 115.496C1732.16 114.656 1743.98 113.976 1755.81 113.466C1757.73 113.386 1757.74 110.386 1755.81 110.466C1734.7 111.386 1713.61 112.816 1692.57 114.786C1671.52 116.756 1650.76 119.217 1629.95 122.197C1618.15 123.887 1606.37 125.748 1594.61 127.778C1592.71 128.108 1593.52 130.998 1595.41 130.668H1595.42Z" fill="#332E7F"/>
<path d="M1621.8 205.677C1640.43 208.558 1659.11 211.128 1677.84 213.368C1696.58 215.608 1715.23 217.509 1733.96 219.099C1744.56 219.999 1755.17 220.789 1765.8 221.479C1767.73 221.609 1767.72 218.609 1765.8 218.479C1747.11 217.259 1728.45 215.728 1709.82 213.868C1691.19 212.008 1672.52 209.828 1653.94 207.317C1643.48 205.907 1633.03 204.387 1622.6 202.777C1620.71 202.487 1619.9 205.377 1621.8 205.667V205.677Z" fill="#332E7F"/>
<path d="M221.928 799.519C232.479 795.299 243.02 791.078 253.572 786.858C255.342 786.148 254.572 783.247 252.771 783.967C242.22 788.188 231.679 792.408 221.128 796.629C219.357 797.339 220.127 800.239 221.928 799.519Z" fill="#332E7F"/>
<path d="M286.856 819.112C273.304 836.374 258.702 852.786 243.13 868.248C227.668 883.61 211.266 898.021 194.044 911.373C184.273 918.954 174.222 926.175 163.941 933.046C162.341 934.116 163.841 936.716 165.451 935.636C183.733 923.414 201.265 910.063 217.917 895.691C234.569 881.319 250.351 865.887 265.113 849.565C273.394 840.404 281.355 830.953 288.976 821.242C290.156 819.742 288.046 817.602 286.856 819.122V819.112Z" fill="#332E7F"/>
<path d="M337.052 835.634C333.571 856.466 329.751 877.249 325.57 897.951C321.41 918.574 316.909 939.136 312.059 959.609C309.318 971.16 306.478 982.682 303.528 994.183C303.048 996.053 305.938 996.853 306.418 994.983C311.669 974.521 316.589 953.978 321.15 933.356C325.7 912.813 329.901 892.191 333.751 871.508C335.922 859.837 337.992 848.145 339.942 836.434C340.262 834.544 337.362 833.733 337.052 835.634Z" fill="#332E7F"/>
</svg>
