<svg width="72" height="92" viewBox="0 0 72 92" fill="none" xmlns="http://www.w3.org/2000/svg">
<path d="M72 56.851C72.0101 53.691 66.4926 42.4755 64.4963 40.7801C61.4466 38.1819 56.18 37.56 53.1704 36.0352C49.9402 34.39 49.7797 29.4945 42.908 32.7748L56.9725 12.2399C58.3368 8.92943 69.5723 5.59887 64.9978 1.17487C61.5168 -2.18576 56.6515 2.45891 53.9128 5.16748C48.9471 10.083 46.5896 16.9849 41.3932 21.7299C32.5151 6.04025 1.39668 3.30166 11.4986 28.5716C14.0066 34.8515 18.3603 34.099 23.8377 36.286C17.317 41.0611 2.60049 52.1862 0.212932 59.8304C-1.22161 64.4049 5.06828 76.453 4.89774 78.6399C4.99805 78.7804 5.08837 78.9207 5.17865 79.0612C5.36926 79.011 5.48962 79.2218 5.79058 79.9341C7.56619 84.1574 13.3545 86.0534 16.8054 89.4642C16.8054 89.5846 16.6048 89.8555 16.2436 90.2467C19.9253 90.658 23.5869 91.2799 27.2685 91.4203C31.4417 89.9657 35.9058 90.2868 40.6408 91.2198C46.0479 90.5777 51.435 89.5144 56.822 88.2705C58.5073 86.3645 61.5971 84.8797 63.1821 82.6627C66.954 77.4161 71.7091 65.2576 71.99 58.8674C72.0101 58.5063 70.9066 59.4994 71.99 56.8611L72 56.851ZM18.8218 27.2775C17.7183 26.3245 16.3741 18.8909 17.2568 17.677C19.3635 14.7779 31.3313 19.9141 32.9665 22.1712C34.9528 24.9199 33.4681 30.3773 33.8794 33.7881C31.0706 29.5446 21.42 29.5246 18.8218 27.2875V27.2775ZM52.1874 82.7129C50.4519 83.1543 49.4487 83.1241 48.7966 82.8532C48.2549 83.1341 47.6731 83.3247 47.0612 83.3849C42.3161 83.8965 37.7015 82.9737 33.0267 82.442C30.9702 83.2846 29.5758 83.6156 28.7532 83.6257C25.3424 84.378 22.2025 83.7962 19.4939 81.6294C12.7024 79.292 6.36235 66.0501 8.00755 60.5928C8.9706 57.3726 21.2394 45.3547 24.6603 44.1108C28.051 42.8769 33.4581 43.7395 35.3742 39.7368C36.6783 37.0082 34.4111 35.0019 38.9053 35.7743C37.6915 44.2411 43.3093 41.041 48.9872 42.2648C51.8062 42.8667 58.4171 44.9934 60.0322 47.2707C60.3432 47.712 64.6668 56.0484 64.7872 56.5601C66.2318 62.6794 58.6678 81.0677 52.2074 82.7129H52.1874Z" fill="#FFB96C"/>
</svg>
